<?xml version="1.0" encoding="UTF-8" standalone="no"?>
<!DOCTYPE svg PUBLIC "-//W3C//DTD SVG 20010904//EN"
              "http://www.w3.org/TR/2001/REC-SVG-20010904/DTD/svg10.dtd">

<svg xmlns="http://www.w3.org/2000/svg"
     width="2.3in" height="2.3in"
     viewBox="0 0 690 690">
  <path id="Selection"
        fill="none" stroke="black" stroke-width="1"
        d="M 0.00,0.00
           C 0.00,0.00 690.00,0.00 690.00,0.00
             690.00,0.00 690.00,690.00 690.00,690.00
             690.00,690.00 0.00,690.00 0.00,690.00
             0.00,690.00 0.00,0.00 0.00,0.00 Z
           M 285.00,101.00
           C 285.00,101.00 146.00,101.00 146.00,101.00
             146.00,101.00 118.00,101.00 118.00,101.00
             112.39,101.07 108.07,101.81 104.85,107.02
             102.78,110.37 103.01,114.22 103.00,118.00
             103.00,118.00 103.00,277.00 103.00,277.00
             103.00,277.00 128.00,277.00 128.00,277.00
             128.00,277.00 128.00,126.00 128.00,126.00
             128.00,126.00 285.00,126.00 285.00,126.00
             285.00,126.00 285.00,101.00 285.00,101.00 Z
           M 587.00,277.00
           C 587.00,277.00 587.00,142.00 587.00,142.00
             587.00,142.00 587.00,116.00 587.00,116.00
             586.93,110.39 586.19,106.07 580.98,102.85
             577.63,100.78 573.78,101.01 570.00,101.00
             570.00,101.00 405.00,101.00 405.00,101.00
             405.00,101.00 405.00,126.00 405.00,126.00
             405.00,126.00 562.00,126.00 562.00,126.00
             562.00,126.00 562.00,277.00 562.00,277.00
             562.00,277.00 587.00,277.00 587.00,277.00 Z
           M 397.00,303.00
           C 393.77,296.13 386.24,289.59 380.00,285.36
             363.99,274.50 348.13,270.78 329.00,271.00
             283.86,271.53 246.53,310.08 246.00,355.00
             245.81,371.35 247.44,384.97 254.49,400.00
             279.24,452.82 350.78,464.76 394.00,427.70
             414.66,409.99 423.96,382.61 424.00,356.00
             424.00,356.00 424.00,217.00 424.00,217.00
             423.99,212.12 424.02,206.10 420.57,202.22
             415.43,196.44 405.29,197.06 400.65,203.11
             397.79,206.83 398.01,210.59 398.00,215.00
             398.00,215.00 398.00,273.00 398.00,273.00
             398.00,280.49 398.82,296.58 397.00,303.00 Z
           M 128.00,407.00
           C 128.00,407.00 103.00,407.00 103.00,407.00
             103.00,407.00 103.00,546.00 103.00,546.00
             103.00,546.00 103.00,574.00 103.00,574.00
             103.07,579.61 103.81,583.93 109.02,587.15
             112.37,589.22 116.22,588.99 120.00,589.00
             120.00,589.00 285.00,589.00 285.00,589.00
             285.00,589.00 285.00,564.00 285.00,564.00
             285.00,564.00 128.00,564.00 128.00,564.00
             128.00,564.00 128.00,407.00 128.00,407.00 Z
           M 587.00,407.00
           C 587.00,407.00 562.00,407.00 562.00,407.00
             562.00,407.00 562.00,564.00 562.00,564.00
             562.00,564.00 405.00,564.00 405.00,564.00
             405.00,564.00 405.00,589.00 405.00,589.00
             405.00,589.00 544.00,589.00 544.00,589.00
             544.00,589.00 572.00,589.00 572.00,589.00
             577.61,588.93 581.93,588.19 585.15,582.98
             587.22,579.63 586.99,575.78 587.00,572.00
             587.00,572.00 587.00,407.00 587.00,407.00 Z" />
</svg>
