<svg class="svg-icon" style="width: 1.0966796875em; height: 1em;vertical-align: middle;fill: currentColor;overflow: hidden;" viewBox="0 0 1123 1024" version="1.1" xmlns="http://www.w3.org/2000/svg"><path d="M46.350571 219.900354h63.318192A33.107551 33.107551 0 0 0 134.085582 207.071178c3.310755-4.966133 7.035355-15.726087-2.896911-15.726087H68.284324a33.107551 33.107551 0 0 0-24.416819 14.484554c-3.310755 4.966133-7.035355 15.726087 2.896911 15.726087zM202.78375 311.773808a840.104108 840.104108 0 0 1 0-151.053201 180.022309 180.022309 0 0 1 9.104577-62.490503l58.765903-45.522883a56.282837 56.282837 0 0 1 28.555263 41.384439A450.262694 450.262694 0 0 1 304.58947 207.071178a413.844388 413.844388 0 0 1 0 74.905834c-5.793821 33.107551-51.316704 75.319679-59.593592 20.69222-2.069222-14.484554-36.832151 6.62151-34.762929 20.278375 7.863043 52.972082 75.319679 41.384439 102.633408 10.346109a132.844049 132.844049 0 0 0 27.31373-92.701143A570.691411 570.691411 0 0 0 331.07551 65.950242C310.383291 0.148984 237.960523 13.805849 201.956061 58.914887 148.570135 126.371522 161.399311 253.007905 168.020822 331.224494c0 14.070709 36.004462-6.207666 34.762928-20.278375z"  /><path d="M353.009263 201.691201h306.658692c12.829176 0 41.384439-30.21064 21.933752-30.21064H374.943016c-12.829176 0-41.384439 30.21064-21.933753 30.21064z"  /><path d="M714.295414 339.087538V193.414313a397.290613 397.290613 0 0 1 2.483066-82.768877c8.276888-35.590617 54.213615-109.668763 95.184209-60.007437a210.232949 210.232949 0 0 1 21.519909 109.668763c3.724599 76.561212-2.483066 185.402286-103.874942 199.88684-12.829176 0-37.245995 32.693707-14.070709 29.382951a178.366931 178.366931 0 0 0 141.534781-124.153316c19.450686-57.52437 32.693707-206.922194-23.58913-252.445077-41.384439-32.693707-102.633408 2.069222-127.464072 41.384439a191.196107 191.196107 0 0 0-25.244508 98.08112c-4.138444 69.112013 0 139.465559-2.483066 206.922194 0 13.24302 34.762929-6.207666 34.762929-20.278375z"  /><path d="M849.208684 192.586624h108.42723a32.693707 32.693707 0 0 0 24.416819-14.484553c2.896911-4.966133 7.035355-15.726087-2.896911-15.726087H869.073215a32.693707 32.693707 0 0 0-24.416819 14.484554c-2.896911 4.966133-7.035355 15.726087 2.896911 15.726086z"  /><path d="M7.863043 220.728043a3137.354306 3137.354306 0 0 0-3.724599 379.909148c5.379977 90.631921-5.793821 259.480431 41.384439 335.627799 91.45961 145.673225 431.639697 70.353546 575.657543 50.489015 112.151829-15.726087 391.910635-18.209153 473.024136-115.04874 51.316704-61.248969 19.864531-163.054689 10.34611-230.09748a4106.164018 4106.164018 0 0 0-100.564187-489.577911c-4.138444-14.898398-38.073684 7.035355-34.762928 20.278375 41.384439 150.639357 121.67025 367.907661 106.771852 527.237751q41.384439 96.011898-58.352059 138.224025a160.985467 160.985467 0 0 1-145.673224 78.21659 1502.255129 1502.255129 0 0 1-312.866358 49.661326 1680.62206 1680.62206 0 0 1-314.10789 9.932266c-130.774827-10.759954-152.708579-43.867505-184.160753-170.503888C14.898398 620.915566 30.624485 394.128841 41.384439 207.071178c0-18.622997-33.521395 0-34.349084 14.070709z"  /><path d="M320.315556 464.482387c-25.244508 93.528832-76.147367 76.561212-161.399311 77.388901-10.34611 0-30.624485 12.829176-28.141418 25.244508 13.656865 73.250457 9.932265 260.721964 76.147367 299.623337 41.384439 22.761441 136.154804 2.483066 181.263842 2.069221 82.768878 0 165.537755 0 248.306633-2.069221 35.590617 0 82.768878 2.069222 108.841074-28.555263a157.674712 157.674712 0 0 0 18.209153-32.279862c20.692219-41.384439-31.866018-20.692219 8.690732-53.799771 22.761441-19.036842 74.078145-10.34611 100.564186-10.34611 9.932265 0 27.727574-10.759954 28.141419-21.933752 4.966133-95.184209 20.278375-220.992903-15.726087-310.383291a6.62151 6.62151 0 0 0-6.62151-4.966133c-62.904347-4.552288-128.705605 19.036842-191.609952 26.486041a1624.339223 1624.339223 0 0 1-323.626311 2.896911c-12.829176 0-41.384439 28.555263-21.933753 30.21064a1681.035904 1681.035904 0 0 0 273.137296 2.483066c45.936727-3.724599 206.922194-51.730549 243.754345-16.139931 14.898398 13.656865 12.415332 152.708579 11.173798 171.745421l-16.139931 89.804232h-41.384439c-20.692219 6.207666-53.79977-7.035355-73.250456 9.104577-10.759954 8.690732-14.484554 24.002975-24.002975 32.693707 0 0-13.656865 55.455148 0 28.555262l8.276888 21.933753a201.128373 201.128373 0 0 1-124.153317 33.521395 1109.516804 1109.516804 0 0 1-267.757319 2.069222c-148.98398-26.486041-141.534781-173.814643-165.537755-293.001826l-28.141418 25.244507h169.676199a32.279862 32.279862 0 0 0 28.141418-21.933752 387.358347 387.358347 0 0 1 19.864531-98.08112c4.552288-16.96762-31.038329 0-34.349084 14.070709z"  /><path d="M491.647133 555.114308c-21.106064-27.727574-60.421281 14.898398-58.765903 38.901373a61.248969 61.248969 0 0 0 73.250457 53.385926c29.382952-7.035355 64.14588-38.901372 57.52437-72.008924a47.592105 47.592105 0 0 0-72.836613-25.658352c-16.96762 9.518421-21.106064 36.004462 3.310755 22.347597s53.79977 38.073684 23.175286 46.350572a41.384439 41.384439 0 0 1-35.176773-14.070709 53.79977 53.79977 0 0 1-9.932265-14.898398 31.038329 31.038329 0 0 1-3.310755-9.104577q0-13.24302-9.518421 0c8.276888 11.173798 41.384439-14.070709 32.693706-25.658352zM735.815322 550.148176h-82.768878c-8.690732 0-33.107551 13.24302-28.141418 25.244507a75.319679 75.319679 0 0 0 82.768878 47.592105 30.624485 30.624485 0 0 0 24.416818-24.830663v-35.176773c0-12.829176-34.349084 6.207666-34.762928 20.278375v35.176773l24.416819-24.830664a60.835125 60.835125 0 0 1-62.490503-38.487528l-28.141418 25.244508h82.768877a33.107551 33.107551 0 0 0 24.416819-14.484554c3.310755-4.552288 7.035355-15.726087-2.89691-15.726086z"  /></svg>