<svg class="svg-icon" style="width: 1em; height: 1em;vertical-align: middle;fill: currentColor;overflow: hidden;" viewBox="0 0 1024 1024" version="1.1" xmlns="http://www.w3.org/2000/svg"><path d="M573.814804 12.327767a444.197282 444.197282 0 0 0-516.970874 294.673398 614.79767 614.79767 0 0 0 39.76699 462.887767C168.986843 918.617476 305.387619 983.83534 464.455581 1016.046602c262.064466 53.685437 437.436893-178.156117 497.882718-406.020971 35.790291-137.593786 61.241165-310.580194-14.713786-439.425243C859.341794 20.281165 679.992668 15.906796 524.503736 19.088155c-24.257864 0-75.954951 58.457476-42.15301 57.662136 200.823301-3.976699 406.020971 28.234563 441.811262 263.257476 32.608932 214.344078-72.375922 640.248544-360.288932 628.318447-163.84-6.760388-332.849709-100.212816-404.827961-247.35068C34.176746 464.478447 94.622571-37.380971 519.731697 67.603883c25.848544 6.362718 79.533981-49.311068 54.083107-55.276116z"  /><path d="M455.309173 221.104466q27.836893 189.290874 39.76699 380.172427c0 21.871845 39.76699 0 45.334369-3.976699 53.685437-42.55068 108.961553-82.71534 166.623689-119.300971 30.620583-19.883495 39.76699-71.978252-6.362718-42.550679-63.229515 39.76699-124.86835 85.101359-184.121165 132.026407l45.334369-3.976699q-10.737087-190.881553-39.76699-380.172427c-3.976699-27.836893-70.785243 12.725437-66.808544 39.766991z"  /></svg>