<svg class="svg-icon" style="width: 1em; height: 1em;vertical-align: middle;fill: currentColor;overflow: hidden;" viewBox="0 0 1024 1024" version="1.1" xmlns="http://www.w3.org/2000/svg"><path d="M255.156732 1002.59669l-2.140331-443.048523c0-2.497053-3.567218-4.280662-5.70755-4.280662-51.367945 2.853775-163.378602 20.333145-174.080256-64.923374-2.497053-20.689867 98.455227-145.899232 110.583769-164.092046 92.747678-137.337908 202.974726-362.786109 406.306174-255.412836 94.888009 50.297779 170.513038 157.671052 242.214127 235.793135 31.748244 35.672184 100.95228 84.543076 113.080823 127.706418 30.321356 107.016551-71.344368 71.344368-136.981186 67.063706-8.561324 0-26.754138 11.415099-24.257085 21.760032 21.760032 96.314896 41.379733 235.793135 1.783609 331.037865-82.759466 199.407507-149.109728 64.566653-155.887443-38.169236-7.134437-107.016551 27.824303-220.454096-115.934597-229.01542a126.279531 126.279531 0 0 0-109.156882 35.672183 142.688735 142.688735 0 0 0-29.964635 85.25652 503.691235 503.691235 0 0 0 3.210497 93.104399c0-9.988211-8.561324 226.161645-40.309568 167.302542-5.350828-9.63149-35.672184 10.344933-28.181025 22.116754 23.900363 44.59023 59.929269 35.672184 88.467016-2.853774 44.233508-58.502381 0-165.875655 8.918046-229.01542 16.409205-112.010657 149.109728-197.267176 190.846183-68.133871 21.760032 67.420427 0 199.764229-5.350828 263.260716 0 2.497053 0 5.350828 2.853775 6.420993 53.864998 18.192814 138.051351 53.508276 186.565521 8.204602s50.297779-224.021314 51.724667-281.45353c3.210497-144.829066-10.344933-158.741218 154.817277-148.396284 8.918046 0 26.397416-11.415099 24.257085-21.760032-28.181025-138.408073-158.027774-241.143962-252.202339-341.026077C687.503599 100.803884 593.329034-13.347104 473.470497 1.278491c-71.344368 11.058377-128.06314 71.344368-171.939926 121.998869C193.087132 250.983778 107.117169 404.73089 12.942604 544.209128c-1.783609 2.853775-6.064271 11.058377 0 12.841986 93.461122 26.397416 184.781912 4.994106 210.822606 114.864432 24.257085 102.379167 0 242.927572 0 348.160514 0 11.415099 29.964634-5.350828 29.964634-17.47937z"  /><path d="M551.235857 296.644173a84.543076 84.543076 0 0 0-126.27953-31.748244 133.413967 133.413967 0 0 0-45.303674 146.255954c12.128542 46.017117 48.157448 92.034234 100.95228 74.554864a142.688735 142.688735 0 0 0 83.116189-148.396285c0-12.128542-31.0348 5.350828-29.964635 17.47937 3.92394 41.379733-16.765926 126.992974-75.625029 107.016552a100.595558 100.595558 0 0 1-50.29778-74.911586c-7.134437-35.672184-6.420993-91.32079 31.748244-107.016552a69.204037 69.204037 0 0 1 83.47291 38.882681c4.994106 9.63149 35.672184-10.344933 28.181025-22.116754z"  /></svg>