<svg class="svg-icon" style="width: 1em; height: 1em;vertical-align: middle;fill: currentColor;overflow: hidden;" viewBox="0 0 1024 1024" version="1.1" xmlns="http://www.w3.org/2000/svg"><path d="M955.167403 697.978563c-50.813815-47.15522-100.814609-94.716951-149.595871-143.498214a81.302104 81.302104 0 0 1-22.76459 32.520842l36.992458 36.585947c100.001588 95.936483 51.626836 117.48154-54.87892 184.555776-65.448194 40.651052-193.499008 158.132592-268.296944 162.604208-58.537515 2.439063-51.626836-8.536721-84.147677-67.480746-25.610163-46.342199-49.594283-93.090909-71.545852-141.465661A2303.695117 2303.695117 0 0 1 213.285704 406.51052c0-5.691147-7.317189-5.691147-13.821358-3.252084a102.847162 102.847162 0 0 0-4.065105-9.349742c-5.691147-10.975784-40.651052 11.788805-32.114331 25.203652-34.146884-65.041683 110.570861-121.953156 150.408892-146.750298C367.353191 236.995633 419.386538 162.604208 481.582647 203.25526c51.626836 32.927352 114.635967 182.523224 158.539103 234.55657 21.951568 26.423184 45.529178 51.220326 69.106788 76.017467a121.953156 121.953156 0 0 1 17.886463-38.211989v-2.439063a1372.379516 1372.379516 0 0 1-239.028186-346.753473c-3.252084-7.317189-19.512505 2.439063-22.358078 4.471615A1643.928543 1643.928543 0 0 1 169.789078 325.208416a363.420405 363.420405 0 0 0-100.001588 58.131004c-40.651052 40.651052-63.009131 89.432314-23.171099 138.620088 55.691941 69.513299 125.20524 31.707821 150.815403-29.268758 49.594283 177.645097 121.953156 406.51052 240.247717 528.463676a9.349742 9.349742 0 0 0 8.943231 0c166.262803-40.651052 351.6316-208.133386 494.316793-299.598253 3.658595-2.439063 19.919015-16.260421 14.227868-23.57761z"  /><path d="M56.779154 403.664946a346.753474 346.753474 0 0 1 110.164351-7.317189c12.601826 0 40.651052-28.049226 21.545057-29.675268a371.550615 371.550615 0 0 0-117.48154 8.13021 33.740373 33.740373 0 0 0-22.764589 17.886463c-2.439063 7.317189 0 13.008337 8.536721 10.975784zM179.13882 400.819373c-30.8948 0-78.05002 10.569274-85.367209 47.561731a32.520842 32.520842 0 0 0 14.634379 32.927352 32.520842 32.520842 0 0 0 39.43152-6.910679c4.471616-3.658595 15.040889-13.821358 9.756253-20.325526s-17.886463 0-22.358079 4.471616c8.13021-6.910679 6.910679 0 0-7.7237a17.073442 17.073442 0 0 1-5.691147-10.569274c0-10.975784 21.545058-9.349742 29.675268-9.756252a32.927352 32.927352 0 0 0 23.98412-14.227868c3.252084-4.471616 6.910679-15.4474-2.845573-15.4474zM292.555255 455.291782l17.886463-17.479952c4.471616-4.471616 10.569274-13.414847 3.658595-18.292973s-19.919015 5.691147-23.984121 9.756252l-17.886463 17.886463c-4.471616 4.471616-10.569274 13.414847-3.658594 18.292973s19.919015-5.691147 23.98412-9.756252zM376.702933 386.998015h17.479952a32.520842 32.520842 0 0 0 23.984121-14.227868c3.252084-4.878126 6.910679-15.4474-2.845574-15.4474h-17.479952a32.520842 32.520842 0 0 0-23.984121 14.227868c-3.252084 4.878126-6.910679 15.4474 2.845574 15.4474zM446.622742 343.501389c12.601826 0 40.651052-29.675268 21.545058-29.675268s-40.651052 29.675268-21.545058 29.675268zM363.288086 681.311632l17.479952-8.943232c17.073442-8.943231 21.138547-34.146884-3.252084-21.951568l-17.479952 8.943232c-17.073442 8.943231-21.138547 34.146884 3.252084 21.951568zM411.662838 658.140532c12.601826 0 40.651052-29.675268 21.545057-29.675268s-40.651052 29.675268-21.545057 29.675268zM487.273794 603.668122a183.742755 183.742755 0 0 1 56.098452-64.228662c4.878126-3.252084 15.040889-13.821358 9.756253-20.325526s-17.886463 0-22.358079 4.471616A249.597459 249.597459 0 0 0 455.972484 609.76578c-4.065105 7.7237 0 11.788805 8.536721 10.975784a34.146884 34.146884 0 0 0 22.764589-17.886463zM355.970896 538.219929a175.206034 175.206034 0 0 1 67.887257-58.944026c17.073442-8.536721 21.138547-34.146884-3.252084-21.951568a243.906312 243.906312 0 0 0-91.464867 81.302104c-15.040889 21.951568 18.292973 13.008337 26.829694 0zM432.394874 754.077015l34.959905-8.943232a33.740373 33.740373 0 0 0 22.764589-17.886463c2.439063-6.910679 0-13.414847-8.536721-10.975784l-34.959905 8.943232a33.740373 33.740373 0 0 0-22.764589 17.886463c-2.439063 6.910679 0 13.414847 8.536721 10.975784zM530.77042 704.482731l54.065899-68.700278c4.471616-5.691147 5.691147-13.821358-2.845573-15.447399s-19.512505 8.13021-23.984121 14.227868l-54.065899 68.700278c-4.471616 5.691147-5.691147 13.821358 2.845573 15.447399s19.512505-8.13021 23.984121-14.227868zM673.862123 605.700675c12.601826 0 40.651052-29.675268 21.545058-29.675268s-40.651052 29.675268-21.545058 29.675268zM481.582647 894.323144c12.601826 0 40.651052-29.675268 21.545058-29.675268s-40.651052 29.675268-21.545058 29.675268zM586.462361 850.420008c12.601826 0 40.651052-29.675268 21.545058-29.675268s-40.651052 29.675268-21.545058 29.675268zM647.438939 815.460103c12.601826 0 40.651052-29.675268 21.545058-29.675268s-40.651052 29.675268-21.545058 29.675268z"  /><path d="M629.145966 741.068678a1598.805875 1598.805875 0 0 1 142.685192-354.070663c50.000794-92.684399 143.091703-194.312029 173.986503-293.907106s-5.284637-20.325526-26.016673 13.008337a559.764986 559.764986 0 0 0-46.74871 147.969829c-34.959905 139.026598-19.919015 365.859468-208.133386 406.51052-12.195316 2.439063-35.772926 33.333863-13.821358 28.862247 84.147678-17.479952 147.969829-44.309647 184.555776-125.20524 81.302104-176.832076 64.228662-377.241763 160.571655-553.667328 10.975784-19.919015-25.203652-3.658595-31.30131 6.504168-141.05915 236.995633-298.785232 466.267566-369.924573 737.410083-4.471616 16.666931 30.488289 0 33.740373-13.821357z"  /></svg>