<svg class="svg-icon" style="width: 1.1796875em; height: 1em;vertical-align: middle;fill: currentColor;overflow: hidden;" viewBox="0 0 1208 1024" version="1.1" xmlns="http://www.w3.org/2000/svg"><path d="M765.44515 188.920641c-143.239085-6.306123-318.459223-38.287177-393.231827 113.510218s-69.367355 335.125405 129.275526 358.097712a370.259521 370.259521 0 0 0 342.332404-175.670576c32.881928-52.250735 68.916918-135.131212 38.287177-195.940257a78.376103 78.376103 0 0 0-114.411093-31.530616c-18.91837 9.909622-23.422743 38.287177 3.603499 24.323618 108.555407-55.854234 77.475228 135.131212 62.160357 170.265327a309.000038 309.000038 0 0 1-130.176401 140.53646c-86.483976 48.196799-213.507315 58.556858-289.63123-13.963558S355.096703 374.050401 407.347438 295.223861c73.421292-111.708468 222.065625-78.376103 334.674969-73.421292 13.963559 0 45.043737-31.981053 23.87318-32.881928zM395.636067 689.807a1865.711599 1865.711599 0 0 1-5.855686 285.577294c0 20.269682 36.03499 0 37.386302-15.31487a1910.755336 1910.755336 0 0 0 6.306123-292.333855c0-14.864433-38.737614 6.756561-37.836739 22.071431zM764.093838 608.277835a1252.666334 1252.666334 0 0 1 114.411093 331.07147c3.153062 16.215745 40.539364-7.206998 37.836739-22.071432a1276.539515 1276.539515 0 0 0-117.113717-336.476717c-6.306123-12.161809-45.043737 13.062684-35.584553 27.927117z"  /><path d="M369.060262 214.145134C313.206028 40.276308 110.50921 76.761735 37.538355 215.946884c-37.836739 72.520417-52.701173 197.742007 20.720119 255.39799 19.368807 15.314871 80.177852 21.170557 86.934413 45.043737C155.10251 547.46879 22.223485 720.887179 1.953803 751.066483c-4.954811 8.107873 0 13.963559 9.459185 12.161809a1297.259634 1297.259634 0 0 1 309.000037-16.666183c13.963559 0 45.043737-31.530616 23.873181-32.881928a1309.421443 1309.421443 0 0 0-180.174949 0c-9.909622 0-90.087475 12.612246-93.240536 10.360059-35.134115-33.782803 96.844035-189.634134 112.609343-229.72306 0-2.702624 2.702624-7.206998 0-10.36006-45.043737-52.250735-110.357156-27.026242-135.131212-112.609343C1.953803 203.334637 263.207479 25.862312 331.223522 236.216565c5.405248 16.215745 42.341113-8.107873 37.83674-22.071431zM851.028251 241.621814l3.153061-63.962107 202.696818-135.131212a138.284273 138.284273 0 0 1 80.177853 63.51167c55.403797 79.727415 45.043737 212.156003-72.520417 245.03793-9.459185 2.702624-33.332366 17.11662-25.674931 29.728867 22.521869 36.485427 120.266779 151.346957 90.087475 198.192444-10.810497 17.11662-90.087475 24.323618-113.960655 27.927117a697.727491 697.727491 0 0 1-158.103518 4.053937c-13.963559 0-45.043737 31.530616-23.873181 32.881928 103.150158 6.756561 273.865923 6.756561 353.593338-71.619542 3.153062-3.153062 9.459185-10.810497 7.657435-15.765308a1182.398104 1182.398104 0 0 0-121.167653-203.147256l-25.674931 29.728867C1199.21634 340.718036 1277.142006 135.318594 1128.047235 34.87106c-163.058329-113.059781-320.71141 71.619542-315.306161 228.371748 0 14.864433 38.287177-6.756561 37.836739-22.071432zM275.819726 1019.07672A2528.304974 2528.304974 0 0 0 839.767316 991.149602c13.963559-2.252187 40.088926-36.03499 15.314871-31.981053a2490.017798 2490.017798 0 0 1-555.389281 28.827992c-13.963559 0-45.043737 31.530616-23.87318 32.881928z"  /></svg>