<?xml version="1.0" standalone="no"?>
<!DOCTYPE svg PUBLIC "-//W3C//DTD SVG 20010904//EN"
 "http://www.w3.org/TR/2001/REC-SVG-20010904/DTD/svg10.dtd">
<svg version="1.0" xmlns="http://www.w3.org/2000/svg"
 width="1239.000000pt" height="1333.000000pt" viewBox="0 0 1239.000000 1333.000000"
 preserveAspectRatio="xMidYMid meet">
<metadata>
Created by potrace 1.16, written by Peter Selinger 2001-2019
</metadata>
<g transform="translate(0.000000,1333.000000) scale(0.100000,-0.100000)"
fill="#000000" stroke="none">
<path d="M5905 13314 c-495 -67 -951 -303 -1315 -680 -236 -245 -403 -504
-713 -1109 -1282 -2499 -2142 -4247 -3007 -6110 -266 -573 -542 -1188 -617
-1375 -144 -356 -212 -628 -244 -964 -14 -157 -7 -498 15 -644 48 -318 142
-611 290 -898 418 -811 1197 -1368 2111 -1510 185 -29 626 -27 825 4 586 91
1075 291 1625 663 340 230 588 442 993 846 l314 313 261 -263 c405 -408 695
-655 1067 -909 577 -394 1147 -609 1773 -669 159 -15 522 -7 662 16 278 43
467 100 745 222 582 256 1068 718 1365 1298 131 255 210 497 274 833 54 281
65 398 58 616 -11 359 -78 642 -247 1056 -85 206 -423 964 -440 985 -4 6 -78
161 -163 345 -812 1756 -1811 3798 -2666 5450 -167 322 -344 666 -393 765
-157 313 -308 571 -436 744 -79 108 -258 315 -338 391 -344 328 -760 526
-1237 590 -108 14 -441 11 -562 -6z m600 -898 c417 -94 727 -334 998 -773 96
-156 403 -747 900 -1733 666 -1321 1380 -2783 1999 -4095 266 -564 519 -1106
538 -1155 10 -25 80 -180 155 -345 182 -397 278 -618 309 -708 91 -263 145
-617 131 -847 -34 -541 -214 -964 -564 -1324 -508 -522 -1212 -717 -1956 -540
-652 156 -1326 609 -2067 1391 -98 103 -178 191 -178 195 0 5 45 65 100 134
485 607 910 1275 1160 1824 294 643 430 1196 430 1751 0 223 -13 365 -47 519
-91 412 -282 761 -582 1061 -355 355 -792 564 -1324 634 -155 20 -469 20 -624
0 -828 -109 -1509 -620 -1801 -1352 -58 -144 -112 -345 -137 -503 -37 -239
-30 -616 16 -874 165 -921 662 -1912 1504 -3000 72 -92 136 -176 144 -187 12
-17 9 -24 -25 -66 -81 -101 -606 -615 -749 -734 -872 -723 -1620 -980 -2401
-824 -792 159 -1403 789 -1550 1600 -28 157 -26 517 4 688 63 349 141 543 695
1727 1137 2431 1955 4089 3129 6345 230 441 345 621 507 789 202 209 482 359
766 411 105 19 420 14 520 -9z m-1 -4845 c283 -58 511 -176 697 -361 196 -196
319 -433 371 -720 28 -154 31 -461 5 -630 -108 -705 -520 -1537 -1230 -2486
l-151 -202 -58 73 c-303 385 -626 872 -839 1265 -253 468 -423 938 -484 1340
-48 323 -20 666 76 908 167 421 566 737 1029 816 52 8 106 18 120 20 63 12
369 -4 464 -23z"/>
</g>
</svg>
