<?xml version="1.0" standalone="no"?>
<!DOCTYPE svg PUBLIC "-//W3C//DTD SVG 20010904//EN"
 "http://www.w3.org/TR/2001/REC-SVG-20010904/DTD/svg10.dtd">
<svg version="1.0" xmlns="http://www.w3.org/2000/svg"
 width="128.000000pt" height="98.000000pt" viewBox="0 0 128.000000 98.000000"
 preserveAspectRatio="xMidYMid meet">
<metadata>
Created by potrace 1.16, written by Peter Selinger 2001-2019
</metadata>
<g transform="translate(0.000000,98.000000) scale(0.100000,-0.100000)"
fill="#000000" stroke="none">
<path d="M602 964 c-15 -10 -22 -25 -22 -47 0 -30 -4 -34 -49 -50 -62 -22
-143 -94 -172 -154 -16 -33 -25 -75 -30 -147 -11 -138 -24 -178 -75 -233 -38
-40 -44 -52 -44 -90 0 -33 6 -50 25 -68 l24 -25 376 0 377 0 29 29 c43 44 40
89 -10 144 -60 66 -72 97 -81 221 -9 125 -24 169 -75 232 -32 39 -138 104
-170 104 -7 0 -10 11 -7 29 3 20 -2 35 -17 50 -25 25 -49 27 -79 5z"/>
<path d="M77 852 c-8 -9 -28 -42 -44 -72 -24 -48 -28 -66 -28 -145 0 -78 4
-97 27 -146 16 -31 37 -64 48 -74 19 -18 22 -18 38 -2 15 16 14 21 -18 80 -32
56 -35 69 -35 142 0 80 11 112 59 180 13 18 12 22 -9 37 -21 16 -24 16 -38 0z"/>
<path d="M1165 849 c-16 -16 -17 -23 -7 -37 46 -66 57 -98 57 -177 0 -73 -3
-86 -34 -142 -29 -52 -33 -64 -22 -77 21 -25 34 -19 64 27 42 64 61 139 54
218 -6 71 -42 162 -75 193 -18 15 -20 15 -37 -5z"/>
<path d="M178 763 c-53 -58 -50 -216 4 -260 12 -11 18 -9 32 6 16 18 16 21 1
51 -22 43 -22 107 -1 149 17 32 17 34 -1 53 -18 18 -20 18 -35 1z"/>
<path d="M1066 761 c-17 -18 -17 -21 0 -53 9 -18 17 -51 17 -73 0 -22 -8 -55
-17 -73 -17 -32 -17 -35 0 -53 24 -26 27 -25 54 23 32 57 33 136 1 201 -12 26
-26 47 -30 47 -4 0 -16 -9 -25 -19z"/>
<path d="M522 80 c28 -83 153 -100 212 -29 47 55 40 59 -98 59 l-125 0 11 -30z"/>
</g>
</svg>
