<?xml version="1.0" encoding="iso-8859-1"?>
<!-- Generator: Adobe Illustrator 19.0.0, SVG Export Plug-In . SVG Version: 6.00 Build 0)  -->
<svg version="1.1" id="Layer_1" xmlns="http://www.w3.org/2000/svg" xmlns:xlink="http://www.w3.org/1999/xlink" x="0px" y="0px"
	 viewBox="0 0 491.687 491.687" style="enable-background:new 0 0 491.687 491.687;" xml:space="preserve">
<g>
	<g>
		<path d="M471.123,450.727h-20.48V223.952c8.335-2.724,15.176-9.011,18.473-17.592c4.485-11.653,1.372-24.596-7.905-32.952
			L287.356,17.145c-23.306-22.774-59.883-22.753-82.596-0.573L30.517,173.203c-9.318,8.376-12.431,21.361-7.946,33.055
			c3.297,8.602,10.138,14.909,18.473,17.633c-0.021,47.739-0.041,173.363-0.021,226.836H20.564c-11.305,0-20.48,9.175-20.48,20.48
			c0,11.305,9.175,20.48,20.48,20.48h40.96h102.4h40.96h81.92h40.96h102.4h40.96c11.305,0,20.48-9.175,20.48-20.48
			C491.604,459.902,482.428,450.727,471.123,450.727z M327.763,450.727h-40.96v-122.88h-81.92v40.96h20.48
			c11.305,0,20.48,9.175,20.48,20.48c0,11.305-9.175,20.48-20.48,20.48h-20.48v40.96h-40.96v-143.36
			c0-11.305,9.175-20.48,20.48-20.48h122.88c11.305,0,20.48,9.175,20.48,20.48V450.727z M79.239,184.487L232.757,46.452
			c7.291-7.107,18.719-7.107,26.624,0.594l152.883,137.441H79.239z"/>
	</g>
</g>
<g>
</g>
<g>
</g>
<g>
</g>
<g>
</g>
<g>
</g>
<g>
</g>
<g>
</g>
<g>
</g>
<g>
</g>
<g>
</g>
<g>
</g>
<g>
</g>
<g>
</g>
<g>
</g>
<g>
</g>
</svg>
