<?xml version="1.0" standalone="no"?>
<!DOCTYPE svg PUBLIC "-//W3C//DTD SVG 20010904//EN"
 "http://www.w3.org/TR/2001/REC-SVG-20010904/DTD/svg10.dtd">
<svg version="1.0" xmlns="http://www.w3.org/2000/svg"
 width="152.000000pt" height="152.000000pt" viewBox="0 0 152.000000 152.000000"
 preserveAspectRatio="xMidYMid meet">

<g transform="translate(0.000000,152.000000) scale(0.100000,-0.100000)"
fill="#000000" stroke="none">
<path d="M870 1439 c-77 -15 -187 -76 -249 -138 -63 -64 -100 -130 -116 -211
l-12 -55 -50 -6 c-78 -10 -177 -47 -243 -91 -205 -136 -257 -374 -126 -576 54
-84 55 -143 6 -212 -12 -17 -19 -37 -16 -45 12 -32 130 -6 208 45 l46 30 63
-15 c185 -43 379 7 511 133 65 62 114 151 124 225 l6 44 64 7 c35 4 76 11 91
17 21 8 30 6 47 -10 38 -34 108 -63 168 -68 71 -7 81 7 44 62 -47 69 -44 133
9 205 58 79 86 210 65 301 -39 169 -184 305 -375 354 -64 16 -192 18 -265 4z
m294 -68 c81 -29 135 -62 188 -116 71 -71 101 -135 106 -226 5 -94 -13 -158
-68 -231 -47 -62 -57 -113 -37 -180 8 -27 11 -48 6 -48 -17 0 -83 38 -113 64
-16 14 -30 26 -31 26 -2 0 -21 -6 -43 -14 -22 -8 -64 -17 -94 -21 l-55 -7 -6
41 c-7 59 -57 158 -106 214 l-43 47 190 0 c105 0 197 3 206 6 9 3 16 14 16 24
0 10 -7 21 -16 24 -9 3 -122 6 -253 6 -216 0 -242 2 -296 21 -33 12 -82 24
-110 28 -49 6 -50 7 -48 40 2 50 58 153 106 198 102 94 218 136 357 129 49 -3
110 -14 144 -25z m-532 -402 c232 -50 383 -269 324 -469 -67 -226 -328 -346
-598 -273 l-56 15 -39 -30 c-21 -17 -55 -38 -77 -47 -37 -16 -38 -16 -31 2 5
10 10 50 13 88 4 67 2 72 -28 110 -95 118 -111 262 -43 386 52 97 175 185 296
215 67 16 171 17 239 3z"/>
<path d="M792 1151 c-8 -5 -12 -17 -10 -27 3 -18 17 -19 209 -22 184 -2 207
-1 213 14 15 39 -8 44 -208 44 -105 0 -197 -4 -204 -9z"/>
<path d="M307 674 c-13 -13 -7 -42 9 -48 24 -9 377 -7 392 3 8 5 12 17 10 27
-3 18 -17 19 -204 22 -110 1 -203 -1 -207 -4z"/>
<path d="M244 485 c-3 -8 -3 -19 1 -25 10 -16 531 -14 537 3 14 35 2 37 -268
37 -222 0 -266 -2 -270 -15z"/>
</g>
</svg>
