<?xml version="1.0" encoding="UTF-8" standalone="no"?>
<svg
   xmlns:dc="http://purl.org/dc/elements/1.1/"
   xmlns:cc="http://creativecommons.org/ns#"
   xmlns:rdf="http://www.w3.org/1999/02/22-rdf-syntax-ns#"
   xmlns:svg="http://www.w3.org/2000/svg"
   xmlns="http://www.w3.org/2000/svg"
   xmlns:sodipodi="http://sodipodi.sourceforge.net/DTD/sodipodi-0.dtd"
   xmlns:inkscape="http://www.inkscape.org/namespaces/inkscape"
   version="1.1"
   id="Layer_1"
   x="0px"
   y="0px"
   viewBox="0 0 122.88 122.87"
   style="enable-background:new 0 0 122.88 122.87"
   xml:space="preserve"
   sodipodi:docname="correct.svg"
   inkscape:version="0.92.5 (2060ec1f9f, 2020-04-08)"><metadata
     id="metadata15"><rdf:RDF><cc:Work
         rdf:about=""><dc:format>image/svg+xml</dc:format><dc:type
           rdf:resource="http://purl.org/dc/dcmitype/StillImage" /></cc:Work></rdf:RDF></metadata><defs
     id="defs13" /><sodipodi:namedview
     pagecolor="#ffffff"
     bordercolor="#666666"
     borderopacity="1"
     objecttolerance="10"
     gridtolerance="10"
     guidetolerance="10"
     inkscape:pageopacity="0"
     inkscape:pageshadow="2"
     inkscape:window-width="1366"
     inkscape:window-height="716"
     id="namedview11"
     showgrid="false"
     inkscape:zoom="2.7163213"
     inkscape:cx="56.629568"
     inkscape:cy="59.92206"
     inkscape:window-x="0"
     inkscape:window-y="0"
     inkscape:window-maximized="1"
     inkscape:current-layer="Layer_1" /><style
     type="text/css"
     id="style2"><![CDATA[
	.st0{fill:#39B54A;}
	.st1{fill:#3C3C3C;}
]]></style><path
     inkscape:connector-curvature="0"
     style="fill:#00ff00;stroke:#217821;stroke-width:0.5;stroke-miterlimit:4;stroke-dasharray:none"
     id="path4"
     d="m 32.82,51.34 14.99,-0.2 1.12,0.29 c 3.03,1.74 5.88,3.74 8.54,5.99 1.92,1.63 3.76,3.4 5.5,5.32 5.38,-8.65 11.11,-16.6 17.16,-23.9 6.63,-8 13.66,-15.27 21.05,-21.9 l 1.46,-0.56 H 119 l -3.3,3.66 C 105.57,31.3 96.37,42.94 88.06,54.94 79.74,66.97 72.31,79.37 65.7,92.13 L 63.64,96.1 61.75,92.06 C 58.26,84.58 54.09,77.71 49.11,71.57 44.13,65.43 38.34,59.98 31.59,55.35 l 1.23,-4.01 z"
     class="st0" /><path
     inkscape:connector-curvature="0"
     style="fill:#ff5555;stroke:#800000;stroke-width:0.6;stroke-miterlimit:4;stroke-dasharray:none"
     id="path6"
     d="m 61.44,0 c 9.53,0 18.55,2.17 26.61,6.04 -3.3,2.61 -6.36,5.11 -9.21,7.53 -5.43,-1.97 -11.28,-3.05 -17.39,-3.05 -14.06,0 -26.79,5.7 -36,14.92 -9.21,9.22 -14.92,21.94 -14.92,36 0,14.06 5.7,26.78 14.92,36 9.22,9.22 21.94,14.92 36,14.92 14.06,0 26.79,-5.7 36,-14.92 9.22,-9.22 14.91,-21.94 14.91,-36 0,-3.34 -0.32,-6.62 -0.94,-9.78 2.64,-3.44 5.35,-6.88 8.11,-10.28 2.17,6.28 3.35,13.04 3.35,20.06 0,16.96 -6.88,32.33 -17.99,43.44 -11.12,11.12 -26.48,18 -43.44,18 -16.96,0 -32.32,-6.88 -43.44,-18 C 6.88,93.76 0,78.4 0,61.44 0,44.47 6.88,29.11 17.99,18 29.11,6.88 44.47,0 61.44,0 Z"
     class="st1" /></svg>