<svg id="svg" xmlns="http://www.w3.org/2000/svg" xmlns:xlink="http://www.w3.org/1999/xlink" width="400" height="323.1746031746032" viewBox="0, 0, 400,323.1746031746032"><g id="svgg"><path id="path0" d="M286.484 1.348 C 283.720 2.717,281.043 4.750,278.229 7.619 C 277.373 8.492,276.400 9.128,276.067 9.032 C 275.734 8.936,275.621 9.117,275.817 9.433 C 276.013 9.750,275.558 10.792,274.805 11.749 C 273.201 13.788,270.476 20.975,270.476 23.166 C 270.476 24.003,270.190 24.864,269.841 25.079 C 269.063 25.560,268.987 32.381,269.760 32.381 C 270.065 32.381,270.496 33.521,270.719 34.914 C 271.283 38.441,273.547 44.285,274.853 45.583 C 275.452 46.179,276.869 47.868,278.002 49.336 C 279.134 50.804,281.689 52.928,283.681 54.056 C 285.672 55.184,287.454 56.327,287.639 56.597 C 289.863 59.825,308.982 59.553,313.016 56.236 C 313.540 55.805,315.292 54.698,316.911 53.775 C 336.181 42.782,334.361 11.766,313.835 1.356 C 309.816 -0.683,290.598 -0.688,286.484 1.348 M7.595 58.575 C 5.085 60.075,3.567 61.593,2.068 64.103 L 0.000 67.563 -0.000 189.841 L -0.000 312.120 2.068 315.580 C 3.567 318.089,5.085 319.607,7.595 321.107 L 11.055 323.175 30.003 323.175 C 55.648 323.175,53.968 324.403,53.968 305.653 C 53.968 288.416,53.437 287.619,41.936 287.619 L 35.556 287.619 35.556 189.841 L 35.556 92.063 86.349 92.063 L 137.143 92.063 137.143 112.351 C 137.143 139.708,135.794 137.778,154.921 137.778 C 174.530 137.778,172.698 141.659,172.698 100.101 L 172.698 67.563 170.631 64.103 C 169.131 61.593,167.613 60.075,165.103 58.575 L 161.643 56.508 86.349 56.508 L 11.055 56.508 7.595 58.575 M308.571 68.929 C 297.018 71.425,285.989 81.061,282.212 91.960 C 281.284 94.636,280.264 97.322,279.945 97.928 C 279.199 99.345,279.185 111.935,279.929 112.730 C 280.400 113.234,281.418 119.518,284.706 142.222 C 284.883 143.444,286.040 150.730,287.278 158.413 C 288.516 166.095,290.394 177.810,291.452 184.444 C 292.510 191.079,293.539 197.329,293.740 198.333 C 293.986 199.569,293.879 200.020,293.408 199.729 C 293.001 199.477,292.845 199.642,293.031 200.127 C 293.206 200.583,291.417 203.546,289.055 206.713 C 286.694 209.880,283.777 213.879,282.572 215.600 C 281.368 217.322,280.210 218.873,279.999 219.048 C 279.788 219.222,278.963 220.438,278.166 221.750 C 277.362 223.074,276.415 223.948,276.038 223.715 C 275.622 223.458,275.546 223.598,275.841 224.076 C 276.122 224.529,275.785 225.434,275.037 226.237 C 273.712 227.659,271.045 231.352,266.930 237.457 C 265.636 239.377,264.242 241.234,263.832 241.584 C 263.422 241.935,262.564 243.079,261.927 244.127 C 261.290 245.175,258.852 248.603,256.509 251.746 C 254.166 254.889,249.481 261.317,246.096 266.032 C 242.711 270.746,239.504 275.132,238.969 275.779 C 238.434 276.426,237.009 278.426,235.802 280.224 C 234.595 282.021,232.317 285.206,230.739 287.302 C 222.903 297.709,221.012 304.189,223.586 311.810 C 226.300 319.845,229.916 321.905,241.313 321.905 L 250.633 321.905 253.340 319.431 C 254.828 318.070,256.793 315.814,257.706 314.418 C 259.161 312.190,263.041 306.924,268.562 299.683 C 269.493 298.460,271.303 295.889,272.583 293.968 C 273.864 292.048,276.207 288.762,277.790 286.667 C 279.374 284.571,281.712 281.286,282.987 279.365 C 284.262 277.444,285.648 275.587,286.067 275.238 C 286.486 274.889,287.862 273.032,289.124 271.111 C 290.386 269.190,292.402 266.333,293.605 264.762 C 294.808 263.190,296.595 260.762,297.575 259.365 C 298.556 257.968,300.932 254.709,302.854 252.122 C 309.104 243.712,311.042 240.999,312.837 238.150 C 313.809 236.608,315.254 234.608,316.049 233.705 C 316.844 232.802,318.480 230.635,319.684 228.889 C 320.888 227.143,322.955 224.143,324.279 222.222 C 325.602 220.302,327.165 218.159,327.752 217.460 C 329.353 215.556,336.992 205.058,338.494 202.699 C 339.216 201.565,340.109 200.823,340.478 201.051 C 340.856 201.285,340.963 201.165,340.723 200.777 C 340.488 200.398,342.185 197.468,344.493 194.265 C 350.586 185.812,350.755 185.298,350.755 175.238 C 350.754 167.147,348.913 150.574,347.934 149.841 C 347.701 149.667,346.740 143.952,345.799 137.143 C 344.858 130.333,343.863 123.133,343.587 121.141 L 343.085 117.520 344.717 118.797 C 345.615 119.500,347.277 120.657,348.412 121.369 C 349.546 122.081,350.288 122.966,350.060 123.335 C 349.828 123.710,349.945 123.820,350.327 123.584 C 350.702 123.353,351.389 123.541,351.854 124.003 C 352.318 124.465,354.270 125.882,356.190 127.151 C 358.111 128.420,360.139 129.831,360.697 130.285 C 361.708 131.108,363.753 142.228,366.979 164.444 C 367.714 169.508,368.572 174.222,368.884 174.921 C 369.197 175.619,369.646 177.762,369.881 179.683 C 371.884 196.003,394.340 199.036,399.411 183.671 C 400.725 179.689,397.133 145.386,394.904 140.635 C 394.577 139.937,393.736 134.753,393.037 129.115 C 391.718 118.480,391.150 116.139,389.485 114.473 C 388.942 113.931,388.673 113.033,388.886 112.477 C 389.099 111.922,389.080 111.660,388.844 111.897 C 388.489 112.252,384.615 109.817,383.492 108.533 C 383.317 108.333,381.746 107.206,380.000 106.028 C 378.254 104.850,374.968 102.435,372.698 100.662 C 370.429 98.888,367.297 96.614,365.740 95.606 C 364.183 94.599,360.610 92.033,357.799 89.903 C 354.988 87.774,351.641 85.327,350.361 84.465 C 349.080 83.603,348.171 82.675,348.339 82.402 C 348.508 82.128,348.363 81.905,348.016 81.905 C 346.669 81.905,341.000 77.895,341.387 77.216 C 341.609 76.827,341.584 76.693,341.331 76.919 C 341.078 77.145,338.965 76.217,336.636 74.856 C 334.307 73.495,332.039 72.381,331.597 72.381 C 331.155 72.381,330.794 72.153,330.794 71.874 C 330.794 69.311,315.925 67.340,308.571 68.929 M266.791 130.970 C 264.900 133.958,261.696 138.511,258.426 142.857 C 257.769 143.730,255.446 146.873,253.263 149.841 C 251.080 152.810,249.125 155.381,248.918 155.556 C 248.711 155.730,248.011 156.730,247.362 157.778 C 246.210 159.637,244.200 162.431,238.911 169.524 C 237.479 171.444,235.673 174.444,234.897 176.190 C 234.121 177.937,233.237 179.861,232.933 180.468 C 232.233 181.865,232.220 184.325,232.909 185.111 C 233.199 185.443,233.778 186.917,234.196 188.386 C 234.614 189.856,236.004 192.141,237.285 193.465 C 238.566 194.790,239.551 196.109,239.474 196.396 C 239.397 196.684,239.585 196.765,239.891 196.575 C 240.583 196.148,244.444 197.555,244.444 198.234 C 244.444 198.507,246.302 198.730,248.571 198.730 C 250.841 198.730,252.698 198.502,252.698 198.223 C 252.698 197.944,253.640 197.375,254.790 196.959 C 255.940 196.543,258.011 195.143,259.393 193.848 C 260.774 192.553,262.119 191.550,262.381 191.620 C 262.643 191.689,262.823 191.532,262.782 191.270 C 262.592 190.065,262.943 189.119,263.968 188.074 C 264.935 187.089,266.706 184.614,271.282 177.851 C 271.900 176.938,272.707 176.269,273.075 176.365 C 273.444 176.461,273.579 176.271,273.376 175.943 C 273.173 175.614,273.681 174.536,274.505 173.546 C 277.198 170.308,277.309 169.646,276.398 162.222 C 275.927 158.381,275.280 154.776,274.961 154.211 C 274.641 153.646,273.573 147.433,272.587 140.404 C 270.557 125.938,270.271 125.472,266.791 130.970 M178.521 171.849 C 178.071 172.331,177.433 172.560,177.105 172.357 C 176.777 172.155,176.508 172.322,176.508 172.729 C 176.508 173.136,176.079 173.305,175.556 173.104 C 175.032 172.903,174.603 172.962,174.603 173.235 C 174.603 173.785,170.500 175.535,169.794 175.287 C 169.549 175.200,169.174 175.383,168.960 175.693 C 168.746 176.003,167.571 176.715,166.349 177.274 C 161.271 179.599,159.021 180.508,158.571 180.416 C 158.310 180.362,158.095 180.580,158.095 180.902 C 158.095 181.223,157.238 181.675,156.190 181.905 C 155.143 182.135,154.286 182.603,154.286 182.945 C 154.286 183.287,154.000 183.390,153.651 183.175 C 153.302 182.959,153.016 183.022,153.016 183.315 C 153.016 183.773,152.063 184.253,148.889 185.395 C 148.540 185.521,147.876 186.001,147.415 186.463 C 146.954 186.924,146.192 187.302,145.722 187.302 C 145.252 187.302,144.772 187.516,144.656 187.778 C 144.472 188.192,138.641 191.172,137.778 191.293 C 137.603 191.318,137.080 191.718,136.615 192.183 C 136.151 192.647,135.464 192.838,135.089 192.606 C 134.685 192.356,134.591 192.483,134.860 192.918 C 135.265 193.572,134.506 193.936,133.175 193.726 C 132.913 193.685,132.698 193.897,132.698 194.197 C 132.698 194.498,131.352 195.427,129.707 196.261 C 128.062 197.095,126.161 198.268,125.484 198.867 C 124.806 199.466,124.010 199.806,123.713 199.623 C 123.417 199.440,123.175 199.640,123.175 200.068 C 123.175 200.496,123.008 200.680,122.804 200.476 C 122.601 200.272,121.886 200.653,121.217 201.323 C 120.548 201.992,119.571 202.540,119.048 202.540 C 118.524 202.540,118.095 202.818,118.095 203.158 C 118.095 203.499,117.238 204.220,116.190 204.762 C 115.143 205.304,114.286 205.533,114.286 205.272 C 114.286 205.011,113.838 205.437,113.290 206.219 C 112.742 207.001,112.028 207.476,111.703 207.275 C 111.377 207.074,111.111 207.221,111.111 207.602 C 111.111 207.982,110.611 208.483,110.000 208.715 C 109.389 208.946,108.509 209.511,108.044 209.970 C 107.579 210.430,106.937 210.643,106.615 210.445 C 106.294 210.246,106.032 210.376,106.032 210.733 C 106.032 211.089,104.317 212.545,102.222 213.968 C 100.127 215.391,98.413 216.370,98.413 216.144 C 98.413 215.917,97.851 216.407,97.164 217.231 C 96.477 218.056,95.906 218.516,95.894 218.254 C 95.883 217.992,95.331 218.278,94.668 218.889 C 92.809 220.602,88.832 223.743,87.691 224.397 C 87.128 224.721,84.778 226.507,82.469 228.366 C 80.161 230.225,77.947 231.746,77.549 231.746 C 77.151 231.746,76.822 231.960,76.817 232.222 C 76.813 232.484,75.699 233.894,74.341 235.356 C 71.921 237.961,71.873 238.108,71.873 242.857 C 71.873 247.606,71.921 247.753,74.341 250.359 C 75.699 251.820,76.813 253.230,76.817 253.492 C 76.822 253.754,77.142 253.968,77.529 253.968 C 77.916 253.968,80.080 255.438,82.338 257.235 C 84.595 259.031,87.493 261.208,88.777 262.072 C 91.062 263.609,91.532 263.988,94.444 266.637 C 95.230 267.352,95.883 267.722,95.894 267.460 C 95.906 267.198,96.416 267.556,97.027 268.254 C 97.639 268.952,98.509 269.603,98.960 269.699 C 99.412 269.795,101.259 270.953,103.065 272.272 C 104.871 273.591,107.421 275.322,108.730 276.117 C 110.040 276.913,111.111 277.826,111.111 278.147 C 111.111 278.468,111.325 278.696,111.587 278.655 C 112.735 278.474,113.827 278.766,113.442 279.151 C 113.211 279.382,114.163 280.082,115.558 280.707 C 116.954 281.332,118.095 282.142,118.095 282.509 C 118.095 282.875,118.524 283.175,119.048 283.175 C 119.571 283.175,120.548 283.722,121.217 284.392 C 121.886 285.061,122.601 285.442,122.804 285.238 C 123.008 285.034,123.175 285.218,123.175 285.646 C 123.175 286.074,123.417 286.274,123.713 286.091 C 124.010 285.908,124.806 286.248,125.484 286.847 C 126.161 287.446,128.062 288.619,129.707 289.453 C 131.352 290.288,132.698 291.216,132.698 291.517 C 132.698 291.817,132.913 292.030,133.175 291.988 C 134.506 291.778,135.265 292.142,134.860 292.797 C 134.591 293.231,134.685 293.358,135.089 293.108 C 135.464 292.876,136.212 293.128,136.752 293.668 C 137.291 294.207,137.814 294.621,137.914 294.588 C 138.489 294.398,145.397 297.971,145.397 298.459 C 145.397 298.783,145.968 299.048,146.667 299.048 C 147.365 299.048,147.937 299.333,147.937 299.683 C 147.937 300.032,148.151 300.268,148.413 300.207 C 149.059 300.056,152.511 301.712,153.486 302.639 C 153.918 303.051,155.133 303.577,156.184 303.808 C 157.235 304.039,158.095 304.491,158.095 304.812 C 158.095 305.134,158.310 305.350,158.571 305.293 C 158.833 305.236,160.428 305.807,162.116 306.563 C 163.804 307.318,165.331 307.937,165.510 307.937 C 165.689 307.937,166.594 308.477,167.521 309.137 C 168.448 309.797,169.439 310.322,169.723 310.304 C 170.757 310.238,174.603 311.998,174.603 312.537 C 174.603 312.842,174.869 312.926,175.194 312.726 C 175.519 312.525,175.968 312.655,176.190 313.016 C 176.413 313.376,176.829 313.527,177.115 313.351 C 177.400 313.174,177.952 313.414,178.342 313.883 C 179.378 315.131,187.799 315.206,189.841 313.985 C 190.714 313.463,191.902 312.862,192.481 312.650 C 193.060 312.437,193.710 311.790,193.925 311.211 C 194.141 310.632,194.768 309.345,195.318 308.350 C 196.249 306.669,196.598 304.259,197.076 296.190 C 197.179 294.444,197.608 287.587,198.029 280.952 C 198.854 267.944,198.826 205.483,197.993 199.365 C 197.731 197.444,197.208 192.033,196.831 187.340 C 196.427 182.320,195.768 178.138,195.231 177.181 C 194.728 176.287,194.141 175.082,193.925 174.503 C 193.710 173.924,193.060 173.277,192.481 173.064 C 191.902 172.852,190.714 172.251,189.841 171.729 C 187.784 170.499,179.702 170.585,178.521 171.849 M324.149 242.698 C 323.486 243.833,322.183 245.762,321.254 246.984 C 320.324 248.206,318.195 251.063,316.523 253.333 C 314.851 255.603,313.214 257.382,312.885 257.286 C 312.556 257.190,312.453 257.380,312.655 257.708 C 312.858 258.037,312.372 259.115,311.574 260.105 C 310.776 261.095,309.064 263.476,307.769 265.397 C 306.474 267.317,304.958 269.516,304.399 270.282 C 303.225 271.894,303.562 273.440,305.556 275.580 C 306.334 276.415,308.049 278.680,309.369 280.612 C 310.688 282.545,313.044 285.841,314.604 287.937 C 316.164 290.032,318.206 292.889,319.141 294.286 C 320.076 295.683,321.608 297.825,322.544 299.048 C 323.480 300.270,325.599 303.127,327.252 305.397 C 328.905 307.667,330.793 310.238,331.448 311.111 C 332.103 311.984,333.608 314.064,334.792 315.733 C 338.924 321.554,339.824 321.905,350.613 321.905 L 360.028 321.905 363.425 318.508 C 371.808 310.124,371.488 301.916,362.297 289.524 C 360.354 286.905,357.715 283.192,356.433 281.273 C 355.151 279.354,353.750 277.496,353.319 277.146 C 352.888 276.795,351.491 274.937,350.213 273.016 C 348.936 271.095,346.742 267.952,345.339 266.032 C 343.935 264.111,341.727 260.968,340.432 259.048 C 339.137 257.127,337.597 254.984,337.011 254.286 C 336.424 253.587,334.593 251.159,332.941 248.889 C 331.290 246.619,329.260 243.833,328.429 242.698 C 327.599 241.563,326.567 240.635,326.136 240.635 C 325.706 240.635,324.811 241.563,324.149 242.698 " stroke="none" fill="#000000" fill-rule="evenodd"></path></g></svg>