<svg id="svg" xmlns="http://www.w3.org/2000/svg" xmlns:xlink="http://www.w3.org/1999/xlink" width="400" height="323.1746031746032" viewBox="0, 0, 400,323.1746031746032"><g id="svgg"><path id="path0" d="M308.889 1.385 C 288.452 12.081,286.726 42.811,305.947 53.775 C 307.565 54.698,309.317 55.805,309.841 56.236 C 313.875 59.553,332.994 59.825,335.218 56.597 C 335.404 56.327,337.185 55.184,339.176 54.056 C 341.168 52.928,343.723 50.804,344.856 49.336 C 345.988 47.868,347.405 46.179,348.004 45.583 C 349.310 44.285,351.574 38.441,352.138 34.914 C 352.361 33.521,352.792 32.381,353.097 32.381 C 353.870 32.381,353.794 25.560,353.016 25.079 C 352.667 24.864,352.381 24.003,352.381 23.166 C 352.381 20.975,349.656 13.788,348.052 11.749 C 347.300 10.792,346.844 9.750,347.040 9.433 C 347.236 9.117,347.123 8.936,346.790 9.032 C 346.457 9.128,345.484 8.492,344.628 7.619 C 337.799 0.657,335.867 -0.006,322.498 0.028 C 312.528 0.053,311.176 0.188,308.889 1.385 M7.595 58.575 C 5.085 60.075,3.567 61.593,2.068 64.103 L 0.000 67.563 -0.000 189.841 L -0.000 312.120 2.068 315.580 C 3.567 318.089,5.085 319.607,7.595 321.107 L 11.055 323.175 30.003 323.175 C 55.648 323.175,53.968 324.403,53.968 305.653 C 53.968 288.416,53.437 287.619,41.936 287.619 L 35.556 287.619 35.556 189.841 L 35.556 92.063 86.349 92.063 L 137.143 92.063 137.143 112.351 C 137.143 139.708,135.794 137.778,154.921 137.778 C 174.530 137.778,172.698 141.659,172.698 100.101 L 172.698 67.563 170.631 64.103 C 169.131 61.593,167.613 60.075,165.103 58.575 L 161.643 56.508 86.349 56.508 L 11.055 56.508 7.595 58.575 M301.270 68.643 C 296.605 69.705,292.063 71.279,292.063 71.833 C 292.063 72.134,291.702 72.381,291.260 72.381 C 290.818 72.381,288.550 73.495,286.221 74.856 C 283.892 76.217,281.779 77.145,281.526 76.919 C 281.273 76.693,281.248 76.827,281.470 77.216 C 281.857 77.895,276.188 81.905,274.841 81.905 C 274.494 81.905,274.349 82.128,274.518 82.402 C 274.687 82.675,273.777 83.603,272.497 84.465 C 271.216 85.327,267.869 87.774,265.058 89.903 C 262.247 92.033,258.674 94.599,257.117 95.606 C 255.560 96.614,252.429 98.888,250.159 100.662 C 247.889 102.435,244.603 104.850,242.857 106.028 C 241.111 107.206,239.540 108.333,239.365 108.533 C 238.242 109.817,234.368 112.252,234.013 111.897 C 233.777 111.660,233.758 111.922,233.971 112.477 C 234.184 113.033,233.915 113.931,233.372 114.473 C 231.707 116.139,231.139 118.480,229.820 129.115 C 229.121 134.753,228.281 139.937,227.953 140.635 C 225.724 145.386,222.132 179.689,223.446 183.671 C 228.517 199.036,250.974 196.003,252.976 179.683 C 253.212 177.762,253.660 175.619,253.973 174.921 C 254.285 174.222,255.143 169.508,255.878 164.444 C 259.104 142.228,261.149 131.108,262.160 130.285 C 262.718 129.831,264.746 128.420,266.667 127.151 C 268.587 125.882,270.539 124.465,271.004 124.003 C 271.468 123.541,272.155 123.353,272.530 123.584 C 272.912 123.820,273.030 123.710,272.797 123.335 C 272.569 122.966,273.311 122.081,274.445 121.369 C 275.580 120.657,277.242 119.500,278.140 118.797 L 279.772 117.520 279.270 121.141 C 278.994 123.133,277.999 130.333,277.058 137.143 C 276.117 143.952,275.156 149.667,274.923 149.841 C 273.944 150.574,272.103 167.147,272.103 175.238 C 272.102 185.298,272.271 185.812,278.364 194.265 C 280.672 197.468,282.369 200.398,282.134 200.777 C 281.894 201.165,282.001 201.285,282.379 201.051 C 282.748 200.823,283.641 201.565,284.363 202.699 C 285.865 205.058,293.504 215.556,295.105 217.460 C 295.692 218.159,297.255 220.302,298.579 222.222 C 299.902 224.143,301.970 227.143,303.173 228.889 C 304.377 230.635,306.013 232.802,306.808 233.705 C 307.603 234.608,309.049 236.608,310.020 238.150 C 311.815 240.999,313.753 243.712,320.003 252.122 C 321.926 254.709,324.301 257.968,325.282 259.365 C 326.263 260.762,328.049 263.190,329.252 264.762 C 330.455 266.333,332.472 269.190,333.733 271.111 C 334.995 273.032,336.371 274.889,336.790 275.238 C 337.209 275.587,338.595 277.444,339.870 279.365 C 341.145 281.286,343.483 284.571,345.067 286.667 C 346.650 288.762,348.993 292.048,350.274 293.968 C 351.554 295.889,353.364 298.460,354.296 299.683 C 359.816 306.924,363.696 312.190,365.152 314.418 C 366.064 315.814,368.029 318.070,369.518 319.431 L 372.224 321.905 381.544 321.905 C 392.941 321.905,396.557 319.845,399.271 311.810 C 401.845 304.189,399.954 297.709,392.118 287.302 C 390.540 285.206,388.262 282.021,387.055 280.224 C 385.848 278.426,384.423 276.426,383.888 275.779 C 383.353 275.132,380.146 270.746,376.761 266.032 C 373.377 261.317,368.691 254.889,366.348 251.746 C 364.006 248.603,361.568 245.175,360.930 244.127 C 360.293 243.079,359.436 241.935,359.025 241.584 C 358.615 241.234,357.221 239.377,355.927 237.457 C 351.813 231.352,349.145 227.659,347.820 226.237 C 347.072 225.434,346.735 224.529,347.016 224.076 C 347.311 223.598,347.235 223.458,346.819 223.715 C 346.442 223.948,345.496 223.074,344.691 221.750 C 343.894 220.438,343.069 219.222,342.858 219.048 C 342.647 218.873,341.489 217.322,340.285 215.600 C 339.081 213.879,336.163 209.880,333.802 206.713 C 331.441 203.546,329.652 200.583,329.826 200.127 C 330.013 199.642,329.856 199.477,329.449 199.729 C 328.978 200.020,328.871 199.569,329.118 198.333 C 329.318 197.329,330.348 191.079,331.405 184.444 C 332.463 177.810,334.341 166.095,335.579 158.413 C 336.817 150.730,337.975 143.444,338.152 142.222 C 341.439 119.518,342.457 113.234,342.928 112.730 C 343.672 111.935,343.658 99.345,342.912 97.928 C 342.593 97.322,341.573 94.636,340.645 91.960 C 335.240 76.363,316.388 65.199,301.270 68.643 M350.270 140.404 C 349.284 147.433,348.216 153.646,347.897 154.211 C 347.577 154.776,346.930 158.381,346.459 162.222 C 345.548 169.646,345.659 170.308,348.353 173.546 C 349.176 174.536,349.684 175.614,349.481 175.943 C 349.278 176.271,349.413 176.461,349.782 176.365 C 350.150 176.269,350.957 176.938,351.575 177.851 C 356.151 184.614,357.922 187.089,358.889 188.074 C 359.914 189.119,360.265 190.065,360.075 191.270 C 360.034 191.532,360.214 191.689,360.476 191.620 C 360.738 191.550,362.083 192.553,363.464 193.848 C 364.846 195.143,366.917 196.543,368.067 196.959 C 369.218 197.375,370.159 197.944,370.159 198.223 C 370.159 198.502,372.016 198.730,374.286 198.730 C 376.556 198.730,378.413 198.507,378.413 198.234 C 378.413 197.555,382.274 196.148,382.966 196.575 C 383.273 196.765,383.460 196.684,383.383 196.396 C 383.306 196.109,384.291 194.790,385.572 193.465 C 386.853 192.141,388.243 189.856,388.661 188.386 C 389.079 186.917,389.658 185.443,389.948 185.111 C 390.637 184.325,390.624 181.865,389.924 180.468 C 389.620 179.861,388.737 177.937,387.961 176.190 C 387.184 174.444,385.433 171.516,384.068 169.683 C 378.474 162.167,376.618 159.589,375.495 157.778 C 374.846 156.730,374.146 155.730,373.939 155.556 C 373.732 155.381,371.777 152.810,369.594 149.841 C 367.411 146.873,365.088 143.730,364.431 142.857 C 361.161 138.511,357.957 133.958,356.066 130.970 C 352.586 125.472,352.300 125.938,350.270 140.404 M80.635 171.724 C 79.762 172.249,78.574 172.852,77.995 173.064 C 77.416 173.277,76.766 173.924,76.551 174.503 C 76.335 175.082,75.748 176.287,75.245 177.181 C 74.708 178.138,74.049 182.320,73.645 187.340 C 73.268 192.033,72.745 197.444,72.484 199.365 C 71.650 205.483,71.623 267.944,72.447 280.952 C 72.868 287.587,73.297 294.444,73.400 296.190 C 73.879 304.259,74.227 306.669,75.158 308.350 C 75.708 309.345,76.335 310.632,76.551 311.211 C 76.766 311.790,77.416 312.437,77.995 312.650 C 78.574 312.862,79.762 313.463,80.635 313.985 C 82.677 315.206,91.098 315.131,92.135 313.883 C 92.524 313.414,93.076 313.174,93.361 313.351 C 93.647 313.527,94.063 313.376,94.286 313.016 C 94.509 312.655,94.957 312.525,95.282 312.726 C 95.607 312.926,95.873 312.842,95.873 312.537 C 95.873 311.998,99.720 310.238,100.753 310.304 C 101.037 310.322,102.028 309.797,102.955 309.137 C 103.882 308.477,104.787 307.937,104.966 307.937 C 105.145 307.937,106.672 307.318,108.360 306.563 C 110.048 305.807,111.643 305.236,111.905 305.293 C 112.167 305.350,112.381 305.134,112.381 304.812 C 112.381 304.491,113.241 304.039,114.292 303.808 C 115.343 303.577,116.558 303.051,116.991 302.639 C 117.965 301.712,121.418 300.056,122.063 300.207 C 122.325 300.268,122.540 300.032,122.540 299.683 C 122.540 299.333,123.111 299.048,123.810 299.048 C 124.508 299.048,125.079 298.783,125.079 298.459 C 125.079 297.919,131.278 294.753,132.109 294.870 C 132.308 294.898,132.974 294.418,133.589 293.804 C 134.203 293.189,135.012 292.876,135.387 293.108 C 135.792 293.358,135.885 293.231,135.616 292.797 C 135.212 292.142,135.970 291.778,137.302 291.988 C 137.563 292.030,137.778 291.817,137.778 291.517 C 137.778 291.216,139.124 290.288,140.769 289.453 C 142.415 288.619,144.315 287.446,144.992 286.847 C 145.670 286.248,146.467 285.908,146.763 286.091 C 147.059 286.274,147.302 286.074,147.302 285.646 C 147.302 285.218,147.468 285.034,147.672 285.238 C 147.876 285.442,148.590 285.061,149.259 284.392 C 149.929 283.722,150.905 283.175,151.429 283.175 C 151.952 283.175,152.381 282.875,152.381 282.509 C 152.381 282.142,153.523 281.332,154.918 280.707 C 156.313 280.082,157.265 279.382,157.034 279.151 C 156.649 278.766,157.742 278.474,158.889 278.655 C 159.151 278.696,159.365 278.468,159.365 278.147 C 159.365 277.826,160.437 276.913,161.746 276.117 C 163.056 275.322,165.605 273.591,167.411 272.272 C 169.217 270.953,171.064 269.795,171.516 269.699 C 171.967 269.603,172.837 268.952,173.449 268.254 C 174.060 267.556,174.570 267.198,174.582 267.460 C 174.594 267.722,175.246 267.352,176.032 266.637 C 178.944 263.988,179.415 263.609,181.699 262.072 C 182.983 261.208,185.881 259.031,188.139 257.235 C 190.396 255.438,192.560 253.968,192.947 253.968 C 193.334 253.968,193.654 253.754,193.659 253.492 C 193.663 253.230,194.777 251.820,196.135 250.359 C 199.873 246.335,199.873 239.380,196.135 235.356 C 194.777 233.894,193.663 232.484,193.659 232.222 C 193.654 231.960,193.325 231.746,192.927 231.746 C 192.529 231.746,190.315 230.225,188.007 228.366 C 185.698 226.507,183.349 224.721,182.785 224.397 C 181.645 223.743,177.667 220.602,175.808 218.889 C 175.146 218.278,174.594 217.992,174.582 218.254 C 174.570 218.516,173.999 218.056,173.312 217.231 C 172.625 216.407,172.063 215.917,172.063 216.144 C 172.063 216.370,170.349 215.391,168.254 213.968 C 166.159 212.545,164.444 211.089,164.444 210.733 C 164.444 210.376,164.182 210.246,163.861 210.445 C 163.540 210.643,162.897 210.430,162.432 209.970 C 161.967 209.511,161.087 208.946,160.476 208.715 C 159.865 208.483,159.365 207.982,159.365 207.602 C 159.365 207.221,159.099 207.074,158.774 207.275 C 158.448 207.476,157.734 207.001,157.186 206.219 C 156.639 205.437,156.190 205.011,156.190 205.272 C 156.190 205.533,155.333 205.304,154.286 204.762 C 153.238 204.220,152.381 203.499,152.381 203.158 C 152.381 202.818,151.952 202.540,151.429 202.540 C 150.905 202.540,149.929 201.992,149.259 201.323 C 148.590 200.653,147.876 200.272,147.672 200.476 C 147.468 200.680,147.302 200.496,147.302 200.068 C 147.302 199.640,147.059 199.440,146.763 199.623 C 146.467 199.806,145.670 199.466,144.992 198.867 C 144.315 198.268,142.415 197.095,140.769 196.261 C 139.124 195.427,137.778 194.498,137.778 194.197 C 137.778 193.897,137.563 193.685,137.302 193.726 C 135.970 193.936,135.212 193.572,135.616 192.918 C 135.885 192.483,135.792 192.356,135.387 192.606 C 135.012 192.838,134.203 192.525,133.589 191.911 C 132.974 191.296,132.451 190.896,132.426 191.021 C 132.353 191.391,126.051 188.298,125.820 187.778 C 125.704 187.516,125.224 187.302,124.754 187.302 C 124.285 187.302,123.400 186.802,122.789 186.190 C 122.178 185.579,121.515 185.099,121.315 185.123 C 120.482 185.223,117.460 183.807,117.460 183.315 C 117.460 183.022,117.175 182.959,116.825 183.175 C 116.476 183.390,116.190 183.287,116.190 182.945 C 116.190 182.603,115.333 182.135,114.286 181.905 C 113.238 181.675,112.381 181.223,112.381 180.902 C 112.381 180.580,112.167 180.362,111.905 180.416 C 111.455 180.508,109.205 179.599,104.127 177.274 C 102.905 176.715,101.730 176.003,101.516 175.693 C 101.303 175.383,100.927 175.200,100.682 175.287 C 99.976 175.535,95.873 173.785,95.873 173.235 C 95.873 172.962,95.444 172.903,94.921 173.104 C 94.397 173.305,93.968 173.136,93.968 172.729 C 93.968 172.322,93.706 172.151,93.385 172.349 C 93.063 172.548,92.418 172.327,91.949 171.858 C 90.701 170.611,82.648 170.515,80.635 171.724 M294.428 242.698 C 293.597 243.833,291.567 246.619,289.916 248.889 C 288.264 251.159,286.433 253.587,285.847 254.286 C 285.260 254.984,283.720 257.127,282.425 259.048 C 281.130 260.968,278.922 264.111,277.519 266.032 C 276.115 267.952,273.921 271.095,272.644 273.016 C 271.367 274.937,269.969 276.795,269.538 277.146 C 269.108 277.496,267.706 279.354,266.424 281.273 C 265.142 283.192,262.503 286.905,260.561 289.524 C 251.369 301.916,251.049 310.124,259.432 318.508 L 262.830 321.905 272.244 321.905 C 283.033 321.905,283.933 321.554,288.065 315.733 C 289.250 314.064,290.755 311.984,291.409 311.111 C 292.064 310.238,293.952 307.667,295.605 305.397 C 297.258 303.127,299.377 300.270,300.313 299.048 C 301.250 297.825,302.781 295.683,303.716 294.286 C 304.651 292.889,306.693 290.032,308.253 287.937 C 309.813 285.841,312.169 282.545,313.489 280.612 C 314.808 278.680,316.523 276.415,317.301 275.580 C 319.295 273.440,319.633 271.894,318.458 270.282 C 317.900 269.516,316.383 267.317,315.088 265.397 C 313.793 263.476,312.081 261.095,311.283 260.105 C 310.485 259.115,309.999 258.037,310.202 257.708 C 310.405 257.380,310.301 257.190,309.972 257.286 C 309.643 257.382,308.006 255.603,306.334 253.333 C 304.662 251.063,302.533 248.206,301.603 246.984 C 300.674 245.762,299.371 243.833,298.709 242.698 C 298.046 241.563,297.152 240.635,296.721 240.635 C 296.290 240.635,295.258 241.563,294.428 242.698 " stroke="none" fill="#000000" fill-rule="evenodd"></path></g></svg>