<?xml version="1.0" encoding="UTF-8" standalone="no"?>
<svg
   xmlns:d="https://loading.io/stock/"
   xmlns:dc="http://purl.org/dc/elements/1.1/"
   xmlns:cc="http://creativecommons.org/ns#"
   xmlns:rdf="http://www.w3.org/1999/02/22-rdf-syntax-ns#"
   xmlns:svg="http://www.w3.org/2000/svg"
   xmlns="http://www.w3.org/2000/svg"
   xmlns:sodipodi="http://sodipodi.sourceforge.net/DTD/sodipodi-0.dtd"
   xmlns:inkscape="http://www.inkscape.org/namespaces/inkscape"
   version="1.1"
   id="圖層_1"
   x="0"
   y="0"
   viewBox="0 0 80 64.800003"
   xml:space="preserve"
   sodipodi:docname="login.svg"
   width="80"
   height="64.800003"
   inkscape:version="0.92.5 (2060ec1f9f, 2020-04-08)"><defs
     id="defs12" /><sodipodi:namedview
     pagecolor="#ffffff"
     bordercolor="#666666"
     borderopacity="1"
     objecttolerance="10"
     gridtolerance="10"
     guidetolerance="10"
     inkscape:pageopacity="0"
     inkscape:pageshadow="2"
     inkscape:window-width="1366"
     inkscape:window-height="716"
     id="namedview10"
     showgrid="false"
     fit-margin-top="0"
     fit-margin-left="0"
     fit-margin-right="0"
     fit-margin-bottom="0"
     inkscape:zoom="2.36"
     inkscape:cx="40"
     inkscape:cy="32.3"
     inkscape:window-x="0"
     inkscape:window-y="0"
     inkscape:window-maximized="1"
     inkscape:current-layer="圖層_1" /><path
     id="XMLID_21_"
     d="m 20.9,62.7 c 0,1.3 1.5,1.9 2.5,1.1 L 56.3,33.6 c 0.3,-0.3 0.5,-0.7 0.5,-1.1 0,-0.4 -0.2,-0.8 -0.5,-1.1 L 23.3,1.2 C 22.4,0.3 20.8,1 20.8,2.3 V 20.4 H 2.1 C 1,20.4 0,21.3 0,22.5 v 20.1 c 0,1.1 0.9,2.1 2.1,2.1 h 18.8 z"
     inkscape:connector-curvature="0" /><g
     id="g5"
     transform="translate(-10,-17.5)"><path
       d="M 76,82.3 H 57.1 c -2.7,0 -4.9,-2.2 -4.9,-4.9 0,-2.7 2.2,-4.9 4.9,-4.9 H 76 c 2.3,0 4.3,-1.9 4.3,-4.3 V 31.6 c 0,-2.3 -1.9,-4.3 -4.3,-4.3 H 57.1 c -2.7,0 -4.9,-2.2 -4.9,-4.9 0,-2.7 2.2,-4.9 4.9,-4.9 H 76 c 7.7,0 14,6.3 14,14 v 36.7 c 0,7.9 -6.3,14.1 -14,14.1 z"
       id="path3"
       inkscape:connector-curvature="0"
       style="fill:#353035" /></g><metadata
     id="metadata7">
<d:name>login</d:name>
<d:tags>enter,sign in,sign up,join,subscribe,arrow,login,web application</d:tags>
<d:license>by</d:license>
<d:slug>3uadpc</d:slug>
<rdf:RDF><cc:Work
     rdf:about=""><dc:format>image/svg+xml</dc:format><dc:type
       rdf:resource="http://purl.org/dc/dcmitype/StillImage" /><dc:title></dc:title></cc:Work></rdf:RDF></metadata></svg>