<svg class="svg-icon" style="width: 1em; height: 1em;vertical-align: middle;fill: currentColor;overflow: hidden;" viewBox="0 0 1024 1024" version="1.1" xmlns="http://www.w3.org/2000/svg"><path d="M444.416 750.592v-17.408c0-4.096-3.072-8.192-7.168-9.216-22.528-4.096-40.96-12.288-56.32-26.624-10.24-10.24-17.408-23.552-21.504-38.912-4.096-16.384 8.192-31.744 24.576-31.744h1.024c12.288 0 22.528 8.192 24.576 19.456 2.048 10.24 6.144 17.408 13.312 23.552 10.24 9.216 22.528 13.312 37.888 13.312 16.384 0 28.672-4.096 36.864-11.264s13.312-17.408 13.312-30.72c0-12.288-4.096-22.528-12.288-30.72s-21.504-15.36-39.936-21.504c-30.72-10.24-53.248-22.528-68.608-36.864s-22.528-34.816-22.528-59.392c0-23.552 7.168-43.008 21.504-58.368 13.312-13.312 30.72-22.528 52.224-26.624 4.096-1.024 7.168-4.096 7.168-9.216v-22.528c0-9.216 7.168-17.408 17.408-17.408h1.024c9.216 0 17.408 7.168 17.408 17.408V399.36c0 4.096 3.072 8.192 7.168 8.192 21.504 4.096 37.888 14.336 51.2 29.696 8.192 10.24 14.336 23.552 17.408 37.888 3.072 15.36-9.216 30.72-25.6 30.72H532.48c-12.288 0-22.528-8.192-25.6-20.48-2.048-9.216-5.12-16.384-10.24-22.528-8.192-10.24-19.456-16.384-32.768-16.384-14.336 0-25.6 4.096-32.768 11.264-7.168 8.192-11.264 18.432-11.264 31.744 0 12.288 4.096 22.528 11.264 29.696 8.192 8.192 21.504 15.36 41.984 22.528 30.72 11.264 53.248 23.552 67.584 37.888 15.36 14.336 22.528 33.792 22.528 59.392s-7.168 45.056-22.528 59.392c-13.312 13.312-31.744 21.504-54.272 25.6-4.096 1.024-7.168 4.096-7.168 9.216v17.408c0 9.216-7.168 17.408-17.408 17.408-9.216 0-17.408-7.168-17.408-17.408z m530.432-550.912c-9.216-15.36-38.912-51.2-67.584-81.92C844.8 51.2 827.392 51.2 819.2 51.2s-25.6 0-88.064 65.536c-28.672 30.72-58.368 66.56-67.584 81.92-6.144 9.216-3.072 22.528 7.168 27.648s22.528 3.072 27.648-7.168c13.312-21.504 66.56-82.944 100.352-112.64v470.016c0 46.08-9.216 93.184-27.648 136.192-16.384 40.96-43.008 80.896-76.8 113.664C628.736 894.976 539.648 931.84 445.44 931.84 250.88 931.84 92.16 773.12 92.16 578.56S250.88 225.28 445.44 225.28H542.72c11.264 0 20.48-9.216 20.48-20.48s-9.216-20.48-20.48-20.48h-97.28C228.352 184.32 51.2 361.472 51.2 578.56S228.352 972.8 445.44 972.8c105.472 0 203.776-40.96 278.528-115.712 37.888-37.888 66.56-81.92 84.992-126.976 19.456-47.104 30.72-99.328 30.72-151.552V108.544c32.768 29.696 87.04 90.112 100.352 112.64 4.096 6.144 10.24 10.24 17.408 10.24 4.096 0 7.168-1.024 10.24-3.072 10.24-7.168 13.312-19.456 7.168-28.672z"  /></svg>