<?xml version="1.0" standalone="no"?>
<!DOCTYPE svg PUBLIC "-//W3C//DTD SVG 20010904//EN"
 "http://www.w3.org/TR/2001/REC-SVG-20010904/DTD/svg10.dtd">
<svg version="1.0" xmlns="http://www.w3.org/2000/svg"
 width="400.000000pt" height="400.000000pt" viewBox="0 0 400.000000 400.000000"
 preserveAspectRatio="xMidYMid meet">

<g transform="translate(0.000000,400.000000) scale(0.100000,-0.100000)"
fill="#000000" stroke="none">
<path d="M3259 3341 c-63 -21 16 51 -939 -845 -311 -292 -630 -591 -710 -665
-80 -74 -152 -143 -161 -153 -9 -10 -20 -18 -24 -18 -4 0 -165 68 -358 150
-217 94 -360 150 -376 148 -15 -2 -31 -14 -40 -29 -14 -26 -9 -37 209 -420
227 -401 403 -698 447 -757 52 -69 120 -77 168 -19 15 18 79 113 144 212 325
500 766 1061 1576 2005 125 146 231 276 237 290 11 30 -2 63 -35 84 -29 19
-103 28 -138 17z"/>
</g>
</svg>
