<?xml version="1.0" encoding="iso-8859-1"?>
<!-- Generator: Adobe Illustrator 19.1.0, SVG Export Plug-In . SVG Version: 6.00 Build 0)  -->
<svg version="1.1" id="Capa_1" xmlns="http://www.w3.org/2000/svg" xmlns:xlink="http://www.w3.org/1999/xlink" x="0px" y="0px"
	 viewBox="0 0 232.127 232.127" style="enable-background:new 0 0 232.127 232.127;" xml:space="preserve">
<path d="M166.828,56.565l-2.598-23.863h12.524v-32.7L92.755,0v33.144l12.937-0.002l-0.398,4.996L52.831,22.179L5.156,179.249
	l174.092,52.878l47.722-157.18L166.828,56.565z M164.612,204.682L32.639,164.593L67.563,49.624l35.435,10.909l-1.101,10.169h19.811
	l8.574,26h9.655l7.466-23.068l52.132,15.958L164.612,204.682z M175.545,113.388l-6.396,21.051L68.757,103.937l6.396-21.051
	L175.545,113.388z M63.832,120.136l100.392,30.491l-6.393,21.051L57.439,141.187L63.832,120.136z"/>
<g>
</g>
<g>
</g>
<g>
</g>
<g>
</g>
<g>
</g>
<g>
</g>
<g>
</g>
<g>
</g>
<g>
</g>
<g>
</g>
<g>
</g>
<g>
</g>
<g>
</g>
<g>
</g>
<g>
</g>
</svg>
