<?xml version="1.0" standalone="no"?>
<!DOCTYPE svg PUBLIC "-//W3C//DTD SVG 20010904//EN"
 "http://www.w3.org/TR/2001/REC-SVG-20010904/DTD/svg10.dtd">
<svg version="1.0" xmlns="http://www.w3.org/2000/svg"
 width="200.000000pt" height="200.000000pt" viewBox="0 0 200.000000 200.000000"
 preserveAspectRatio="xMidYMid meet">
<metadata>
Created by potrace 1.16, written by Peter Selinger 2001-2019
</metadata>
<g transform="translate(0.000000,200.000000) scale(0.100000,-0.100000)"
fill="#000000" stroke="none">
<path d="M700 1699 c-235 -29 -422 -272 -394 -512 l6 -54 -46 -27 c-90 -52
-139 -144 -140 -261 -1 -67 3 -89 25 -136 57 -120 152 -179 306 -187 l93 -5 0
47 0 46 -72 0 c-97 0 -137 13 -191 60 -130 114 -92 324 69 386 51 20 57 32 43
90 -18 69 -7 180 24 247 36 79 106 150 186 190 60 29 74 32 161 32 86 0 101
-3 163 -32 45 -21 86 -51 121 -89 l54 -56 56 13 c69 15 120 3 173 -44 41 -36
63 -81 63 -130 0 -54 15 -64 105 -69 122 -7 204 -57 261 -160 26 -47 29 -62
29 -138 0 -69 -5 -93 -23 -127 -58 -109 -157 -173 -269 -173 l-63 0 0 -45 0
-45 39 0 c252 0 439 210 400 451 -26 160 -163 299 -311 316 -64 7 -88 18 -88
41 -1 30 -36 97 -71 131 -53 54 -122 81 -205 81 -63 0 -73 3 -94 25 -39 42
-122 92 -186 113 -75 25 -141 31 -224 21z"/>
<path d="M735 1258 c-45 -24 -45 -22 -45 -435 l0 -394 25 -24 24 -25 229 0
c226 0 229 0 250 23 22 23 22 26 22 421 l0 397 -25 24 -24 25 -218 0 c-138 0
-225 -5 -238 -12z m455 -438 l0 -260 -225 0 -225 0 0 260 0 260 225 0 225 0 0
-260z"/>
</g>
</svg>
