<?xml version="1.0" encoding="iso-8859-1"?>
<!-- Generator: Adobe Illustrator 16.0.0, SVG Export Plug-In . SVG Version: 6.00 Build 0)  -->
<!DOCTYPE svg PUBLIC "-//W3C//DTD SVG 1.1//EN" "http://www.w3.org/Graphics/SVG/1.1/DTD/svg11.dtd">
<svg version="1.1" id="Capa_1" xmlns="http://www.w3.org/2000/svg" xmlns:xlink="http://www.w3.org/1999/xlink" x="0px" y="0px"
	 width="46.193px" height="46.193px" viewBox="0 0 46.193 46.193" style="enable-background:new 0 0 46.193 46.193;"
	 xml:space="preserve">
<g>
	<g>
		<path d="M35.412,3.072H10.757C4.8,3.072,0,7.897,0,13.855v6.654c1.755-1.621,4.388-2.98,7.499-4.011V12.31
			c0-1.589,1.299-2.855,2.887-2.855h9.319c1.59,0,2.873,1.267,2.873,2.855v1.983c0.159-0.002,0.351-0.002,0.519-0.002
			s0.359,0,0.519,0.002V12.31c0-1.589,1.26-2.855,2.85-2.855h9.319c1.589,0,2.91,1.267,2.91,2.855v4.188
			c3.11,1.03,5.664,2.39,7.498,4.009v-6.652C46.193,7.897,41.369,3.072,35.412,3.072z"/>
		<path d="M23.085,17.305c-10.889,0-20.009,2.996-22.458,7.026c-0.231,0.382-0.238,0.858-0.02,1.248
			c0.218,0.39,0.631,0.629,1.077,0.629h42.803c0.447,0,0.857-0.241,1.078-0.63c0.217-0.389,0.211-0.865-0.021-1.247
			C43.097,20.301,33.974,17.305,23.085,17.305z"/>
		<path d="M0.878,29.145v8.634c0,1.674,1.197,3.056,2.792,3.278v0.785c0,0.693,0.598,1.279,1.291,1.279h2.513
			c0.694,0,1.223-0.586,1.223-1.279v-0.715h28.722v0.715c0,0.693,0.584,1.279,1.278,1.279h2.513c0.692,0,1.235-0.586,1.235-1.279
			v-0.785c1.596-0.224,2.871-1.604,2.871-3.278v-8.638v-0.14H0.878V29.145z"/>
	</g>
</g>
<g>
</g>
<g>
</g>
<g>
</g>
<g>
</g>
<g>
</g>
<g>
</g>
<g>
</g>
<g>
</g>
<g>
</g>
<g>
</g>
<g>
</g>
<g>
</g>
<g>
</g>
<g>
</g>
<g>
</g>
</svg>
