<?xml version="1.0" standalone="no"?>
<!DOCTYPE svg PUBLIC "-//W3C//DTD SVG 20010904//EN"
 "http://www.w3.org/TR/2001/REC-SVG-20010904/DTD/svg10.dtd">
<svg version="1.0" xmlns="http://www.w3.org/2000/svg"
 width="980.000000pt" height="800.000000pt" viewBox="0 0 980.000000 800.000000"
 preserveAspectRatio="xMidYMid meet">
<metadata>
Created by potrace 1.16, written by Peter Selinger 2001-2019
</metadata>
<g transform="translate(0.000000,800.000000) scale(0.100000,-0.100000)"
fill="#000000" stroke="none">
<path d="M3984 7980 c-109 -9 -170 -37 -233 -105 -62 -67 -84 -124 -85 -215 0
-130 68 -236 189 -295 76 -38 147 -45 453 -45 l272 0 0 -330 0 -329 -32 -5
c-18 -3 -69 -8 -113 -11 -404 -30 -995 -206 -1450 -431 -854 -422 -1503 -1071
-1937 -1937 -203 -407 -380 -972 -382 -1227 -1 -99 1 -109 31 -170 39 -79 105
-148 179 -185 51 -26 66 -28 232 -36 97 -4 246 -8 330 -8 l152 -1 0 -239 0
-239 -292 -5 c-374 -6 -437 -21 -527 -124 -50 -56 -235 -424 -556 -1108 l-216
-459 6 -71 c17 -191 77 -286 232 -364 l62 -31 4098 1 c2254 0 4334 4 4623 8
591 8 562 4 649 86 61 57 96 115 116 191 23 88 19 135 -19 232 -109 283 -625
1360 -714 1492 -21 31 -56 66 -82 82 -86 52 -139 60 -460 67 l-295 6 -3 238
-2 237 217 0 c300 0 432 12 498 45 64 31 153 123 190 195 16 31 29 77 32 110
11 120 -95 555 -212 871 -411 1105 -1267 1997 -2357 2457 -411 173 -742 259
-1274 327 l-41 6 -7 61 c-3 33 -6 181 -6 328 l0 268 308 4 307 3 66 31 c86 41
142 92 176 162 24 49 28 69 28 142 0 73 -4 93 -28 142 -55 111 -143 164 -298
178 -122 11 -1691 11 -1825 0z m1141 -2090 c261 -10 383 -26 587 -76 1046
-257 1882 -915 2351 -1850 101 -202 219 -505 203 -521 -4 -4 -87 -11 -184 -15
-224 -11 -6488 -4 -6524 6 l-26 8 15 52 c50 174 192 482 321 696 451 752 1184
1325 1997 1564 442 129 707 158 1260 136z m700 -4490 l2700 0 109 -233 c60
-127 124 -264 142 -303 l32 -71 -176 -8 c-202 -8 -7621 -9 -7629 -1 -7 7 16
61 163 375 l119 254 920 -6 c506 -4 2135 -7 3620 -7z"/>
</g>
</svg>
