<?xml version="1.0" standalone="no"?>
<!DOCTYPE svg PUBLIC "-//W3C//DTD SVG 20010904//EN"
 "http://www.w3.org/TR/2001/REC-SVG-20010904/DTD/svg10.dtd">
<svg version="1.0" xmlns="http://www.w3.org/2000/svg"
 width="840.000000pt" height="707.000000pt" viewBox="0 0 840.000000 707.000000"
 preserveAspectRatio="xMidYMid meet">
<metadata>
Created by potrace 1.16, written by Peter Selinger 2001-2019
</metadata>
<g transform="translate(0.000000,707.000000) scale(0.100000,-0.100000)"
fill="#000000" stroke="none">
<path d="M2631 5996 c-1153 -518 -1531 -691 -1555 -715 l-31 -31 0 -631 0
-631 37 -34 c34 -31 44 -34 96 -34 49 0 64 4 86 25 14 13 31 36 36 50 6 16 10
235 10 568 l0 542 1362 610 c749 336 1399 626 1444 646 l81 37 1444 -648 1444
-647 5 -562 5 -563 33 -29 c27 -25 41 -29 88 -29 34 0 64 6 80 16 55 37 54 22
54 687 l0 614 -22 33 c-21 31 -164 97 -1548 718 -1216 546 -1535 685 -1575
688 -48 4 -111 -23 -1574 -680z"/>
<path d="M6186 4247 c-26 -28 -50 -90 -138 -358 -61 -182 -108 -341 -108 -362
0 -21 7 -51 15 -67 29 -56 43 -60 232 -60 l173 0 0 -130 0 -130 -94 0 c-106 0
-136 -8 -171 -46 -21 -23 -25 -37 -25 -88 0 -58 2 -64 36 -97 l35 -34 322 -3
c212 -2 335 0 359 8 57 17 88 60 88 126 0 48 -4 59 -34 92 l-34 37 -111 3
-111 4 0 129 0 129 174 0 174 0 31 30 c59 60 56 77 -69 454 -93 279 -116 341
-141 366 l-31 30 -270 0 -271 0 -31 -33z m472 -407 l60 -180 -229 0 c-126 0
-229 1 -229 3 0 3 106 322 115 345 3 8 35 12 114 12 l109 0 60 -180z"/>
<path d="M1703 3960 c-81 -19 -177 -102 -217 -189 -20 -45 -21 -62 -26 -554
l-5 -509 -55 -19 c-76 -26 -182 -101 -231 -163 -63 -78 -107 -178 -119 -271
-7 -52 -10 -378 -8 -940 3 -801 4 -862 21 -886 35 -52 50 -54 329 -54 l260 0
34 37 34 38 0 170 0 170 1535 0 1535 0 0 -156 c0 -171 9 -207 58 -241 24 -16
53 -18 290 -18 l264 0 34 37 34 38 0 913 c0 811 -2 919 -16 968 -26 85 -59
143 -124 213 -69 74 -134 118 -211 146 l-54 18 -5 509 -5 508 -23 47 c-36 71
-96 134 -160 165 l-57 28 -1540 2 c-847 0 -1554 -2 -1572 -7z m3061 -279 l26
-24 0 -469 0 -468 -74 0 -75 0 -3 248 c-3 245 -3 247 -30 297 -34 66 -111 137
-173 161 -46 18 -80 19 -455 19 l-405 0 -48 -24 c-58 -29 -130 -98 -160 -155
-21 -39 -22 -55 -25 -293 l-3 -253 -80 0 -79 0 0 228 c0 275 -6 304 -82 387
-28 31 -74 68 -102 83 l-51 27 -415 0 -415 0 -51 -27 c-66 -35 -147 -124 -168
-184 -13 -38 -16 -93 -16 -281 l0 -233 -80 0 -80 0 0 449 c0 308 4 458 11 481
22 63 -69 60 1541 57 l1466 -2 26 -24z m-1905 -502 c55 -19 61 -45 61 -264 l0
-195 -390 0 -390 0 0 195 c0 214 5 240 55 261 39 17 615 20 664 3z m1460 0
c55 -19 61 -45 61 -264 l0 -195 -390 0 -390 0 0 201 c0 118 4 208 10 219 25
46 47 49 371 50 199 0 317 -4 338 -11z m723 -752 c69 -34 121 -91 148 -164 18
-49 20 -78 20 -318 l0 -265 -1950 0 -1950 0 0 273 0 272 28 60 c41 85 111 143
199 164 22 5 764 8 1743 8 l1705 -2 57 -28z m168 -1397 l0 -390 -75 0 -75 0 0
154 c0 166 -5 193 -46 231 l-27 25 -1726 0 c-1548 0 -1729 -2 -1749 -16 -45
-31 -52 -62 -52 -234 l0 -160 -75 0 -75 0 0 390 0 390 1950 0 1950 0 0 -390z"/>
<path d="M5689 2705 c-62 -34 -59 21 -59 -930 l0 -865 34 -38 c33 -35 38 -37
96 -37 58 0 63 2 96 37 l34 38 0 355 0 355 600 0 600 0 0 -359 0 -358 25 -27
c64 -69 182 -56 222 24 10 19 13 217 13 884 l0 858 -39 39 -39 39 -778 0
c-653 -1 -783 -3 -805 -15z m1401 -530 l0 -285 -600 0 -600 0 0 285 0 285 600
0 600 0 0 -285z"/>
<path d="M6222 2284 c-33 -23 -52 -67 -52 -120 0 -41 5 -51 39 -85 l39 -39
233 0 c257 0 268 2 306 59 38 56 28 129 -23 176 l-27 25 -246 0 c-207 0 -250
-2 -269 -16z"/>
</g>
</svg>
