<?xml version="1.0" encoding="iso-8859-1"?>
<!-- Generator: Adobe Illustrator 16.0.0, SVG Export Plug-In . SVG Version: 6.00 Build 0)  -->
<!DOCTYPE svg PUBLIC "-//W3C//DTD SVG 1.1//EN" "http://www.w3.org/Graphics/SVG/1.1/DTD/svg11.dtd">
<svg version="1.1" id="Capa_1" xmlns="http://www.w3.org/2000/svg" xmlns:xlink="http://www.w3.org/1999/xlink" x="0px" y="0px"
	 width="423.343px" height="423.343px" viewBox="0 0 423.343 423.343" style="enable-background:new 0 0 423.343 423.343;"
	 xml:space="preserve">
<g>
	<path d="M352.308,258.963c3.672-26.316-3.06-55.692-4.896-81.396c-3.061-35.496-6.12-73.44,3.06-108.324
		c0.612-2.448-3.06-3.672-4.284-1.836l0,0c-0.611-1.224-1.836-3.06-3.672-3.06c-29.376-5.508-62.424,0.612-91.8,2.448
		c-27.54,1.224-54.467,0-82.007-1.224c-22.644-1.224-45.9-1.224-68.544-1.836c-8.568,0-25.092-3.06-34.884,1.224
		c-4.284-3.06-11.016-1.224-11.016,5.508c0,63.036-1.224,126.684,3.06,189.721c-26.316,17.748-40.392,50.184-56.304,76.5
		c-3.06,5.508,1.224,11.627,6.732,11.627c135.252,8.568,271.116-11.627,405.143,12.852c4.896,0.613,11.017-2.447,10.404-7.955
		C419.016,309.146,376.176,291.398,352.308,258.963z M281.315,231.424c-33.659,1.223-66.707,2.447-100.367,3.059
		c-28.152,0.613-55.692,1.225-83.844,0.613c-3.672,0-9.792-0.613-15.3-1.225c4.896-47.736,6.12-96.084,5.508-143.82
		c31.824,0,63.648,5.508,95.472,8.568c43.452,4.284,89.963,0.612,134.027,0c-1.836,12.24,1.836,26.928,3.672,39.168
		c4.284,30.6,2.448,61.2,3.673,91.801C310.692,227.139,292.944,230.811,281.315,231.424z"/>
</g>
<g>
</g>
<g>
</g>
<g>
</g>
<g>
</g>
<g>
</g>
<g>
</g>
<g>
</g>
<g>
</g>
<g>
</g>
<g>
</g>
<g>
</g>
<g>
</g>
<g>
</g>
<g>
</g>
<g>
</g>
</svg>
