<?xml version="1.0" encoding="UTF-8" standalone="no"?>
<!-- Generator: Adobe Illustrator 19.0.0, SVG Export Plug-In . SVG Version: 6.00 Build 0)  -->

<svg
   xmlns:dc="http://purl.org/dc/elements/1.1/"
   xmlns:cc="http://creativecommons.org/ns#"
   xmlns:rdf="http://www.w3.org/1999/02/22-rdf-syntax-ns#"
   xmlns:svg="http://www.w3.org/2000/svg"
   xmlns="http://www.w3.org/2000/svg"
   xmlns:sodipodi="http://sodipodi.sourceforge.net/DTD/sodipodi-0.dtd"
   xmlns:inkscape="http://www.inkscape.org/namespaces/inkscape"
   version="1.1"
   id="Layer_1"
   x="0px"
   y="0px"
   viewBox="0 0 328.9329 429.11738"
   xml:space="preserve"
   sodipodi:docname="world.svg"
   inkscape:version="0.92.5 (2060ec1f9f, 2020-04-08)"
   width="328.93289"
   height="429.11737"><metadata
   id="metadata45"><rdf:RDF><cc:Work
       rdf:about=""><dc:format>image/svg+xml</dc:format><dc:type
         rdf:resource="http://purl.org/dc/dcmitype/StillImage" /><dc:title></dc:title></cc:Work></rdf:RDF></metadata><defs
   id="defs43" /><sodipodi:namedview
   pagecolor="#ffffff"
   bordercolor="#666666"
   borderopacity="1"
   objecttolerance="10"
   gridtolerance="10"
   guidetolerance="10"
   inkscape:pageopacity="0"
   inkscape:pageshadow="2"
   inkscape:window-width="1366"
   inkscape:window-height="716"
   id="namedview41"
   showgrid="false"
   inkscape:zoom="0.46093841"
   inkscape:cx="-457.30423"
   inkscape:cy="136.24206"
   inkscape:window-x="0"
   inkscape:window-y="0"
   inkscape:window-maximized="1"
   inkscape:current-layer="Layer_1"
   fit-margin-top="0"
   fit-margin-left="0"
   fit-margin-right="0"
   fit-margin-bottom="0" />


<rect
   style="opacity:1;fill:#000000;fill-opacity:1;stroke:#f2f2f2;stroke-width:0.69659722;stroke-miterlimit:4;stroke-dasharray:none;stroke-opacity:0.98507463"
   id="rect854"
   width="16.585186"
   height="47.796902"
   x="170.45299"
   y="359.6597" /><path
   style="fill:#000000"
   d="m 191.8259,369.10867 c -37.45,0 -73.873,-10.886 -105.331998,-31.479 -32.241,-21.104 -57.087,-51.104 -71.854,-86.753 -19.5469996,-47.191 -19.5189996,-99.238 0.079,-146.552 19.598,-47.313997 56.38,-84.136997 103.571998,-103.68399725 4.282,-1.77300005 9.192,0.26 10.966,4.54299995 l 140.16,338.3769973 c 0.853,2.057 0.853,4.367 0,6.424 -0.852,2.057 -2.486,3.691 -4.543,4.543 -23.353,9.675 -47.932,14.581 -73.048,14.581 z M 117.0389,19.544673 c -39.358998,18.52 -70.002998,50.633 -86.808998,91.203997 -17.882,43.171 -17.91,90.655 -0.078,133.704 27.142,65.527 90.602998,107.868 161.672998,107.869 20.115,0 39.854,-3.451 58.801,-10.272 z"
   id="path6"
   inkscape:connector-curvature="0" />
<circle
   style="fill:#000000"
   cx="191.5829"
   cy="177.58267"
   r="137.35001"
   id="circle8" />
<g
   id="g10"
   transform="translate(-91.533098,-46.000327)">
</g>
<g
   id="g12"
   transform="translate(-91.533098,-46.000327)">
</g>
<g
   id="g14"
   transform="translate(-91.533098,-46.000327)">
</g>
<g
   id="g16"
   transform="translate(-91.533098,-46.000327)">
</g>
<g
   id="g18"
   transform="translate(-91.533098,-46.000327)">
</g>
<g
   id="g20"
   transform="translate(-91.533098,-46.000327)">
</g>
<g
   id="g22"
   transform="translate(-91.533098,-46.000327)">
</g>
<g
   id="g24"
   transform="translate(-91.533098,-46.000327)">
</g>
<g
   id="g26"
   transform="translate(-91.533098,-46.000327)">
</g>
<g
   id="g28"
   transform="translate(-91.533098,-46.000327)">
</g>
<g
   id="g30"
   transform="translate(-91.533098,-46.000327)">
</g>
<g
   id="g32"
   transform="translate(-91.533098,-46.000327)">
</g>
<g
   id="g34"
   transform="translate(-91.533098,-46.000327)">
</g>
<g
   id="g36"
   transform="translate(-91.533098,-46.000327)">
</g>
<g
   id="g38"
   transform="translate(-91.533098,-46.000327)">
</g>
<rect
   style="opacity:1;fill:#000000;fill-opacity:1;stroke:#f2f2f2;stroke-width:0;stroke-miterlimit:4;stroke-dasharray:none;stroke-opacity:0.98507463"
   id="rect852"
   width="271.18588"
   height="31.457546"
   x="43.483582"
   y="397.65982"
   ry="7.6702957" /></svg>