<?xml version="1.0" encoding="UTF-8" standalone="no"?>
<!-- Created with Inkscape (http://www.inkscape.org/) -->

<svg
   width="124.56837mm"
   height="124.27885mm"
   viewBox="0 0 124.56838 124.27885"
   version="1.1"
   id="svg1"
   xml:space="preserve"
   inkscape:version="1.3 (0e150ed6c4, 2023-07-21)"
   sodipodi:docname="broom.svg"
   xmlns:inkscape="http://www.inkscape.org/namespaces/inkscape"
   xmlns:sodipodi="http://sodipodi.sourceforge.net/DTD/sodipodi-0.dtd"
   xmlns="http://www.w3.org/2000/svg"
   xmlns:svg="http://www.w3.org/2000/svg"><sodipodi:namedview
     id="namedview1"
     pagecolor="#ffffff"
     bordercolor="#000000"
     borderopacity="0.25"
     inkscape:showpageshadow="2"
     inkscape:pageopacity="0.0"
     inkscape:pagecheckerboard="0"
     inkscape:deskcolor="#d1d1d1"
     inkscape:document-units="mm"
     inkscape:zoom="1.0141844"
     inkscape:cx="246.5035"
     inkscape:cy="276.57693"
     inkscape:window-width="1920"
     inkscape:window-height="1011"
     inkscape:window-x="0"
     inkscape:window-y="32"
     inkscape:window-maximized="1"
     inkscape:current-layer="layer1" /><defs
     id="defs1" /><g
     inkscape:label="Layer 1"
     inkscape:groupmode="layer"
     id="layer1"
     transform="translate(-40.018474,-75.318711)"><path
       style="fill:#000000"
       d="m 69.017809,199.27473 c -1.956244,-0.49142 -3.714381,-1.39156 -5.511761,-2.82193 -1.347459,-1.07232 -1.549562,-1.14761 -3.159338,-1.1769 -3.423808,-0.0623 -6.858116,-2.21932 -8.332908,-5.23368 -0.583797,-1.19324 -0.88436,-1.48725 -2.062225,-2.01723 -0.758354,-0.34123 -2.067025,-1.27489 -2.908159,-2.0748 -2.807743,-2.67015 -4.015361,-5.65243 -3.857423,-9.52612 0.09116,-2.23587 0.06971,-2.33048 -1.027752,-4.5325 -1.231489,-2.47094 -1.85572,-4.56759 -2.096781,-7.04261 -0.194301,-1.99493 0.209027,-2.51077 2.479099,-3.1707 4.006316,-1.16467 8.080858,-3.36311 15.174256,-8.18735 11.723125,-7.97293 17.962345,-10.67709 24.902435,-10.79304 l 2.559084,-0.0427 0.820277,-2.15879 c 1.148791,-3.02336 4.931375,-9.24067 5.85466,-9.6231 0.583674,-0.24177 1.101783,-0.17619 2.85016,0.36074 l 2.136813,0.65622 5.158024,-5.895 c 2.83692,-3.24225 5.51584,-6.19608 5.95316,-6.56406 0.89401,-0.75226 1.99665,-1.18489 5.44624,-2.13688 5.51451,-1.52186 3.59656,0.15585 20.55844,-17.983278 8.3251,-8.902907 16.49022,-17.639394 18.14472,-19.414416 3.38834,-3.635169 4.82942,-4.577895 6.99791,-4.577895 3.34465,0 5.4775,2.2267 5.48999,5.73157 0.005,1.340303 -0.14725,1.916551 -0.85409,3.237443 -1.13559,2.122122 -33.90587,39.378676 -35.35152,40.191186 -0.54472,0.30614 -3.41451,1.39399 -6.37731,2.41743 -2.96281,1.02344 -5.5953,2.0113 -5.84999,2.19523 -0.25469,0.18394 -2.57713,2.75824 -5.16098,5.72067 l -4.69791,5.38625 0.61265,2.02209 c 0.81706,2.69673 0.9044,3.31616 0.55865,3.96219 -0.16062,0.30012 -1.86876,1.52399 -3.79588,2.71972 -4.023686,2.49659 -5.799083,3.77478 -6.992385,5.03415 -0.755442,0.79727 -1.051754,1.67017 -2.861624,8.42998 -3.308923,12.35875 -4.874649,17.09937 -7.30087,22.10518 -2.585771,5.33499 -6.090248,9.80607 -10.52901,13.43312 -1.945383,1.58963 -2.024983,1.62573 -3.720603,1.68745 -0.95298,0.0347 -2.414602,-0.10822 -3.248049,-0.31759 z m 4.752686,-4.67708 c 3.351989,-2.58604 6.898187,-7.34734 9.425447,-12.65507 2.532932,-5.31965 3.481836,-8.24071 6.917915,-21.2958 1.753525,-6.66237 1.75293,-5.9282 0.0059,-7.24724 -1.576328,-1.19014 -3.529149,-3.61579 -4.471047,-5.55361 l -0.563434,-1.15918 -2.910416,0.14891 c -5.878276,0.30076 -10.553276,2.32795 -20.372916,8.83416 -9.445795,6.25851 -13.217179,8.40172 -16.470312,9.35977 -0.618463,0.18214 -1.124479,0.47837 -1.124479,0.65829 0,0.58495 1.031557,3.68468 1.38882,4.17327 0.321572,0.43978 0.485698,0.35382 2.179536,-1.14147 4.946707,-4.36687 11.335972,-8.64389 17.201435,-11.51477 3.947899,-1.93233 7.384457,-3.305 8.27422,-3.305 0.803521,0 1.912238,1.12657 1.912238,1.94303 0,1.05033 -0.784852,1.67845 -3.37778,2.70324 -7.523888,2.97363 -16.221149,8.43464 -22.082712,13.86572 -2.298996,2.13015 -2.746148,3.10883 -2.503347,5.47908 0.281358,2.74665 1.888873,5.15724 4.230378,6.34377 l 1.317298,0.66752 1.881519,-1.81641 c 1.034836,-0.99902 3.506597,-3.39065 5.492802,-5.31472 2.933219,-2.84146 3.754286,-3.49832 4.372899,-3.49832 1.460403,0 2.477802,1.32576 2.002798,2.60981 -0.109226,0.29527 -2.579573,2.83518 -5.489661,5.64425 -2.910087,2.80907 -5.330653,5.26188 -5.379034,5.45069 -0.149991,0.58535 1.207599,2.08868 2.413266,2.67233 3.013161,1.45865 6.036359,0.0225 11.427725,-5.42864 2.76472,-2.79537 4.935755,-5.71366 6.91327,-9.29276 0.770146,-1.39388 1.554977,-2.63247 1.744068,-2.75241 0.746465,-0.4735 2.012957,-0.24173 2.573557,0.47096 0.71267,0.90601 0.691456,1.41933 -0.125266,3.03105 -2.816281,5.55767 -7.474532,11.26608 -12.226178,14.98248 -1.201305,0.93957 -2.115613,1.81928 -2.031797,1.95489 0.263343,0.4261 2.76808,1.58696 3.913052,1.81357 1.839436,0.36406 2.056958,0.31297 3.540262,-0.83139 z m -4.307687,-23.09093 c -0.713708,-0.7137 -0.798903,-1.30775 -0.309327,-2.15689 0.445328,-0.77239 11.02595,-10.15149 11.788999,-10.45025 1.340149,-0.52471 2.966106,1.11242 2.450836,2.46768 -0.218211,0.57394 -2.227873,2.45422 -9.349384,8.74749 -2.602001,2.29939 -3.423961,2.54914 -4.581124,1.39197 z m 8.392521,-17.16084 c -0.628348,-0.66885 -0.733315,-1.5084 -0.291748,-2.33348 0.301212,-0.56281 4.780394,-2.87499 5.569482,-2.87499 0.855292,0 1.905172,1.15593 1.87921,2.06904 -0.01305,0.45887 -0.10038,0.95835 -0.194073,1.10995 -0.311933,0.50472 -4.870108,2.64184 -5.634667,2.64184 -0.444917,0 -0.988252,-0.2505 -1.328204,-0.61236 z m 17.149002,-4.3867 c 0.672038,-0.56667 2.439381,-1.82802 3.92743,-2.80301 l 2.705539,-1.77269 -1.13227,-0.75419 c -2.378173,-1.58404 -5.340279,-4.44523 -7.35359,-7.10303 l -0.665059,-0.87796 -1.158897,2.02549 c -1.309511,2.28873 -2.406995,5.10913 -2.403293,6.17617 0.0037,1.07049 1.336373,3.18557 2.993143,4.75047 0.808838,0.76398 1.559376,1.38906 1.667862,1.38906 0.108487,0 0.747097,-0.46364 1.419135,-1.03031 z m 12.361929,-17.0895 c 3.95149,-4.50568 6.39657,-7.07722 7.0948,-7.46171 0.58597,-0.32268 3.3244,-1.35426 6.08542,-2.29239 2.76101,-0.93814 5.2369,-1.79333 5.50197,-1.90043 0.51024,-0.20615 32.85122,-36.815119 33.93849,-38.417302 1.07829,-1.588954 0.72979,-3.510437 -0.6367,-3.510437 -0.98005,0 -2.06093,0.814504 -4.20293,3.167148 -4.69832,5.160334 -32.78592,35.151221 -33.51519,35.786261 -1.20512,1.0494 -4.32701,2.19829 -9.87627,3.63457 -1.00784,0.26086 -1.69976,0.95786 -7.47448,7.52939 -3.50011,3.98305 -6.363829,7.35615 -6.363829,7.49577 0,0.37201 2.877749,3.03202 3.170389,2.9305 0.13691,-0.0475 2.96215,-3.18011 6.27833,-6.96137 z m -2.3418,42.48482 c -0.54598,-0.44214 -0.62463,-0.73311 -0.62463,-2.3109 v -1.80508 l -1.272,-0.18288 c -0.6996,-0.10059 -1.45615,-0.33572 -1.68121,-0.5225 -1.06523,-0.88406 -0.93686,-2.48085 0.26262,-3.26678 0.5139,-0.33672 0.93036,-0.37406 2.10956,-0.18915 l 1.46925,0.23041 0.17884,-1.34605 c 0.10502,-0.7904 0.40491,-1.59178 0.72649,-1.94135 0.71756,-0.78001 2.10682,-0.79599 2.8698,-0.033 0.49883,0.49882 0.54292,0.7516 0.39053,2.239 l -0.17178,1.67669 1.38243,0.18339 c 2.35426,0.3123 3.25954,1.83585 2.0241,3.40646 -0.55387,0.70413 -0.63969,0.72486 -2.34458,0.56641 l -1.76967,-0.16448 -0.16094,1.38751 c -0.25939,2.23629 -1.92702,3.25607 -3.38881,2.0723 z m 18.0669,-3.48143 c -1.77127,-0.70944 -2.96542,-2.22701 -3.34515,-4.25115 -0.58769,-3.13267 2.72158,-6.47091 5.90296,-5.95464 4.12101,0.66875 5.9489,5.50814 3.27897,8.68116 -1.28056,1.52187 -4.04245,2.2433 -5.83678,1.52463 z m 2.7349,-4.11552 c 0.91213,-0.91212 -0.1594,-2.4098 -1.38424,-1.93475 -0.42289,0.16401 -0.59531,0.44793 -0.59531,0.98025 0,1.3041 1.0997,1.83435 1.97955,0.9545 z m -6.87434,-11.52498 c -1.28102,-0.75015 -1.52508,-1.91357 -0.65713,-3.1325 2.0806,-2.92193 2.05303,-5.0615 -0.0983,-7.62572 -1.2139,-1.44688 -1.30634,-2.64416 -0.26727,-3.46149 0.90706,-0.71349 1.24041,-0.68649 3.13258,0.25368 1.8241,0.90636 1.96758,0.92106 3.76852,0.38624 1.83421,-0.5447 4.02348,-2.07065 6.61655,-4.61184 1.59015,-1.55832 2.36084,-2.1327 2.86167,-2.1327 0.9859,0 1.59022,0.39749 1.95941,1.2888 0.39211,0.94663 0.30076,1.14341 -1.90754,4.10881 -2.33368,3.13378 -3.50229,5.70668 -3.50229,7.7109 0,1.17599 0.14003,1.79503 0.52917,2.33943 1.20083,1.67992 1.42454,2.28817 1.14086,3.10191 -0.53994,1.54889 -1.76002,1.67138 -3.8791,0.38946 -0.8223,-0.49744 -1.89408,-0.9858 -2.38173,-1.08523 -1.30066,-0.26521 -3.05902,0.33097 -4.36394,1.47961 -1.29888,1.14333 -2.18365,1.44029 -2.9515,0.99064 z m 7.8052,-7.45896 c 0,-0.49114 0.0702,-1.24393 0.15598,-1.67288 l 0.15599,-0.77991 -1.75081,0.40465 c -1.27469,0.29461 -1.71283,0.50358 -1.61119,0.76847 0.0768,0.20011 0.13962,0.77081 0.13962,1.26823 v 0.9044 h 1.4552 1.45521 z m -73.121604,0.34459 c -0.623943,-0.49079 -0.697139,-0.72692 -0.697139,-2.24895 v -1.70059 H 51.51885 c -1.845209,0 -2.813806,-0.68969 -2.813806,-2.00358 0,-1.41761 0.737216,-1.96517 2.645833,-1.96517 h 1.5875 l 0.0039,-1.12448 c 0.0048,-1.38371 0.449783,-2.31048 1.35268,-2.81727 0.573605,-0.32195 0.823044,-0.32971 1.50603,-0.0468 0.936116,0.38775 1.365893,1.40949 1.288184,3.06251 l -0.04975,1.05833 1.455209,0.0822 c 1.765204,0.0998 2.645833,0.77688 2.645833,2.03444 0,1.31453 -0.910146,1.98437 -2.696269,1.98437 h -1.471538 l -0.124394,1.50004 c -0.100869,1.21634 -0.259976,1.61666 -0.841268,2.11667 -0.884241,0.76059 -1.469885,0.77744 -2.371475,0.0683 z m 16.017731,-16.46816 c -0.793766,-0.84492 -0.72041,-1.75373 0.249645,-3.09286 2.392112,-3.30221 2.38429,-6.01575 -0.02577,-8.93956 -1.036874,-1.25791 -1.074622,-2.44596 -0.102024,-3.21101 0.978746,-0.76988 1.622236,-0.68846 3.140164,0.3973 1.798633,1.28656 2.870904,1.70017 4.407632,1.70017 1.42027,0 2.930592,-0.64143 4.449201,-1.88955 1.143537,-0.93986 2.191021,-0.97643 3.060597,-0.10686 0.924273,0.92428 0.81714,1.56876 -0.607339,3.65355 -1.234166,1.80627 -1.25677,1.8764 -1.25677,3.89911 0,2.0227 0.0226,2.09283 1.25677,3.8991 1.424479,2.08479 1.531612,2.72927 0.607339,3.65355 -0.898746,0.89874 -1.617538,0.81566 -3.396127,-0.39254 -1.969112,-1.33762 -3.083082,-1.69259 -4.851504,-1.54593 -1.159644,0.0962 -1.77048,0.35156 -3.236449,1.35322 -2.02094,1.38084 -2.851382,1.52069 -3.695365,0.62231 z m 9.082003,-7.59412 v -1.45962 h -1.494895 -1.494896 v 1.45962 1.45961 h 1.494896 1.494895 z"
       id="path1" /></g></svg>
