<?xml version="1.0" encoding="UTF-8" standalone="no"?>
<!-- Created with Inkscape (http://www.inkscape.org/) -->

<svg
   width="123.05347mm"
   height="121.3273mm"
   viewBox="0 0 123.05347 121.3273"
   version="1.1"
   id="svg1"
   xml:space="preserve"
   inkscape:version="1.3 (0e150ed6c4, 2023-07-21)"
   sodipodi:docname="contact.svg"
   xmlns:inkscape="http://www.inkscape.org/namespaces/inkscape"
   xmlns:sodipodi="http://sodipodi.sourceforge.net/DTD/sodipodi-0.dtd"
   xmlns="http://www.w3.org/2000/svg"
   xmlns:svg="http://www.w3.org/2000/svg"><sodipodi:namedview
     id="namedview1"
     pagecolor="#ffffff"
     bordercolor="#000000"
     borderopacity="0.25"
     inkscape:showpageshadow="2"
     inkscape:pageopacity="0.0"
     inkscape:pagecheckerboard="0"
     inkscape:deskcolor="#d1d1d1"
     inkscape:document-units="mm"
     inkscape:zoom="1.4342733"
     inkscape:cx="233.91637"
     inkscape:cy="180.92786"
     inkscape:window-width="1920"
     inkscape:window-height="1011"
     inkscape:window-x="0"
     inkscape:window-y="32"
     inkscape:window-maximized="1"
     inkscape:current-layer="layer1" /><defs
     id="defs1" /><g
     inkscape:label="Layer 1"
     inkscape:groupmode="layer"
     id="layer1"
     transform="translate(-48.270564,-71.451274)"><path
       style="fill:#1a1a1a;stroke:#000000;stroke-opacity:1"
       d="m 108.12723,191.97771 c -4.17675,-0.8684 -14.284807,-4.81638 -19.903311,-7.77379 -9.821504,-5.16974 -21.561901,-16.13211 -28.518718,-26.6288 -4.69672,-7.08658 -9.8644,-19.91767 -10.762563,-26.72292 -0.765948,-5.80347 1.058093,-12.23298 4.965568,-17.50299 1.695205,-2.28633 2.97493,-3.42532 4.980132,-4.43248 2.041118,-1.02519 5.839161,-2.02765 8.301207,-2.19102 2.662555,-0.17668 3.81022,0.1893 4.837734,1.54269 0.89288,1.17606 9.106884,16.09308 9.886084,17.9536 1.244485,2.97148 0.682852,4.55323 -2.603078,7.33114 -1.209376,1.0224 -3.249127,2.86209 -4.532778,4.0882 -2.702029,2.58089 -2.669546,2.37074 -0.913632,5.91086 2.96507,5.97792 6.864729,11.10267 11.960011,15.7173 4.690536,4.24806 11.267408,8.31739 14.739174,9.11962 0.60844,0.14059 0.95083,-0.10026 2.68226,-1.88684 1.09164,-1.1264 3.04648,-3.23862 4.3441,-4.69383 4.06139,-4.55462 4.02822,-4.55855 15.76156,1.86447 9.20373,5.03826 10.04339,5.56945 10.64613,6.73503 0.94887,1.83491 0.0747,7.7564 -1.70706,11.56404 -1.84332,3.93907 -6.61784,7.41004 -13.06787,9.50003 -1.80144,0.58373 -2.74979,0.71428 -5.73055,0.78893 -2.37688,0.0595 -4.17158,-0.0352 -5.3644,-0.28324 z m 9.32066,-4.12213 c 4.96463,-1.37576 9.77466,-4.51263 11.21222,-7.31205 0.62177,-1.21079 1.6869,-4.86513 1.87637,-6.4376 0.16435,-1.36399 0.12702,-1.50743 -0.56306,-2.16331 -0.4065,-0.38634 -1.81065,-1.37337 -3.12034,-2.19338 -2.59625,-1.62556 -13.66982,-7.27933 -14.2574,-7.27933 -0.19997,0 -1.43917,1.22039 -2.75378,2.71198 -4.52524,5.13444 -6.50482,7.01299 -7.74088,7.34583 -1.64872,0.44395 -2.631832,0.16272 -6.585417,-1.88383 C 84.37585,164.87746 76.237397,156.7731 70.504655,145.7377 c -3.123356,-6.01239 -3.066591,-6.41689 1.526305,-10.87629 1.775607,-1.724 3.972516,-3.73908 4.882022,-4.47797 0.909505,-0.73888 1.653645,-1.55206 1.653645,-1.80707 0,-0.79432 -5.953475,-11.90521 -8.537693,-15.93377 l -1.346963,-2.0998 -1.7384,0.14783 c -2.245637,0.19095 -5.700756,1.29109 -7.184533,2.28761 -2.159455,1.4503 -4.877143,5.75432 -6.357719,10.06876 -0.898386,2.61791 -0.852469,7.12927 0.10988,10.79578 1.21418,4.62599 4.947115,13.79886 7.348033,18.05618 5.668948,10.05221 16.863343,21.47008 27.046022,27.58594 4.703382,2.82492 13.868686,6.66876 19.368666,8.12302 3.71234,0.9816 7.21757,1.06692 10.17397,0.24766 z m 7.489,-43.90836 c -3.89478,-0.40623 -9.46039,-2.10545 -12.10672,-3.69626 l -0.79375,-0.47715 -7.01045,2.10042 c -7.54578,2.26082 -7.711065,2.27799 -8.616926,0.89548 -0.428166,-0.65347 -0.376003,-0.88699 1.687872,-7.5562 l 2.129694,-6.88189 -1.314379,-2.75153 c -4.423384,-9.25995 -3.956928,-20.35646 1.229819,-29.25601 6.91613,-11.866883 20.97035,-18.154063 34.51624,-15.4409 14.18852,2.841876 24.56586,14.276766 25.91927,28.56068 1.31714,13.90114 -6.91138,27.03125 -20.29427,32.3832 -4.54196,1.81638 -10.44285,2.63161 -15.3464,2.12016 z m 6.5464,-3.96459 c 3.43189,-0.3936 6.19231,-1.20679 9.39271,-2.76699 7.88278,-3.84287 13.13546,-10.43046 15.26214,-19.14085 0.70793,-2.8995 0.77003,-8.44693 0.1269,-11.33632 -2.41684,-10.858209 -10.11099,-18.804696 -21.03273,-21.722493 -2.26065,-0.603945 -3.06646,-0.68349 -6.92402,-0.68349 -3.84719,0 -4.66643,0.0804 -6.89868,0.677062 -3.55568,0.950396 -6.16179,2.094485 -8.93966,3.924522 -9.61631,6.335148 -14.382952,17.737059 -12.06423,28.857909 0.53988,2.58935 1.35551,4.81447 2.79909,7.63627 l 1.28589,2.51354 -1.68889,5.42395 c -0.92889,2.98318 -1.66791,5.44778 -1.64227,5.47689 0.0256,0.0291 2.4239,-0.65464 5.32946,-1.51944 2.90556,-0.86481 5.48131,-1.57323 5.72389,-1.57428 0.24258,-0.001 1.67133,0.59098 3.175,1.31564 5.40838,2.60642 10.60235,3.54809 16.0954,2.91808 z m -16.54848,-15.20382 c -0.35719,-0.35718 -0.64943,-0.95791 -0.64943,-1.33494 0,-0.37703 0.29224,-0.97776 0.64943,-1.33494 l 0.64943,-0.64943 h 12.33254 c 8.18697,0 12.50884,0.0943 12.85699,0.28067 1.27124,0.68034 1.12681,2.93335 -0.2209,3.44575 -0.35233,0.13396 -6.07786,0.24233 -12.803,0.24233 h -12.16563 z m -0.10106,-11.1602 c -0.89192,-1.13389 -0.68614,-2.25621 0.52888,-2.88452 0.62444,-0.32291 2.72281,-0.38709 12.65549,-0.38709 8.16283,0 12.10967,0.0924 12.55167,0.29376 0.64595,0.29431 1.23225,1.23624 1.23225,1.97967 0,0.21805 -0.29224,0.6887 -0.64943,1.04588 l -0.64943,0.64944 h -12.56053 -12.56053 z m 0.64225,-10.4563 c -1.28998,-0.70557 -1.53398,-1.83244 -0.64225,-2.96609 l 0.54837,-0.69714 h 12.66159 12.66159 l 0.54837,0.69714 c 0.7465,0.94901 0.68931,1.58388 -0.22503,2.49821 l -0.77339,0.7734 -12.12504,-0.008 c -8.26397,-0.005 -12.29355,-0.10021 -12.65421,-0.29747 z"
       id="path1" /><path
       d="m 84.531713,98.025488 c -0.61459,-0.6146 -0.66156,-0.80838 -0.50315,-2.076244 0.27164,-2.17411 -0.22581,-3.67764 -1.62394,-4.90833 -0.64645,-0.56902 -1.49957,-1.1058 -1.89584,-1.19283 -0.39626,-0.087 -1.10262,-0.39064 -1.56968,-0.67468 -0.72002,-0.43787 -0.84921,-0.6718 -0.84921,-1.53765 0,-1.36733 0.70114,-1.99773 2.1584,-1.94062 1.84334,0.0722 2.97653,-0.3886 4.18832,-1.70324 1.35797,-1.47323 2.60831,-4.12065 3.58634,-7.59361 0.62846,-2.23163 0.83527,-2.64784 1.4818,-2.98217 0.9433,-0.4878 1.97604,-0.2511 2.51883,0.57731 0.34843,0.53176 0.3671,0.95149 0.12511,2.81177 -0.56081,4.31115 -0.58542,4.85893 -0.30579,6.80521 0.39332,2.73747 1.1888,4.01548 3.0464,4.89426 1.69397,0.80138 2.35302,1.62865 2.10013,2.63622 -0.28554,1.1377 -1.05776,1.47706 -3.36114,1.47706 -1.29089,0 -2.35017,0.14439 -2.81227,0.38335 -1.1369,0.58792 -2.30114,2.07064 -2.79619,3.561114 -0.71377,2.14896 -2.1851,2.7661 -3.48812,1.46308 z m 4.89992,-8.756694 c 0.0789,-0.052 -0.97293,-2.88511 -1.19982,-3.23179 -0.0355,-0.0542 -0.61491,0.45173 -1.28757,1.12439 l -1.22303,1.22302 0.7484,1.15009 0.7484,1.15008 1.05833,-0.67596 c 0.58209,-0.37178 1.10196,-0.7047 1.15529,-0.73983 z m -18.99546,-6.60841 c -0.65581,-0.83374 -0.66645,-1.01831 -0.14405,-2.49896 0.22238,-0.63028 0.34774,-1.29343 0.27857,-1.47366 -0.0692,-0.18024 -0.60637,-0.4717 -1.19381,-0.6477 -1.32458,-0.39686 -1.95852,-1.07018 -1.95852,-2.08019 0,-1.69869 1.29949,-2.31931 3.36693,-1.60801 l 1.44793,0.49816 0.4138,-1.21442 c 0.55716,-1.63518 1.10436,-2.18433 2.17658,-2.18433 1.74354,0 2.39119,1.50942 1.53099,3.56816 -0.2268,0.54282 -0.346,1.05332 -0.26488,1.13444 0.0811,0.0811 0.76987,0.39568 1.53055,0.69901 1.57124,0.62656 2.08149,1.47557 1.64047,2.72961 -0.3475,0.9881 -1.38969,1.32194 -2.88136,0.92299 -0.64299,-0.17198 -1.31571,-0.34476 -1.49495,-0.38397 -0.17923,-0.0392 -0.51413,0.42283 -0.74422,1.02674 -0.5966,1.56592 -1.26341,2.20927 -2.28983,2.20927 -0.62023,0 -1.02137,-0.19775 -1.4142,-0.69714 z m 91.911297,2.746886 c -0.65581,-0.83374 -0.66645,-1.01831 -0.14405,-2.49896 0.22238,-0.63028 0.34774,-1.29343 0.27857,-1.47366 -0.0692,-0.18024 -0.60637,-0.4717 -1.19381,-0.6477 -1.32458,-0.39686 -1.95852,-1.07018 -1.95852,-2.08019 0,-1.69869 1.29949,-2.31931 3.36693,-1.60801 l 1.44793,0.49816 0.4138,-1.21442 c 0.55716,-1.63518 1.10436,-2.18433 2.17658,-2.18433 1.74354,0 2.39119,1.50942 1.53099,3.56816 -0.2268,0.54282 -0.346,1.05332 -0.26488,1.13444 0.0811,0.0811 0.76987,0.39568 1.53055,0.69901 1.57124,0.62656 2.08149,1.47557 1.64047,2.72961 -0.3475,0.9881 -1.38969,1.32194 -2.88136,0.92299 -0.64299,-0.17198 -1.31571,-0.34476 -1.49495,-0.38397 -0.17923,-0.0392 -0.51413,0.42283 -0.74422,1.02674 -0.5966,1.56592 -1.26341,2.20927 -2.28983,2.20927 -0.62023,0 -1.02137,-0.19775 -1.4142,-0.69714 z"
       style="fill:#000000"
       id="path1-2"
       sodipodi:nodetypes="ssccsscssscscscssssccscccscccccssccssscscccscsscssscsssssssssss" /><path
       d="m 149.8227,165.06404 c -0.61459,-0.6146 -0.66156,-0.80838 -0.50315,-2.07624 0.27164,-2.17411 -0.22581,-3.67764 -1.62394,-4.90833 -0.64645,-0.56902 -1.49957,-1.1058 -1.89584,-1.19284 -0.39626,-0.087 -1.10262,-0.39063 -1.56968,-0.67467 -0.72002,-0.43787 -0.84921,-0.6718 -0.84921,-1.53765 0,-1.36733 0.70114,-1.99774 2.1584,-1.94063 1.84334,0.0722 2.97653,-0.3886 4.18832,-1.70324 1.35797,-1.47323 2.60831,-4.12065 3.58634,-7.59361 0.62846,-2.23163 0.83527,-2.64784 1.4818,-2.98217 0.9433,-0.4878 1.97604,-0.2511 2.51883,0.57731 0.34843,0.53176 0.3671,0.95149 0.12511,2.81177 -0.56081,4.31115 -0.58542,4.85893 -0.30579,6.80521 0.39332,2.73748 1.1888,4.01549 3.0464,4.89427 1.69397,0.80138 2.35302,1.62865 2.10013,2.63622 -0.28554,1.1377 -1.05776,1.47706 -3.36114,1.47706 -1.29089,0 -2.35017,0.14439 -2.81227,0.38335 -1.1369,0.58792 -2.30114,2.07064 -2.79619,3.56111 -0.71377,2.14896 -2.1851,2.7661 -3.48812,1.46308 z m 4.89992,-8.75669 c 0.0789,-0.052 -0.97293,-2.88511 -1.19982,-3.2318 -0.0355,-0.0542 -0.61491,0.45174 -1.28757,1.1244 l -1.22303,1.22302 0.7484,1.15009 0.7484,1.15007 1.05833,-0.67595 c 0.58209,-0.37178 1.10196,-0.7047 1.15529,-0.73983 z"
       style="fill:#000000"
       id="path1-7" /></g></svg>
