<?xml version="1.0" encoding="UTF-8" standalone="no"?>
<!-- Created with Inkscape (http://www.inkscape.org/) -->

<svg
   width="113.33468mm"
   height="131.81596mm"
   viewBox="0 0 113.33468 131.81596"
   version="1.1"
   id="svg1"
   xml:space="preserve"
   inkscape:version="1.3 (0e150ed6c4, 2023-07-21)"
   sodipodi:docname="easy.svg"
   xmlns:inkscape="http://www.inkscape.org/namespaces/inkscape"
   xmlns:sodipodi="http://sodipodi.sourceforge.net/DTD/sodipodi-0.dtd"
   xmlns="http://www.w3.org/2000/svg"
   xmlns:svg="http://www.w3.org/2000/svg"><sodipodi:namedview
     id="namedview1"
     pagecolor="#ffffff"
     bordercolor="#000000"
     borderopacity="0.25"
     inkscape:showpageshadow="2"
     inkscape:pageopacity="0.0"
     inkscape:pagecheckerboard="0"
     inkscape:deskcolor="#d1d1d1"
     inkscape:document-units="mm"
     inkscape:zoom="1.0141844"
     inkscape:cx="210.02099"
     inkscape:cy="294.32518"
     inkscape:window-width="1920"
     inkscape:window-height="1011"
     inkscape:window-x="0"
     inkscape:window-y="32"
     inkscape:window-maximized="1"
     inkscape:current-layer="layer1" /><defs
     id="defs1" /><g
     inkscape:label="Layer 1"
     inkscape:groupmode="layer"
     id="layer1"
     transform="translate(-49.658999,-70.421815)"><path
       style="fill:#1a1a1a;stroke:#000000;stroke-width:0.5;stroke-dasharray:none;stroke-opacity:1"
       d="m 119.02048,201.67163 c -0.24566,-0.1819 -0.97002,-1.58088 -1.60968,-3.10885 -1.3761,-3.28708 -0.90351,-2.93397 -8.36356,-6.24906 -6.70534,-2.97971 -8.39898,-3.83174 -11.088743,-5.57846 -3.848062,-2.49892 -6.778734,-5.64983 -10.408981,-11.19123 -2.117042,-3.23156 -4.999793,-8.44038 -5.548881,-10.02622 -0.181673,-0.52469 -0.846592,-1.77227 -1.477598,-2.77239 -0.631006,-1.00012 -1.747698,-2.96272 -2.481539,-4.36134 -1.324245,-2.52385 -1.333319,-2.55785 -1.209342,-4.53159 0.127858,-2.03554 1.69241,-7.29985 3.400734,-11.44257 0.577556,-1.40059 0.752612,-2.17402 0.644809,-2.8489 -0.306365,-1.91791 -0.663029,-8.51062 -0.684235,-12.64767 -0.02065,-4.02795 0.01819,-4.37945 0.631997,-5.72018 0.394252,-0.86116 1.453544,-2.2654 2.667133,-3.53565 l 2.013136,-2.10712 0.611918,-10.18222 c 0.666474,-11.090028 0.691833,-11.223068 2.378588,-12.478788 0.601994,-0.44816 1.118327,-0.554631 2.645833,-0.54559 1.592089,0.0094 2.153655,0.143506 3.485376,0.832182 2.720073,1.406638 4.775043,3.850788 5.591195,6.650083 l 0.41054,1.408083 2.97786,-2.909842 c 2.37938,-2.325031 3.17725,-2.947246 3.96997,-3.095961 1.49354,-0.28019 3.02288,0.289036 4.24836,1.581247 1.02543,1.081278 1.09123,1.108238 2.11667,0.867251 0.58208,-0.136795 2.30848,-0.263641 3.83645,-0.281878 3.04314,-0.03632 3.9577,0.252778 5.00283,1.581439 1.06971,1.359914 1.14664,2.394014 0.41819,5.621004 -0.9753,4.32053 -1.7564,9.18751 -1.79079,11.1582 -0.0223,1.27862 0.11901,2.03451 0.5441,2.91042 0.38661,0.79663 3.43493,4.1149 9.33003,10.15627 8.58747,8.80054 10.3699,10.8594 11.70177,13.51652 0.99126,1.97759 3.0638,11.29745 4.07031,18.30344 0.35072,2.44127 0.46118,5.36368 0.50325,13.31427 0.0423,7.99494 0.14703,10.74591 0.48673,12.78685 0.56121,3.37171 1.57711,6.40982 2.8479,8.51682 1.14306,1.89521 1.28774,3.03177 0.48776,3.83174 -0.79657,0.79658 -2.02176,0.68672 -2.90672,-0.26062 -1.12296,-1.20214 -2.82099,-4.87056 -3.55344,-7.67687 -1.14212,-4.3759 -1.28907,-6.21951 -1.34975,-16.93334 -0.0495,-8.74421 -0.13551,-10.71091 -0.60729,-13.89062 -0.98467,-6.63659 -2.86635,-15.06183 -3.75127,-16.79643 -0.88284,-1.73051 -2.42698,-3.4439 -11.21116,-12.44003 -9.22136,-9.44385 -9.83666,-10.22863 -10.49103,-13.38073 -0.36558,-1.76099 0.11698,-6.02616 1.35578,-11.98306 0.43625,-2.0978 0.72571,-3.99 0.64325,-4.20491 -0.12307,-0.3207 -0.51686,-0.35785 -2.19697,-0.20729 -3.28933,0.29476 -3.09238,0.14983 -3.43947,2.53117 -0.38289,2.62706 -1.50508,5.34216 -3.56721,8.63078 -0.88773,1.41572 -1.69596,3.04737 -1.80486,3.64362 -0.37931,2.07685 -0.57217,5.71934 -0.39194,7.40232 l 0.18176,1.69725 1.85327,0.18612 c 3.111,0.31243 8.5734,3.27685 12.54062,6.80575 2.34324,2.08434 3.02064,2.90012 3.45497,4.16076 0.39646,1.15074 0.14096,2.49183 -0.66417,3.48611 -0.49173,0.60726 -0.49038,0.61046 0.91423,2.1626 2.95675,3.26731 2.9852,5.15854 0.12139,8.06789 -1.98825,2.01985 -3.30989,2.5405 -6.48311,2.55395 -3.18817,0.0135 -4.73692,-0.45191 -6.96722,-2.09377 l -1.54407,-1.13668 -4.58786,0.0444 -4.58785,0.0444 -0.86771,2.58816 c -1.24676,3.71881 -2.021776,6.99163 -1.833383,7.74224 0.08961,0.35702 0.814283,1.35764 1.610403,2.22362 0.79611,0.86597 1.44748,1.82281 1.44748,2.12631 0,0.3035 -0.36018,0.912 -0.80041,1.35223 -0.63675,0.63675 -0.94248,0.76475 -1.49524,0.62602 -1.035703,-0.25995 -2.853878,-1.86076 -3.815557,-3.3594 -1.531249,-2.38625 -1.389262,-4.25174 0.872949,-11.46919 1.761259,-5.6192 1.771581,-5.64429 2.40485,-5.84528 0.302098,-0.0959 3.451998,-0.16861 6.999778,-0.16161 l 6.45051,0.0127 1.31175,1.22698 c 0.72146,0.67484 1.71715,1.39637 2.21266,1.60341 1.3819,0.5774 3.63631,0.76191 4.76357,0.38988 1.21087,-0.39962 2.79098,-1.74664 2.79098,-2.37926 0,-0.58294 -3.37324,-3.81573 -5.4565,-5.22931 -2.97162,-2.01636 -5.21093,-2.979 -6.92982,-2.979 -3.74741,0 -15.82344,1.49363 -16.938768,2.09509 -0.926014,0.49936 -1.659397,1.59142 -3.039647,4.52626 -2.5398,5.40039 -4.938633,12.00823 -6.039086,16.63529 l -0.528521,2.22226 1.300625,2.67253 c 2.269527,4.66342 5.764528,10.02022 8.748015,13.40809 2.509071,2.84915 6.104272,5.04115 14.213082,8.66574 3.33941,1.49269 6.88997,3.15539 7.89012,3.69488 l 1.81847,0.9809 1.29039,3.14452 c 0.70971,1.72949 1.29039,3.53655 1.29039,4.01569 0,1.48044 -1.84173,2.48843 -2.99135,1.63718 z m -35.3882,-46.7651 c 1.163269,-3.75383 3.731249,-10.09198 5.494536,-13.56133 1.523382,-2.99732 2.679928,-4.26193 4.650884,-5.08545 2.069957,-0.86488 13.18549,-2.2553 18.02973,-2.2553 2.59332,0 2.77076,0.0382 4.85169,1.04451 1.18796,0.57449 2.8342,1.47585 3.6583,2.00302 1.1288,0.72208 1.5715,0.8828 1.79483,0.65159 0.68168,-0.70574 -5.30415,-5.32408 -9.45615,-7.29585 l -2.06663,-0.98144 -4.01226,0.16681 c -4.1371,0.172 -8.408709,0.61861 -12.994894,1.35866 -3.622097,0.58449 -3.941143,0.86313 -6.237949,5.44799 -1.949531,3.89164 -3.351928,7.12323 -4.41448,10.17242 -1.211217,3.47581 -2.187028,6.87809 -2.190049,7.63588 -0.0034,0.86128 1.574452,4.00394 1.850452,3.68552 0.09959,-0.1149 0.56849,-1.45906 1.04199,-2.98703 z m 2.234433,-24.13662 c 0.555977,-0.83312 1.545556,-1.86892 2.199064,-2.30178 1.143152,-0.75719 1.88565,-0.9791 5.62923,-1.68241 l 1.713395,-0.3219 0.187586,-1.10426 c 0.302155,-1.7787 0.931041,-2.69256 3.786532,-5.50237 5.11402,-5.03221 9.47722,-11.769 10.45859,-16.14806 0.32189,-1.43635 0.0247,-2.86747 -0.81786,-3.938636 l -0.55137,-0.700946 -9.303468,9.071182 c -5.116907,4.98915 -10.245954,9.90271 -11.397882,10.91901 -1.151929,1.01631 -2.431851,2.37716 -2.844271,3.02411 -0.741373,1.16298 -0.749814,1.22283 -0.746242,5.29167 0.0035,4.0152 0.155607,5.56221 0.50383,5.12506 0.0946,-0.11876 0.626888,-0.89756 1.182866,-1.73067 z m 17.846767,-5.12723 c 0.4255,-0.0873 0.57043,-0.25459 0.46303,-0.53449 -0.086,-0.22409 -0.15635,-1.25001 -0.15635,-2.27982 v -1.87238 l -1.78594,1.69396 c -1.73206,1.64285 -2.706657,2.80289 -2.71024,3.22593 -0.0017,0.19603 2.87863,0.0357 4.1895,-0.2332 z m -7.002581,-22.16467 c -0.0494,-2.10904 -0.782912,-4.012533 -2.047492,-5.313332 -1.054018,-1.084207 -3.424921,-2.266762 -3.797547,-1.894135 -0.09785,0.09785 -0.324253,2.645119 -0.503112,5.660597 -0.17886,3.01547 -0.395973,6.49472 -0.482475,7.73164 l -0.157275,2.24896 3.510557,-3.50792 3.510556,-3.50793 z m 37.292151,72.80983 c -0.67619,-0.32691 -1.03782,-1.16881 -1.281,-2.98222 -0.42002,-3.13215 -2.48859,-7.21916 -4.98384,-9.84692 -0.89394,-0.9414 -2.63459,-2.38756 -3.86812,-3.21368 -2.61708,-1.75271 -3.07909,-2.52178 -2.21397,-3.68538 0.82525,-1.10997 2.03706,-1.09954 3.95613,0.0341 5.14708,3.04042 9.19171,8.4733 10.70076,14.37361 0.78733,3.07845 0.75991,4.26149 -0.11626,5.01514 -0.7783,0.66946 -1.29255,0.74105 -2.1937,0.30538 z m 21.82024,-27.19908 c -2.52404,-0.76085 -4.09332,-3.72027 -3.37914,-6.37253 0.4,-1.48548 2.1184,-3.24242 3.60772,-3.68863 4.25156,-1.2738 8.08047,3.21793 6.20571,7.27997 -1.11563,2.41726 -3.7969,3.57622 -6.43429,2.78119 z m 2.54984,-4.123 c 0.60376,-0.60376 0.51009,-1.36232 -0.22794,-1.84589 -1.18758,-0.77814 -2.38652,0.44495 -1.60514,1.63748 0.47196,0.72032 1.23448,0.80701 1.83308,0.20841 z M 142.50501,128.8571 c -0.89919,-0.89919 -0.81408,-1.69823 0.33846,-3.17757 l 0.9879,-1.26801 -0.97607,-0.84375 c -1.26493,-1.09344 -1.57713,-1.90907 -1.13409,-2.96276 0.61464,-1.4618 1.99106,-1.54907 3.57395,-0.2266 0.60962,0.50932 1.141,0.92604 1.18084,0.92604 0.0399,0 0.60823,-0.53578 1.26307,-1.19063 1.3995,-1.3995 2.06216,-1.48775 3.13269,-0.41722 1.02297,1.02297 0.97661,1.56783 -0.26729,3.14149 l -1.04069,1.31657 1.03829,0.8344 c 1.65893,1.33315 1.75666,3.18465 0.2026,3.83808 -1.0474,0.4404 -1.52911,0.30515 -2.80608,-0.7879 l -1.03406,-0.88512 -1.15436,1.17621 c -1.35872,1.38443 -2.29783,1.53411 -3.30516,0.52677 z m -74.184402,-6.66229 c -0.633546,-0.80542 -0.699225,-1.60999 -0.192069,-2.35284 0.195966,-0.28704 0.55777,-0.83546 0.804009,-1.21871 l 0.447707,-0.69682 -1.18442,-0.74932 c -1.76491,-1.11657 -2.141535,-2.17829 -1.198143,-3.37761 0.718271,-0.91314 1.817563,-0.91146 3.381659,0.005 l 1.198395,0.70231 0.409666,-0.63616 c 1.34684,-2.09148 2.839216,-2.65158 3.940788,-1.47901 0.78499,0.83559 0.721968,1.85723 -0.196955,3.19284 l -0.772243,1.12241 1.228893,0.90963 c 1.441777,1.06721 1.898227,2.04663 1.393408,2.9899 -0.425112,0.79433 -1.485785,1.30115 -2.229226,1.06519 -0.30879,-0.098 -1.011904,-0.4763 -1.562475,-0.84065 -0.550571,-0.36435 -1.037175,-0.61526 -1.081342,-0.55759 -0.04417,0.0577 -0.357865,0.52159 -0.697106,1.03091 -0.853454,1.28134 -1.294308,1.5875 -2.285907,1.5875 -0.609904,0 -1.014045,-0.20058 -1.404639,-0.69714 z m -9.383869,-12.34764 c -0.449598,-0.4496 -0.659509,-1.05658 -0.800628,-2.3151 -0.24566,-2.19084 -0.880037,-3.60863 -2.089971,-4.67096 -0.918502,-0.80644 -3.080826,-1.65524 -4.263069,-1.67341 -1.62042,-0.0249 -2.534655,-2.440561 -1.308726,-3.457992 0.207499,-0.172209 1.343386,-0.467799 2.524193,-0.656867 3.746964,-0.599954 5.395761,-2.146952 6.039183,-5.666314 0.43279,-2.367258 1.892908,-3.270901 3.312343,-2.049954 0.570223,0.490484 0.735995,0.940278 0.937245,2.543041 0.4457,3.549566 2.004469,5.272301 5.410971,5.980147 2.03364,0.422576 2.778124,1.023176 2.778124,2.241209 0,1.10022 -0.996638,1.85872 -2.670987,2.03276 -3.985572,0.41429 -5.660138,1.85723 -6.43273,5.54296 -0.555177,2.64852 -2.020681,3.56575 -3.435948,2.15048 z m 2.831459,-11.209459 -0.943487,-1.151401 -1.105638,0.995004 -1.105638,0.995004 0.941381,1.066142 0.941381,1.06615 1.107744,-0.90975 1.107744,-0.909747 z m 67.737422,10.095929 c -3.06147,-1.45017 -3.65211,-2.39856 -2.44751,-3.92997 0.77753,-0.98847 1.67714,-0.8976 4.59003,0.4636 3.11832,1.4572 3.72923,2.41971 2.51532,3.96296 -0.77349,0.98332 -1.75433,0.87875 -4.65784,-0.49659 z m -1.43983,-8.33306 c -0.70091,-0.409537 -1.09161,-1.645613 -0.77956,-2.466364 0.35083,-0.922745 0.93817,-1.159703 3.98601,-1.60813 2.8158,-0.414287 3.53946,-0.255773 4.19826,0.919608 0.4843,0.86405 0.22344,1.977419 -0.56336,2.404501 -0.59548,0.323229 -4.51843,1.007335 -5.75156,1.002985 -0.36381,-0.001 -0.85421,-0.11495 -1.08979,-0.2526 z m 15.25091,-5.018771 c -0.38151,-0.421557 -0.47899,-1.026819 -0.50403,-3.129625 -0.0291,-2.446048 -0.0784,-2.669104 -0.79859,-3.613106 -0.50072,-0.65637 -1.33465,-1.263258 -2.39896,-1.745838 -1.92477,-0.872735 -2.34546,-1.309282 -2.3144,-2.401639 0.0383,-1.345886 0.69422,-1.815464 2.54534,-1.822135 3.6626,-0.0132 5.72434,-2.236781 7.84504,-8.460855 0.47104,-1.382448 1.07053,-2.741745 1.33221,-3.02066 1.21575,-1.295817 3.6664,0.05065 3.28897,1.807056 -0.53428,2.486294 -0.92981,5.539754 -0.9307,7.184852 -0.002,3.477984 0.92605,5.269681 3.30025,6.372327 1.1607,0.539067 1.64364,1.445773 1.36384,2.560589 -0.25743,1.025658 -1.04627,1.303722 -3.58308,1.263015 -1.82715,-0.02932 -2.43519,0.06371 -3.10189,0.474608 -0.97872,0.603197 -1.99023,1.909522 -2.47933,3.201962 -0.19275,0.509323 -0.52788,1.134401 -0.74475,1.389062 -0.55252,0.648808 -2.21053,0.613757 -2.81992,-0.05961 z m 5.28977,-8.870074 c -0.0549,-0.14552 -0.30451,-0.877423 -0.55469,-1.62645 l -0.45486,-1.361867 -1.26811,0.964992 c -0.69745,0.530746 -1.27488,1.043604 -1.28317,1.139685 -0.008,0.09608 0.29605,0.649882 0.6763,1.230669 l 0.69137,1.055975 1.14649,-0.56921 c 0.63058,-0.313066 1.10158,-0.688273 1.04667,-0.833794 z m -24.99684,7.490735 c -1.05906,-1.136773 -0.74677,-1.957748 1.66035,-4.364872 1.836,-1.836003 2.33922,-2.199821 3.04271,-2.199821 1.14311,0 1.90122,0.804052 1.90122,2.016446 0,0.843634 -0.24907,1.207185 -2.0846,3.042708 -1.82717,1.827175 -2.20163,2.084596 -3.0324,2.084596 -0.6343,0 -1.12624,-0.191532 -1.48728,-0.579057 z M 93.751293,89.279553 c -0.683547,-0.636821 -0.747738,-1.719644 -0.182181,-3.073211 0.53831,-1.288358 0.52525,-1.330993 -0.512635,-1.673525 -1.522642,-0.502518 -2.26549,-1.248031 -2.26549,-2.273618 0,-1.752857 1.497516,-2.417967 3.531065,-1.568297 1.301148,0.543655 1.343082,0.529301 1.739104,-0.595312 0.753779,-2.140565 2.459868,-2.868732 3.679543,-1.570447 0.676521,0.720127 0.722981,1.432411 0.178412,2.735736 -0.581464,1.391639 -0.516003,1.561595 0.794189,2.061963 1.94416,0.742479 2.49966,2.065021 1.43557,3.417795 -0.63524,0.807571 -1.54851,0.899509 -2.982699,0.300265 -1.340205,-0.559973 -1.399533,-0.534916 -1.91226,0.80764 -0.73862,1.934048 -2.284676,2.565697 -3.502618,1.431011 z"
       id="path1"
       inkscape:label="path1" /></g></svg>
