<?xml version="1.0" encoding="UTF-8" standalone="no"?>
<!-- Created with Inkscape (http://www.inkscape.org/) -->

<svg
   width="129.40138mm"
   height="120.98901mm"
   viewBox="0 0 129.40138 120.98901"
   version="1.1"
   id="svg1"
   xml:space="preserve"
   inkscape:version="1.3 (0e150ed6c4, 2023-07-21)"
   sodipodi:docname="future_updates.svg"
   xmlns:inkscape="http://www.inkscape.org/namespaces/inkscape"
   xmlns:sodipodi="http://sodipodi.sourceforge.net/DTD/sodipodi-0.dtd"
   xmlns="http://www.w3.org/2000/svg"
   xmlns:svg="http://www.w3.org/2000/svg"><sodipodi:namedview
     id="namedview1"
     pagecolor="#ffffff"
     bordercolor="#000000"
     borderopacity="0.25"
     inkscape:showpageshadow="2"
     inkscape:pageopacity="0.0"
     inkscape:pagecheckerboard="0"
     inkscape:deskcolor="#d1d1d1"
     inkscape:document-units="mm"
     inkscape:zoom="0.71713664"
     inkscape:cx="251.69541"
     inkscape:cy="243.3288"
     inkscape:window-width="1920"
     inkscape:window-height="1011"
     inkscape:window-x="0"
     inkscape:window-y="32"
     inkscape:window-maximized="1"
     inkscape:current-layer="layer1" /><defs
     id="defs1" /><g
     inkscape:label="Layer 1"
     inkscape:groupmode="layer"
     id="layer1"
     transform="translate(-38.255851,-84.250968)"><path
       style="fill:#000000"
       d="m 149.90083,204.85391 c -0.80319,-0.56258 -0.76829,-1.70779 0.0762,-2.50117 l 0.66426,-0.62403 -0.66426,-0.69334 c -1.18244,-1.2342 -0.66306,-2.91333 0.90114,-2.91333 0.40361,0 0.94934,0.23812 1.21273,0.52916 0.26339,0.29105 0.5795,0.52917 0.70247,0.52917 0.12297,0 0.4617,-0.23812 0.75274,-0.52917 1.00772,-1.00772 2.91042,-0.39816 2.91042,0.9324 0,0.27162 -0.31993,0.82779 -0.71096,1.23594 l -0.71096,0.74208 0.71096,0.74208 c 0.84514,0.88214 0.90684,1.70787 0.18179,2.43292 -0.68215,0.68215 -1.04662,0.66656 -2.16535,-0.0926 l -0.91629,-0.6218 -0.72289,0.6218 c -0.84433,0.72626 -1.40872,0.77959 -2.22201,0.20993 z m -39.59518,-3.44348 c -0.60274,-0.60273 -0.51078,-1.54738 0.23714,-2.43624 l 0.65292,-0.77595 -0.65292,-0.61339 c -0.83333,-0.78288 -0.86325,-1.93131 -0.0649,-2.49052 0.79669,-0.55802 1.2569,-0.50682 2.17259,0.24168 l 0.77625,0.63453 0.76541,-0.64404 c 0.92994,-0.7825 1.61085,-0.81632 2.3123,-0.11488 0.69977,0.69978 0.66798,1.39661 -0.10472,2.29493 l -0.63389,0.73693 0.63389,0.75333 c 0.75668,0.89927 0.81268,1.79183 0.15003,2.39151 -0.69903,0.63262 -1.71079,0.53833 -2.42919,-0.22637 l -0.62404,-0.66426 -0.69333,0.66426 c -0.78703,0.75402 -1.88299,0.86306 -2.49756,0.24848 z m -41.426191,-9.14357 c -5.626341,-0.57192 -11.940062,-2.26837 -16.432178,-4.4152 -6.074403,-2.90302 -11.229398,-7.64641 -13.615534,-12.52838 -0.705051,-1.44252 -0.715957,-1.5259 -0.285528,-2.18282 0.444357,-0.67817 1.542226,-0.92188 2.164671,-0.48051 0.150776,0.10691 0.860822,1.14688 1.577879,2.31105 1.505279,2.44387 5.076426,6.16415 7.438045,7.74867 3.237646,2.17228 7.417838,3.98416 11.678686,5.06205 4.322803,1.09357 7.606359,1.4313 14.141456,1.45451 3.808636,0.0135 6.368022,0.12615 6.518699,0.28685 0.545829,0.58214 0.579374,1.38765 0.0833,2.00027 -0.407968,0.50382 -0.863904,0.65513 -2.453521,0.81427 -2.539994,0.25427 -7.967788,0.21877 -10.815978,-0.0708 z m 70.017651,-1.03208 c -4.27676,-1.2812 -5.55565,-7.0953 -2.25048,-10.2311 3.02823,-2.87306 7.88028,-1.92523 9.655,1.88607 1.12505,2.4161 0.68626,4.88534 -1.20225,6.76562 -1.68176,1.67443 -3.95377,2.253 -6.20227,1.57941 z m 3.82293,-3.63851 c 0.63376,-0.56627 0.85623,-1.02264 0.96382,-1.97723 0.1297,-1.15063 0.0719,-1.30903 -0.7933,-2.17423 -0.71766,-0.71766 -1.1503,-0.93319 -1.87324,-0.93319 -1.88859,0 -3.08161,1.11684 -3.08161,2.88483 0,2.57075 2.88471,3.89713 4.78433,2.19982 z m -52.272636,2.48443 c -1.448104,-1.4481 -0.624217,-2.2821 3.170595,-3.20949 21.810201,-5.3301 40.731101,-18.825 48.173031,-34.35832 3.81282,-7.95839 4.14048,-15.36378 0.94959,-21.46127 -2.41583,-4.61641 -7.23036,-7.69711 -14.20939,-9.09224 -1.41365,-0.2826 -2.6721,-0.6745 -2.79655,-0.87089 -0.39572,-0.62444 -0.25224,-1.71412 0.29036,-2.20516 0.48039,-0.43475 0.69848,-0.44691 2.57969,-0.14382 5.57965,0.89896 9.85836,2.92146 13.38661,6.32769 2.28704,2.20795 3.88251,4.76727 4.96681,7.96734 0.75705,2.23429 0.865,2.92507 0.97159,6.21771 0.13801,4.26286 -0.25539,6.93687 -1.56771,10.65606 -3.50517,9.93388 -12.20817,20.21184 -23.37688,27.60735 -8.23277,5.45143 -19.27474,10.2468 -28.573401,12.40901 -1.309687,0.30454 -2.587627,0.61405 -2.839865,0.6878 -0.272005,0.0795 -0.729556,-0.13684 -1.12448,-0.53177 z M 79.763142,176.68823 c -5.133492,-0.538 -10.526311,-2.54233 -14.058683,-5.22515 -3.928512,-2.98369 -4.792456,-5.01871 -2.43733,-5.74114 0.502425,-0.15412 0.872945,0.0852 2.178718,1.4073 2.778529,2.81324 5.959186,4.57232 10.233046,5.65944 2.067377,0.52587 2.981873,0.5918 8.149523,0.58759 6.160421,-0.005 7.704412,-0.19352 13.096875,-1.59888 9.577949,-2.49617 19.400229,-8.10241 24.392629,-13.92253 2.99487,-3.49141 3.1963,-3.60544 4.34312,-2.45862 0.86394,0.86394 0.70475,1.36434 -1.13494,3.56747 -5.59744,6.70324 -15.86055,12.86 -26.410184,15.84326 -5.887517,1.6649 -13.232871,2.41784 -18.352774,1.88126 z m -24.848859,-1.1868 c -2.238563,-1.68275 -4.6704,-4.36988 -6.465207,-7.14391 -4.47153,-6.91114 -5.619537,-15.65077 -3.119186,-23.74596 0.5484,-1.77551 1.029535,-2.3166 2.059919,-2.3166 0.603156,0 1.381318,0.79201 1.381318,1.4059 0,0.241 -0.317395,1.48178 -0.705322,2.75729 -0.631753,2.0772 -0.707647,2.76066 -0.727605,6.55243 -0.01917,3.6428 0.06277,4.54459 0.58741,6.46461 1.490674,5.45539 4.491298,9.99034 8.967273,13.55257 1.856238,1.47729 2.165219,2.07768 1.551377,3.01453 -0.658393,1.00483 -1.682498,0.84792 -3.529977,-0.54086 z m 32.970422,-8.85329 c -6.902068,-1.26328 -11.183819,-4.67164 -12.811209,-10.19797 -0.53403,-1.81348 -0.622229,-6.41454 -0.145877,-7.61003 0.430084,-1.07937 1.418134,-1.44976 2.309455,-0.86574 0.699422,0.45828 0.704608,0.48461 0.52687,2.67513 -0.703845,8.67451 5.03787,13.49946 15.45718,12.98918 6.212254,-0.30425 13.541116,-2.93786 18.388536,-6.60788 8.06789,-6.10828 10.42227,-14.40576 5.10153,-17.97921 -2.27214,-1.52599 -6.19014,-2.05582 -9.46715,-1.28025 -1.77669,0.42049 -5.40102,2.14982 -6.48229,3.09299 -0.770692,0.67226 -0.774535,0.68702 -0.13229,0.50809 0.3638,-0.10135 1.34634,-0.24723 2.18342,-0.32419 2.65124,-0.24372 4.16658,0.85197 4.16658,3.01271 0,3.22741 -3.99115,6.58136 -7.805211,6.55909 -1.913804,-0.0112 -2.82685,-0.53231 -3.64713,-2.08166 -0.834882,-1.57694 -0.81044,-4.60184 0.05045,-6.24344 1.411497,-2.69154 3.809137,-4.78601 7.280651,-6.36007 4.82591,-2.18817 10.808,-2.20642 14.79436,-0.0451 1.77503,0.96237 3.71798,3.16956 4.4164,5.01702 1.0527,2.78459 0.66672,6.67687 -0.98927,9.97584 -3.57584,7.12361 -12.69527,13.22552 -22.963795,15.36533 -2.414753,0.5032 -8.39119,0.73696 -10.231211,0.40019 z m -18.91685,-1.88045 c -1.878108,-0.92966 -2.479392,-3.07395 -1.337225,-4.76881 0.726809,-1.07852 1.594432,-1.55555 2.836329,-1.55945 2.001646,-0.006 3.678227,1.94736 3.318185,3.86655 -0.227331,1.21178 -1.313271,2.41118 -2.475296,2.73393 -1.236369,0.34339 -1.05597,0.36436 -2.341993,-0.27222 z m 83.843385,-0.65961 c -0.95405,-0.66824 -0.74414,-1.63208 0.80373,-3.69046 2.47226,-3.28765 4.32291,-7.46852 5.26971,-11.90495 0.55348,-2.59348 0.41226,-8.56086 -0.26823,-11.33473 -0.76459,-3.11663 -1.90106,-5.89032 -3.49401,-8.52753 -1.42636,-2.36141 -1.56609,-2.97658 -0.82788,-3.64465 1.35173,-1.2233 2.55636,-0.11576 4.7932,4.40687 4.09368,8.27695 4.46572,17.00783 1.09695,25.74332 -1.51523,3.92912 -5.22676,9.36401 -6.39476,9.36401 -0.21487,0 -0.65529,-0.18535 -0.97871,-0.41188 z m -60.773258,-3.83903 c -5.524631,-0.92364 -8.679596,-4.47078 -8.691595,-9.77201 -0.01844,-8.14583 8.074431,-16.43537 19.899193,-20.38278 4.01058,-1.33884 7.10686,-1.86547 11.00992,-1.87264 3.98514,-0.007 6.51055,0.50198 9.29457,1.87445 3.47021,1.71075 5.7521,4.12786 7.00175,7.41667 1.1989,3.15526 1.1926,8.06325 -0.0116,9.03836 -0.77939,0.63112 -1.20851,0.61359 -1.89967,-0.0776 -0.50185,-0.50185 -0.54597,-0.75723 -0.40075,-2.31978 0.5896,-6.34378 -3.01443,-11.01662 -9.53719,-12.36555 -3.0473,-0.6302 -8.60401,-0.37585 -12.12001,0.55476 -10.521932,2.78494 -18.704163,9.63454 -20.030853,16.76845 -0.634449,3.41157 0.883516,6.27555 3.965996,7.48272 2.05772,0.80585 6.137937,0.80715 9.185693,0.003 5.163064,-1.3624 9.824304,-4.64142 11.533614,-8.11352 0.69828,-1.41842 0.80138,-1.87847 0.68987,-3.07822 -0.0721,-0.77581 -0.21441,-1.72634 -0.31621,-2.11228 -0.13891,-0.52657 -0.0466,-0.84025 0.36996,-1.25677 1.6958,-1.69581 3.41968,0.74059 3.12743,4.42008 -0.62853,7.91335 -13.21765,15.43988 -23.070098,13.7927 z M 58.569668,158.495 c -0.535267,-0.43344 -0.578381,-0.69728 -0.572865,-3.50573 0.0033,-1.67036 0.183103,-3.94829 0.399603,-5.06205 1.176765,-6.05377 4.510313,-12.72928 9.37165,-18.76697 3.637426,-4.51761 10.783333,-10.78334 16.343284,-14.33024 3.126783,-1.99469 7.768679,-4.43297 8.439318,-4.43297 0.911934,0 1.507518,0.70955 1.412359,1.68262 -0.07303,0.74684 -0.323825,0.95337 -2.726268,2.2452 -10.011785,5.3835 -19.209442,13.44276 -24.354193,21.33989 -3.793533,5.82302 -5.676013,11.56698 -5.676013,17.31905 0,2.5688 -0.0639,2.98547 -0.529167,3.45074 -0.653629,0.65363 -1.350487,0.67362 -2.107708,0.0605 z m 77.222352,-10.45503 c -2.33394,-1.57059 -1.67441,-5.21811 1.0867,-6.00998 3.41367,-0.97903 5.70656,3.33096 3.06157,5.75491 -1.18601,1.0869 -2.76763,1.18415 -4.14827,0.25507 z m -57.857857,-4.04022 c -0.829662,-0.58112 -0.741559,-1.51386 0.321073,-3.39916 5.666157,-10.05278 21.141728,-19.39742 35.976334,-21.72362 2.59929,-0.4076 2.8731,-0.40882 3.47335,-0.0155 0.78158,0.51211 0.87929,1.71896 0.1886,2.32961 -0.25466,0.22515 -1.11787,0.49243 -1.91823,0.59394 -8.52612,1.08143 -18.625809,5.23385 -25.864457,10.634 -3.17251,2.36675 -6.623917,5.97041 -8.604947,8.98453 -2.039443,3.10301 -2.436316,3.39149 -3.571723,2.59622 z M 54.796085,130.98402 c -0.22388,-0.25466 -0.652037,-0.95054 -0.951461,-1.5464 -1.166454,-2.32128 -3.301173,-3.36563 -5.74698,-2.81155 -1.302356,0.29504 -2.145349,0.0198 -2.530888,-0.82637 -0.398191,-0.87394 0.081,-1.69901 1.276973,-2.19872 1.476899,-0.61709 2.464157,-1.45813 3.046257,-2.59508 0.45196,-0.88276 0.511166,-1.35144 0.374683,-2.96603 -0.188583,-2.23093 -0.06705,-2.68429 0.808824,-3.0173 0.894815,-0.34021 1.553067,0.0797 2.223208,1.41821 0.756093,1.5102 1.994305,2.76314 3.087058,3.12378 0.569951,0.1881 1.620564,0.23116 2.843662,0.11654 1.881799,-0.17634 1.953075,-0.16144 2.385481,0.49849 0.661602,1.00973 0.323489,1.95134 -0.878797,2.44736 -1.592668,0.65708 -2.730034,1.67118 -3.287346,2.93108 -0.433563,0.98014 -0.490632,1.49119 -0.337166,3.01934 0.156146,1.55484 0.112598,1.9192 -0.281416,2.35458 -0.579122,0.63993 -1.494668,0.66338 -2.032092,0.0521 z m 0.52967,-8.37228 c -0.03979,-0.0155 -0.538759,-0.26608 -1.108829,-0.55678 -0.589711,-0.30072 -1.075056,-0.41477 -1.125958,-0.26459 -0.0492,0.14518 -0.307686,0.62115 -0.574401,1.05771 l -0.484936,0.79375 1.081727,0.55196 1.081727,0.55197 0.601503,-1.05289 c 0.330827,-0.57909 0.568952,-1.0656 0.529167,-1.08113 z M 165.0599,122.12048 c -0.22945,-0.32742 -1.01915,-1.53742 -1.7549,-2.68888 -0.73575,-1.15146 -2.16685,-2.92929 -3.18023,-3.95074 -1.57341,-1.58594 -1.83091,-1.97451 -1.76318,-2.66067 0.0542,-0.54886 0.30493,-0.92955 0.79119,-1.20118 0.67356,-0.37627 0.77322,-0.35373 1.85208,0.4188 2.41073,1.72625 6.65237,7.56343 6.65237,9.15475 0,1.44255 -1.78885,2.08163 -2.59733,0.92792 z m -25.46534,-5.88237 c -2.70059,-1.17402 -2.43965,-5.22484 0.40029,-6.21416 2.11415,-0.73648 4.18092,0.55832 4.458,2.79287 0.16662,1.34369 -0.56985,2.73207 -1.77708,3.35012 -1.07941,0.55262 -1.92862,0.57223 -3.08121,0.0712 z m -41.809374,-3.97834 c -0.723767,-0.51294 -0.79309,-1.72216 -0.132291,-2.30759 1.310812,-1.1613 12.534655,-4.70878 18.529745,-5.85663 6.37375,-1.22034 7.87685,-1.35589 15.00619,-1.35325 7.47717,0.003 10.46794,0.35648 15.56652,1.84101 6.01385,1.75103 7.5427,2.69721 6.84224,4.23456 -0.48611,1.06688 -1.34479,1.07726 -3.93051,0.0475 -12.09351,-4.81627 -29.20578,-4.00629 -46.65637,2.20838 -2.11005,0.75146 -4.015055,1.42065 -4.233336,1.48711 -0.218281,0.0664 -0.664766,-0.069 -0.992188,-0.30109 z M 68.151855,102.12005 c -0.254662,-0.26808 -0.904547,-1.02896 -1.444189,-1.69086 -1.839588,-2.256326 -4.718959,-2.933092 -7.61779,-1.79048 -1.665665,0.656544 -2.437993,0.668203 -3.001701,0.04531 -0.776196,-0.857687 -0.51495,-1.47076 1.315964,-3.088205 1.006823,-0.889436 1.962256,-2.008225 2.243147,-2.626672 0.64732,-1.425223 0.629327,-3.492395 -0.04611,-5.297667 -0.669852,-1.790339 -0.59465,-2.804209 0.238643,-3.217379 0.930424,-0.461331 1.518186,-0.176815 2.617343,1.266969 1.747085,2.294861 4.085593,3.423545 6.218113,3.001181 0.476104,-0.0943 1.48932,-0.41524 2.251591,-0.713208 1.626512,-0.635796 2.500913,-0.501904 2.934318,0.449317 0.170469,0.374138 0.309943,0.741371 0.309943,0.816072 0,0.0747 -0.931456,1.051364 -2.069903,2.170363 -1.661243,1.632863 -2.138089,2.282411 -2.415273,3.290018 -0.398691,1.449309 -0.229342,2.941047 0.528333,4.653897 0.673213,1.521914 0.653606,2.299494 -0.07078,2.806874 -0.777781,0.54478 -1.425722,0.52021 -1.991649,-0.0755 z m -1.236919,-8.886094 c 0.204233,-0.571522 0.331104,-1.079359 0.281936,-1.128527 -0.04917,-0.04917 -0.732497,-0.257665 -1.518509,-0.463326 -0.786012,-0.205662 -1.637472,-0.454704 -1.892133,-0.553427 -0.359356,-0.13931 -0.465621,-0.03988 -0.474634,0.444123 -0.01034,0.55518 -0.315329,1.543361 -0.907001,2.938724 -0.159995,0.377321 -0.05642,0.465684 0.559578,0.47741 0.415751,0.0079 1.291692,0.222891 1.946536,0.477728 L 66.101334,95.89 66.322468,95.081543 c 0.121624,-0.444652 0.388234,-1.276066 0.592468,-1.847587 z m 18.806571,6.243816 c -0.616065,-0.680744 -0.544843,-1.465096 0.215037,-2.368163 l 0.65292,-0.775951 -0.65292,-0.613386 c -0.776607,-0.729584 -0.853153,-1.845422 -0.169065,-2.464513 0.680744,-0.616065 1.465096,-0.544843 2.368163,0.215038 l 0.775951,0.65292 0.613386,-0.65292 c 0.729585,-0.776607 1.845422,-0.853154 2.464513,-0.169066 0.616065,0.680744 0.544843,1.465096 -0.215038,2.368163 l -0.652919,0.775951 0.652919,0.613387 c 0.776608,0.729584 0.853154,1.845421 0.169066,2.464513 -0.680744,0.616065 -1.465096,0.544845 -2.368163,-0.215038 l -0.775951,-0.65292 -0.613386,0.65292 c -0.729585,0.776603 -1.845422,0.853153 -2.464513,0.169065 z m 66.829633,-3.39303 c -1.92767,-0.950214 -3.20992,-3.369647 -2.84045,-5.359515 0.58815,-3.167569 3.40312,-4.947319 6.5386,-4.133986 2.24987,0.583609 3.62993,2.497848 3.64102,5.050357 0.008,1.734567 -1.09473,3.562932 -2.61583,4.338935 -1.29423,0.660271 -3.4967,0.708863 -4.72334,0.104209 z m 3.68613,-3.17558 c 0.763,-0.690511 0.64752,-2.305386 -0.21329,-2.982498 -0.79527,-0.62556 -1.13274,-0.667693 -2.03936,-0.254611 -0.62903,0.286608 -1.23225,1.232351 -1.23225,1.931967 0,0.191809 0.24677,0.662457 0.54837,1.045884 0.64982,0.826106 2.16259,0.959664 2.93653,0.259258 z"
       id="path1" /></g></svg>
