<?xml version="1.0" encoding="UTF-8" standalone="no"?>
<!-- Created with Inkscape (http://www.inkscape.org/) -->

<svg
   width="121.34709mm"
   height="129.19211mm"
   viewBox="0 0 121.34709 129.19211"
   version="1.1"
   id="svg1"
   xml:space="preserve"
   inkscape:version="1.3 (0e150ed6c4, 2023-07-21)"
   sodipodi:docname="help_human.svg"
   xmlns:inkscape="http://www.inkscape.org/namespaces/inkscape"
   xmlns:sodipodi="http://sodipodi.sourceforge.net/DTD/sodipodi-0.dtd"
   xmlns="http://www.w3.org/2000/svg"
   xmlns:svg="http://www.w3.org/2000/svg"><sodipodi:namedview
     id="namedview1"
     pagecolor="#ffffff"
     bordercolor="#000000"
     borderopacity="0.25"
     inkscape:showpageshadow="2"
     inkscape:pageopacity="0.0"
     inkscape:pagecheckerboard="0"
     inkscape:deskcolor="#d1d1d1"
     inkscape:document-units="mm"
     inkscape:zoom="1.0141844"
     inkscape:cx="4.4370631"
     inkscape:cy="199.66784"
     inkscape:window-width="1920"
     inkscape:window-height="1011"
     inkscape:window-x="0"
     inkscape:window-y="32"
     inkscape:window-maximized="1"
     inkscape:current-layer="layer1" /><defs
     id="defs1" /><g
     inkscape:label="Layer 1"
     inkscape:groupmode="layer"
     id="layer1"
     transform="translate(-51.966916,-77.508632)"><path
       style="fill:#000000"
       d="m 52.492778,206.18697 c -0.364684,-0.36468 -0.528132,-0.87869 -0.525838,-1.65364 0.0072,-2.43198 1.331777,-12.7617 1.949899,-15.20627 1.834307,-7.25438 5.314137,-12.17745 10.349897,-14.64246 2.59889,-1.27216 4.230228,-1.69759 7.958352,-2.07541 10.127056,-1.0263 21.247178,-1.02674 30.538522,-0.001 5.65431,0.6241 8.55863,1.90526 11.92219,5.25914 1.98499,1.97927 2.45048,2.63442 3.76644,5.30109 2.18209,4.42179 2.73269,6.74636 4.18183,17.65516 l 0.60553,4.5583 -0.62682,0.66722 c -0.73817,0.78575 -1.81713,0.86962 -2.62703,0.20421 -0.63879,-0.52483 -0.98187,-2.21907 -1.87211,-9.24516 -0.70489,-5.56322 -1.5596,-8.89325 -3.06685,-11.94871 -2.15685,-4.37229 -5.50124,-7.10373 -9.90193,-8.08714 -1.57681,-0.35237 -8.723053,-1.07329 -8.851943,-0.893 -0.03053,0.0427 -1.019322,1.77188 -2.19731,3.84261 l -2.141795,3.76494 1.713664,10.25665 c 1.315758,7.8751 1.650131,10.39609 1.440046,10.85718 -0.583859,1.28143 -2.539194,1.43391 -3.305895,0.2578 -0.215522,-0.3306 -1.175208,-5.3222 -2.177637,-11.32648 l -1.792294,-10.73537 2.022211,-3.55213 2.022211,-3.55213 -4.383367,-0.0727 c -2.410852,-0.04 -4.438908,-0.0172 -4.506791,0.0507 -0.06788,0.0679 0.722912,1.60305 1.757322,3.41148 1.323071,2.31309 1.879449,3.55331 1.876377,4.18262 -0.0024,0.49201 -0.771361,5.47848 -1.708799,11.08103 -1.610896,9.62745 -1.742143,10.21913 -2.391636,10.78177 -0.853714,0.73955 -1.446194,0.75143 -2.341807,0.0469 -0.513513,-0.40393 -0.69714,-0.78987 -0.69714,-1.46522 0,-0.50427 0.723581,-5.2507 1.607959,-10.54764 l 1.607959,-9.63078 -2.165249,-3.8352 -2.165249,-3.8352 -1.890106,0.13411 c -3.939684,0.27954 -7.765169,0.86524 -9.225616,1.4125 -4.012534,1.50357 -7.003706,5.03239 -8.839314,10.42814 -0.914343,2.68771 -1.330036,4.9957 -1.935088,10.74391 -0.691363,6.56821 -0.734671,6.80604 -1.351719,7.42309 -0.66638,0.66638 -1.957179,0.65914 -2.631076,-0.0148 z m 48.539012,-8.58693 c -0.35719,-0.35718 -0.64943,-0.95791 -0.64943,-1.33494 0,-0.37703 0.29224,-0.97776 0.64943,-1.33494 0.63979,-0.63979 0.71786,-0.64944 5.25599,-0.64944 4.25969,0 4.65904,0.0413 5.30369,0.54837 0.87353,0.68712 0.95581,2.10338 0.16797,2.89122 -0.49007,0.49007 -0.88194,0.52916 -5.30369,0.52916 -4.71647,0 -4.78242,-0.008 -5.42396,-0.64943 z M 85.138973,171.26229 c -6.45439,-0.94593 -12.566098,-5.91403 -16.112019,-13.09719 -1.986071,-4.02329 -2.531395,-6.1125 -2.70255,-10.35386 -0.1736,-4.30195 0.265298,-6.54864 1.921713,-9.8371 2.518009,-4.99897 6.453618,-8.3192 12.02791,-10.14721 2.190332,-0.71829 2.990773,-0.84059 6.224884,-0.95117 2.778569,-0.095 4.223839,-0.0209 5.750479,0.29482 7.644362,1.58089 13.38422,6.54011 15.76422,13.62022 0.6189,1.84113 0.68089,2.40721 0.67123,6.12951 -0.01,3.6725 -0.0846,4.34391 -0.71843,6.42516 -1.95008,6.40333 -5.79548,11.80299 -10.704213,15.03069 -2.288433,1.50475 -4.231805,2.28162 -6.934004,2.7719 -2.16879,0.3935 -3.138074,0.41483 -5.18922,0.11423 z m 4.992706,-4.09253 c 3.66426,-0.77649 7.728898,-3.68399 10.417611,-7.45189 2.39493,-3.3562 4.32471,-8.66548 4.32913,-11.91046 l 0.002,-1.36185 -3.24115,-0.11029 c -3.679439,-0.1252 -5.296261,-0.58323 -7.706853,-2.18329 l -1.46067,-0.96954 -1.799311,1.48945 c -2.06916,1.71283 -5.783691,3.63335 -8.281603,4.28183 -2.241373,0.58188 -7.065268,0.56429 -9.883404,-0.0361 -1.143008,-0.24348 -2.146018,-0.37488 -2.228911,-0.29199 -0.244372,0.24437 0.6407,3.91959 1.415432,5.87751 2.589788,6.54497 7.719015,11.47288 13.177227,12.66005 2.125646,0.46233 3.103953,0.46354 5.260642,0.007 z m -9.459106,-21.96127 c 3.429584,-0.65618 5.894387,-2.02281 9.096756,-5.04377 2.400606,-2.26461 2.770787,-2.29536 4.926094,-0.4093 0.818183,0.71597 2.005349,1.54513 2.638145,1.84258 1.488089,0.69949 4.036242,1.10378 5.708532,0.90572 1.52841,-0.18102 1.52639,-0.14493 0.16703,-2.99174 -1.12012,-2.34581 -4.151196,-5.36956 -6.716018,-6.69979 -5.27568,-2.73619 -12.275168,-2.78582 -17.74227,-0.12578 -3.489675,1.69792 -7.079248,5.9553 -7.991351,9.47808 -0.168599,0.65117 -0.365367,1.38712 -0.437263,1.63545 -0.102806,0.3551 0.171117,0.53926 1.282816,0.86244 3.195784,0.92904 6.139529,1.10633 9.067529,0.54611 z M 116.393,140.48026 c -0.29807,-0.45491 -0.45078,-1.71108 -0.57552,-4.73412 l -0.16979,-4.1149 -3.73006,-0.10303 c -3.34193,-0.0923 -3.88149,-0.17443 -5.18527,-0.78917 -3.23078,-1.52329 -5.07964,-4.11954 -5.57969,-7.83519 -0.1799,-1.33678 -0.24786,-6.53806 -0.18613,-14.24608 0.0954,-11.906988 0.10885,-12.169837 0.70124,-13.661052 0.78989,-1.98835 2.75091,-4.113883 4.71088,-5.106081 l 1.54432,-0.781782 h 22.09271 22.09271 l 1.6585,0.899346 c 1.90785,1.034564 3.17062,2.326504 4.21921,4.316675 l 0.73687,1.398562 v 14.419792 14.41979 l -0.70648,1.5072 c -0.89976,1.91952 -2.59616,3.61592 -4.5996,4.59959 l -1.57309,0.77238 -7.8052,0.13229 -7.80521,0.13229 -8.79342,4.69635 c -9.42594,5.03418 -10.22635,5.32959 -11.04698,4.07714 z m 11.57527,-8.77349 7.7558,-4.10104 h 7.41261 c 7.40227,0 7.41449,-9.4e-4 8.75756,-0.67022 0.84012,-0.41865 1.62929,-1.08042 2.10247,-1.76305 l 0.75752,-1.09284 0.0805,-13.25205 c 0.0543,-8.94562 -0.0124,-13.570598 -0.20548,-14.232312 -0.38567,-1.322007 -1.47872,-2.564039 -2.77447,-3.152617 -1.00806,-0.457898 -2.26295,-0.486039 -21.91835,-0.491517 -18.68477,-0.0052 -20.93698,0.0386 -21.69584,0.422014 -1.2009,0.606757 -2.00155,1.394288 -2.65844,2.614884 -0.56132,1.043023 -0.56956,1.249712 -0.56956,14.287498 v 13.22917 l 0.74223,1.26269 c 0.40822,0.69448 1.23242,1.58745 1.83155,1.98438 1.06747,0.70719 1.18977,0.72433 6.09492,0.85397 6.33985,0.16755 6.01567,-0.0907 6.01567,4.79181 0,2.03698 0.1038,3.41027 0.25777,3.41027 0.14177,0 3.74787,-1.84547 8.01356,-4.10104 z m -13.23954,-12.18584 c -0.79863,-0.55938 -0.8162,-2.21004 -0.0311,-2.92055 0.52804,-0.47787 1.10326,-0.50403 11.08472,-0.50403 9.98145,0 10.55668,0.0262 11.08472,0.50403 0.72675,0.6577 0.74095,2.0901 0.0278,2.80327 -0.51143,0.51142 -0.88195,0.52916 -11.05363,0.52916 -9.09724,0 -10.60421,-0.0559 -11.1125,-0.41188 z m 0.1091,-7.8094 c -0.87353,-0.68712 -0.95581,-2.10338 -0.16797,-2.89122 0.51689,-0.51689 0.88194,-0.52916 15.74271,-0.52916 14.86076,0 15.22581,0.0123 15.7427,0.52916 0.78784,0.78784 0.70556,2.2041 -0.16797,2.89122 -0.6865,0.54 -0.9241,0.54837 -15.57473,0.54837 -14.65064,0 -14.88823,-0.008 -15.57474,-0.54837 z m -0.16797,-7.9183 c -0.71317,-0.71317 -0.69898,-2.14556 0.0278,-2.80326 0.53404,-0.48331 1.18024,-0.50403 15.71493,-0.50403 14.53468,0 15.18088,0.0207 15.71493,0.50403 0.72675,0.6577 0.74094,2.09009 0.0278,2.80326 -0.51689,0.5169 -0.88194,0.52917 -15.7427,0.52917 -14.86077,0 -15.22582,-0.0123 -15.74271,-0.52917 z"
       id="path2" /><path
       d="m 83.153873,104.08284 c -0.61459,-0.6146 -0.66156,-0.80838 -0.50315,-2.07624 0.27164,-2.174113 -0.22581,-3.677643 -1.62394,-4.908333 -0.64645,-0.56902 -1.49957,-1.1058 -1.89584,-1.19283 -0.39626,-0.087 -1.10262,-0.39064 -1.56968,-0.67468 -0.72002,-0.43787 -0.84921,-0.6718 -0.84921,-1.537647 0,-1.36732 0.70114,-1.99772 2.1584,-1.94062 1.84334,0.0722 2.97653,-0.3886 4.18832,-1.70324 1.35797,-1.47323 2.60831,-4.12065 3.58634,-7.59361 0.62846,-2.23162 0.83527,-2.64784 1.4818,-2.982172 0.9433,-0.487797 1.97604,-0.251095 2.51883,0.577312 0.34843,0.53176 0.3671,0.9515 0.12511,2.81177 -0.56081,4.31115 -0.58542,4.85893 -0.30579,6.80521 0.39332,2.73747 1.1888,4.01548 3.0464,4.894257 1.69397,0.80138 2.35302,1.62865 2.10013,2.63622 -0.28554,1.1377 -1.05776,1.47706 -3.36114,1.47706 -1.29089,0 -2.35017,0.14439 -2.81227,0.38335 -1.1369,0.58792 -2.30114,2.070643 -2.79619,3.561113 -0.71377,2.14896 -2.1851,2.7661 -3.48812,1.46308 z m 4.89992,-8.756693 c 0.0789,-0.052 -0.97293,-2.885107 -1.19982,-3.231777 -0.0355,-0.0542 -0.61491,0.45172 -1.28757,1.12438 l -1.22303,1.22302 0.7484,1.150087 0.7484,1.15008 1.05833,-0.67596 c 0.58209,-0.37178 1.10196,-0.7047 1.15529,-0.73983 z M 69.058333,88.71774 c -0.65581,-0.83373 -0.66645,-1.01831 -0.14405,-2.49896 0.22238,-0.63028 0.34774,-1.29343 0.27857,-1.47366 -0.0692,-0.18024 -0.60637,-0.4717 -1.19381,-0.6477 -1.32458,-0.39685 -1.95852,-1.07017 -1.95852,-2.08019 0,-1.69869 1.29949,-2.31931 3.36693,-1.608 l 1.44793,0.49816 0.4138,-1.21443 c 0.55716,-1.63518 1.10436,-2.184328 2.17658,-2.184328 1.74354,0 2.39119,1.509424 1.53099,3.568158 -0.2268,0.54282 -0.346,1.05332 -0.26488,1.13444 0.0811,0.0811 0.76987,0.39568 1.53055,0.69901 1.57124,0.62656 2.08149,1.47557 1.64047,2.72961 -0.3475,0.9881 -1.38969,1.32195 -2.88136,0.92299 -0.64299,-0.17198 -1.31571,-0.34476 -1.49495,-0.38397 -0.17923,-0.0392 -0.51413,0.42283 -0.74422,1.02674 -0.5966,1.56592 -1.26341,2.20927 -2.28983,2.20927 -0.62023,0 -1.02137,-0.19775 -1.4142,-0.69714 z"
       style="fill:#000000"
       id="path1"
       sodipodi:nodetypes="ssccsscssscscccssssccscccsccccssccsscscscccsc" /><path
       d="m 164.33744,111.9888 c -0.65581,-0.83373 -0.66645,-1.01831 -0.14405,-2.49896 0.22238,-0.63028 0.34774,-1.29343 0.27857,-1.47366 -0.0692,-0.18024 -0.60637,-0.4717 -1.19381,-0.6477 -1.32458,-0.39685 -1.95852,-1.07017 -1.95852,-2.08019 0,-1.69869 1.29949,-2.31931 3.36693,-1.608 l 1.44793,0.49816 0.4138,-1.21443 c 0.55716,-1.63518 1.10436,-2.18433 2.17658,-2.18433 1.74354,0 2.39119,1.50943 1.53099,3.56816 -0.2268,0.54282 -0.346,1.05332 -0.26488,1.13444 0.0811,0.0811 0.76987,0.39568 1.53055,0.69901 1.57124,0.62656 2.08149,1.47557 1.64047,2.72961 -0.3475,0.9881 -1.38969,1.32195 -2.88136,0.92299 -0.64299,-0.17198 -1.31571,-0.34476 -1.49495,-0.38397 -0.17923,-0.0392 -0.51413,0.42283 -0.74422,1.02674 -0.5966,1.56592 -1.26341,2.20927 -2.28983,2.20927 -0.62023,0 -1.02137,-0.19775 -1.4142,-0.69714 z"
       style="fill:#000000"
       id="path1-9" /><path
       d="m 142.00569,177.27042 c -0.61459,-0.6146 -0.66156,-0.80838 -0.50315,-2.07624 0.27164,-2.17411 -0.22581,-3.67764 -1.62394,-4.90833 -0.64645,-0.56902 -1.49957,-1.1058 -1.89584,-1.19283 -0.39626,-0.087 -1.10262,-0.39064 -1.56968,-0.67468 -0.72002,-0.43787 -0.84921,-0.6718 -0.84921,-1.53764 0,-1.36732 0.70114,-1.99772 2.1584,-1.94062 1.84334,0.0722 2.97653,-0.3886 4.18832,-1.70324 1.35797,-1.47323 2.60831,-4.12065 3.58634,-7.59361 0.62846,-2.23162 0.83527,-2.64784 1.4818,-2.98217 0.9433,-0.4878 1.97604,-0.2511 2.51883,0.57731 0.34843,0.53176 0.3671,0.9515 0.12511,2.81177 -0.56081,4.31115 -0.58542,4.85893 -0.30579,6.80521 0.39332,2.73747 1.1888,4.01548 3.0464,4.89425 1.69397,0.80138 2.35302,1.62865 2.10013,2.63622 -0.28554,1.1377 -1.05776,1.47706 -3.36114,1.47706 -1.29089,0 -2.35017,0.14439 -2.81227,0.38335 -1.1369,0.58792 -2.30114,2.07064 -2.79619,3.56111 -0.71377,2.14896 -2.1851,2.7661 -3.48812,1.46308 z m 4.89992,-8.75669 c 0.0789,-0.052 -0.97293,-2.8851 -1.19982,-3.23177 -0.0355,-0.0542 -0.61491,0.45172 -1.28757,1.12438 l -1.22303,1.22302 0.7484,1.15008 0.7484,1.15008 1.05833,-0.67596 c 0.58209,-0.37178 1.10196,-0.7047 1.15529,-0.73983 z"
       style="fill:#000000"
       id="path1-2"
       sodipodi:nodetypes="ssscsscssssssssssssssscccss" /></g></svg>
