<?xml version="1.0" encoding="UTF-8" standalone="no"?>
<!-- Created with Inkscape (http://www.inkscape.org/) -->

<svg
   width="125.13792mm"
   height="127.51135mm"
   viewBox="0 0 125.13792 127.51135"
   version="1.1"
   id="svg1"
   xml:space="preserve"
   inkscape:version="1.3 (0e150ed6c4, 2023-07-21)"
   sodipodi:docname="help.svg"
   xmlns:inkscape="http://www.inkscape.org/namespaces/inkscape"
   xmlns:sodipodi="http://sodipodi.sourceforge.net/DTD/sodipodi-0.dtd"
   xmlns="http://www.w3.org/2000/svg"
   xmlns:svg="http://www.w3.org/2000/svg"><sodipodi:namedview
     id="namedview1"
     pagecolor="#ffffff"
     bordercolor="#000000"
     borderopacity="0.25"
     inkscape:showpageshadow="2"
     inkscape:pageopacity="0.0"
     inkscape:pagecheckerboard="0"
     inkscape:deskcolor="#d1d1d1"
     inkscape:document-units="mm"
     inkscape:zoom="0.71713664"
     inkscape:cx="200.79855"
     inkscape:cy="246.11767"
     inkscape:window-width="1920"
     inkscape:window-height="1011"
     inkscape:window-x="0"
     inkscape:window-y="32"
     inkscape:window-maximized="1"
     inkscape:current-layer="layer1" /><defs
     id="defs1" /><g
     inkscape:label="Layer 1"
     inkscape:groupmode="layer"
     id="layer1"
     transform="translate(-52.07472,-83.28865)"><path
       style="fill:#000000"
       d="m 97.686003,210.3034 c -0.561776,-0.56178 -0.567389,-0.58653 -1.352809,-5.96788 -0.297347,-2.03729 -0.597491,-3.89769 -0.666987,-4.13421 -0.08462,-0.28802 -0.670083,-0.53322 -1.772638,-0.74242 -2.707261,-0.51368 -7.248514,-1.77019 -10.906698,-3.01775 -8.545977,-2.91445 -8.889601,-3.16334 -10.835539,-7.84833 -2.177209,-5.24179 -4.073266,-8.58205 -7.434272,-13.09687 -2.242508,-3.01235 -2.751415,-4.11269 -2.758752,-5.96483 -0.0087,-2.20077 1.184195,-4.06832 3.283307,-5.14012 3.565582,-1.82059 8.255396,-0.58209 13.928516,3.6783 1.247772,0.93705 3.276148,2.76241 4.507503,4.05635 l 2.238827,2.35263 -0.729627,-5.312 c -0.401295,-2.9216 -1.21006,-8.76481 -1.797255,-12.98492 -0.587196,-4.2201 -1.065686,-7.97057 -1.063313,-8.33437 0.0074,-1.13458 1.200377,-3.29419 2.375243,-4.29983 2.034537,-1.74149 5.104104,-2.2821 7.298492,-1.28542 1.248285,0.56697 2.936854,1.97804 3.141203,2.62498 0.07761,0.2457 0.913538,4.61392 1.857618,9.70714 0.944081,5.09323 2.064803,10.33198 2.490494,11.64167 l 0.773984,2.38125 0.0269,-12.51006 c 0.0213,-9.90633 0.10178,-12.68726 0.38672,-13.36146 0.45489,-1.07631 1.54156,-2.15751 3.07382,-3.05834 1.02606,-0.60324 1.49815,-0.70347 3.31322,-0.70347 1.90776,0 2.28132,0.0893 3.78489,0.90453 0.91753,0.49749 1.78459,1.12195 1.92681,1.3877 0.14222,0.26574 0.6103,4.85933 1.04017,10.20797 1.56808,19.51098 1.47782,18.92882 2.28734,14.75188 0.33844,-1.74625 0.97953,-5.43719 1.42464,-8.20208 1.95886,-12.16778 2.41837,-13.42462 5.37611,-14.70437 3.07754,-1.33159 6.6644,-0.21362 8.43146,2.62795 0.57016,0.91688 0.59781,1.20278 0.56646,5.85871 -0.0393,5.83844 -0.79114,18.05777 -1.31863,21.43125 -0.3672,2.34838 0.61247,-0.35995 3.77368,-10.43245 3.13981,-10.00433 3.46929,-10.89898 4.32478,-11.7436 0.50932,-0.50284 1.40229,-1.13367 1.98437,-1.40184 1.14072,-0.52552 3.39643,-0.6534 4.4513,-0.25233 1.10001,0.41822 2.56101,1.88906 3.27397,3.29603 0.62518,1.23372 0.65747,1.45897 0.40174,2.80194 -5.38926,28.30192 -5.11772,26.69352 -4.78877,28.36558 0.83245,4.23127 -0.8008,9.23136 -4.25042,13.01235 -0.54839,0.60107 -1.14172,1.36914 -1.31851,1.70683 -0.18951,0.36198 -0.43142,2.80524 -0.58943,5.95312 -0.24321,4.84542 -0.31754,5.38198 -0.80377,5.80218 -0.66358,0.57347 -1.7577,0.59554 -2.53494,0.0511 -0.5643,-0.39524 -0.58804,-0.57609 -0.58804,-4.47877 0,-4.7247 0.3599,-7.76323 1.08875,-9.19189 0.28426,-0.55719 1.12168,-1.68096 1.86093,-2.49727 3.83876,-4.23889 4.50841,-10.02466 1.54936,-13.38632 -1.527,-1.73477 -3.7695,-2.6648 -6.48341,-2.68887 -3.11662,-0.0276 -5.42298,0.67496 -10.36409,3.15725 -4.73689,2.3797 -6.6255,2.94448 -8.89717,2.66065 -1.54017,-0.19243 -4.00559,-1.24751 -5.81488,-2.48848 -1.65142,-1.1327 -4.05007,-2.28623 -6.1447,-2.95504 -2.825846,-0.90228 -8.197191,-1.04066 -11.331824,-0.29193 -4.180257,0.99848 -4.648905,0.83917 -7.897839,-2.68485 -5.268174,-5.71422 -11.719239,-9.17781 -14.457058,-7.76203 -0.887929,0.45917 -1.264372,1.34192 -1.007943,2.36361 0.08547,0.34056 1.01328,1.7984 2.061794,3.23966 3.379107,4.64483 5.683271,8.74564 7.769458,13.82762 0.586721,1.42926 1.257016,2.6314 1.588245,2.84843 1.624398,1.06434 10.914257,4.09159 16.131421,5.25668 5.279609,1.17903 5.60501,1.58149 6.604856,8.16905 0.8164,5.37891 0.83141,6.09582 0.14202,6.78521 -0.673899,0.6739 -1.964698,0.68114 -2.631077,0.0148 z m 14.801907,-30.93536 c 0,-0.27144 -0.28761,-2.92058 -0.63913,-5.88698 -0.35152,-2.9664 -0.72253,-6.43215 -0.82447,-7.70166 -0.10308,-1.28382 -0.32977,-2.42807 -0.51079,-2.5783 -0.17899,-0.14855 -1.009,-0.24096 -1.84445,-0.20534 -1.31974,0.0563 -1.58539,-0.0172 -2.02508,-0.55986 -0.55288,-0.68239 -0.65224,-1.65061 -0.24708,-2.40765 0.32202,-0.6017 1.61361,-1.06877 2.95548,-1.06877 0.63519,0 1.02133,-0.12454 1.02542,-0.33073 0.004,-0.1819 -0.25023,-3.60495 -0.56409,-7.60677 -0.37526,-4.78472 -0.68525,-7.39936 -0.90534,-7.6362 -0.18407,-0.19808 -0.87483,-0.42104 -1.53502,-0.49545 -0.93744,-0.10566 -1.407,-0.008 -2.14393,0.44788 l -0.9436,0.58318 v 12.23971 c 0,6.73184 -0.0768,13.84003 -0.17056,15.79598 l -0.17055,3.55627 1.15551,0.52046 c 0.63553,0.28625 2.40685,1.2646 3.93627,2.17411 1.52941,0.9095 2.93165,1.65364 3.11608,1.65364 0.18443,0 0.33533,-0.22208 0.33533,-0.49352 z m 12.30313,-3.88028 c 0.7276,-0.26189 1.41619,-0.55571 1.53019,-0.65293 0.17662,-0.15064 0.44292,-2.59442 1.08845,-9.98857 0.1635,-1.8728 -0.25227,-2.30146 -2.00654,-2.06875 -1.13135,0.15008 -1.35464,0.0937 -1.93759,-0.48926 -0.86898,-0.86897 -0.86283,-1.9866 0.0155,-2.81171 0.54297,-0.51009 1.02516,-0.65333 2.47503,-0.73526 l 1.80069,-0.10175 0.1708,-2.7916 c 0.0939,-1.53538 0.17081,-3.90986 0.17081,-5.27662 0,-2.32122 -0.0443,-2.52606 -0.672,-3.1078 -0.90986,-0.84323 -1.79477,-1.02137 -2.86088,-0.57592 -0.81688,0.34132 -0.93774,0.54651 -1.44414,2.45188 -0.30396,1.14366 -0.80871,3.80579 -1.12167,5.91584 -0.45832,3.09011 -3.46852,19.81199 -4.10989,22.83074 l -0.1568,0.73803 2.86759,-1.43008 c 1.57717,-0.78654 3.46289,-1.64435 4.1905,-1.90624 z m 16.6688,-2.17464 c 1.02075,-5.36014 1.01643,-5.62031 -0.0998,-6.00291 -1.72988,-0.59292 -2.36689,-2.14026 -1.38188,-3.3567 0.47957,-0.59224 1.68157,-0.78264 2.89881,-0.45917 0.49528,0.13161 2.25782,-8.61034 1.87879,-9.31856 -0.6863,-1.28237 -2.15114,-1.47847 -3.09974,-0.41497 -0.41419,0.46435 -6.6785,19.66559 -6.6785,20.4708 0,0.12579 0.657,0.45202 1.45999,0.72497 0.80299,0.27294 2.02339,0.88635 2.71198,1.36313 0.6886,0.47677 1.32291,0.87342 1.40959,0.88144 0.0867,0.008 0.49203,-1.74159 0.90079,-3.88803 z m -44.086356,0.3105 c 0.05451,-0.0494 -0.519517,-2.2677 -1.275622,-4.92957 -0.756104,-2.66188 -1.433807,-5.04814 -1.506006,-5.3028 -0.158827,-0.56022 -0.837166,-0.58573 -1.535243,-0.0577 -1.621627,1.22654 -3.870055,-0.50236 -3.035467,-2.33408 0.309602,-0.67951 2.479795,-2.03996 3.254134,-2.03996 0.234969,0 0.427215,-0.0892 0.427215,-0.19823 0,-0.10903 -0.484296,-2.87723 -1.076214,-6.15157 -0.915263,-5.06299 -1.16257,-6.02169 -1.653645,-6.41046 -1.1704,-0.92658 -3.663772,-0.28301 -4.426726,1.14258 -0.171155,0.3198 -0.248067,1.01078 -0.170917,1.53551 0.334255,2.27337 3.358753,24.64776 3.358753,24.84711 0,0.20206 7.413423,0.10424 7.639738,-0.1008 z M 76.773557,134.54214 c -1.007793,-0.5099 -1.251326,-1.54185 -0.716208,-3.03486 0.247416,-0.6903 0.449259,-1.33482 0.448539,-1.43226 -7.19e-4,-0.0975 -0.596557,-0.37489 -1.324082,-0.61653 -2.105712,-0.69941 -2.736306,-2.18273 -1.467378,-3.45166 0.761687,-0.76169 1.427343,-0.80948 2.985642,-0.21436 0.626573,0.23929 1.175347,0.38812 1.219497,0.33073 0.04415,-0.0574 0.318095,-0.69966 0.608766,-1.42726 0.848335,-2.12355 2.661942,-2.626 3.709231,-1.02764 0.458131,0.6992 0.446617,0.81511 -0.351745,3.54118 -0.08176,0.27918 0.280447,0.53756 1.221357,0.87125 0.751871,0.26666 1.521027,0.75435 1.756505,1.11373 0.555069,0.84714 0.268426,2.13075 -0.60338,2.70198 -0.678578,0.44463 -0.803384,0.43166 -3.533069,-0.36708 -0.289256,-0.0846 -0.580007,0.29682 -1.001672,1.31416 -0.385922,0.93111 -0.826949,1.5395 -1.25854,1.73615 -0.821237,0.37418 -0.882447,0.37282 -1.693463,-0.0375 z m 40.787553,-5.56377 c -0.74293,-0.79083 -0.73448,-1.9605 0.02,-2.77171 l 0.59531,-0.64004 -1.05833,0.4564 c -4.25472,1.83486 -7.57936,2.56906 -11.77396,2.60011 -3.49894,0.0259 -5.16864,-0.23273 -8.598956,-1.33201 -2.410056,-0.77232 -6.929968,-2.9996 -8.121007,-4.00179 -0.688688,-0.5795 -0.781406,-0.80743 -0.669086,-1.64483 l 0.130388,-0.97211 -1.455255,-0.45873 c -3.854184,-1.21493 -7.863984,-4.00294 -10.471162,-7.2806 -1.544087,-1.94118 -3.623252,-5.7527 -3.623252,-6.64213 0,-0.88223 1.040622,-1.83561 2.003578,-1.83561 0.498761,0 0.906838,-0.0472 0.906838,-0.10483 0,-0.0577 -0.414825,-0.9804 -0.921834,-2.05053 -1.283066,-2.708126 -2.004925,-5.690473 -2.178152,-8.998999 -0.145113,-2.771567 -0.135875,-2.831753 0.538101,-3.505729 1.297505,-1.297505 2.200917,-0.932201 3.891902,1.573731 1.784384,2.644343 3.973605,4.955091 6.411376,6.767283 1.927294,1.432713 5.977591,3.672654 6.64289,3.673714 0.199933,3.3e-4 0.270548,-0.52205 0.211573,-1.56512 -0.07387,-1.306471 0.0028,-1.656904 0.463021,-2.117152 0.737791,-0.737791 2.016362,-0.707618 3.040107,0.07174 3.836293,2.920522 8.57559,3.234882 18.91424,1.254606 3.11306,-0.596276 5.73243,-1.092507 5.82084,-1.102735 0.42767,-0.04948 -0.9908,-0.475721 -1.63724,-0.491974 -1.07755,-0.02709 -2.09237,-1.139312 -1.98878,-2.179658 0.11125,-1.117216 0.91757,-1.648679 3.7167,-2.449754 8.91806,-2.55223 17.96496,-1.614244 24.0074,2.489097 2.08545,1.416205 4.26721,3.640517 5.44918,5.55546 0.88137,1.42794 1.02733,1.53969 2.57162,1.96904 2.46143,0.68434 5.14861,2.21358 7.04584,4.00969 1.39054,1.31643 1.69774,1.75866 1.69774,2.44398 0,1.15359 -0.7441,1.90188 -1.89122,1.90188 -0.76021,0 -1.1963,-0.25662 -2.42066,-1.42446 -1.28628,-1.2269 -3.78205,-2.80852 -4.43262,-2.80903 -0.11398,-9e-5 -0.16616,0.5926 -0.11595,1.31709 0.136,1.96244 -0.65843,5.43596 -1.75626,7.6789 -1.38683,2.8334 -4.27661,5.72907 -7.01542,7.02973 -2.07896,0.98729 -2.71785,1.03773 -3.73363,0.29478 -0.32519,-0.23785 -0.51547,-0.70823 -0.52917,-1.30813 -0.0118,-0.5152 -0.12915,-0.87059 -0.26086,-0.78974 -0.13171,0.0808 -1.10385,0.76714 -2.1603,1.52512 -3.6136,2.59263 -8.66577,4.87399 -13.21064,5.9654 -2.73932,0.65783 -3.35701,0.64254 -4.05493,-0.10035 z m -6.52841,-4.94045 c 2.68345,-0.68481 7.35999,-2.99719 9.89212,-4.89132 2.08167,-1.55716 2.28506,-1.62871 3.30672,-1.16321 1.24271,0.56621 1.34385,1.46577 0.44251,3.93551 -0.44306,1.214 -0.75795,2.25488 -0.69977,2.31306 0.22626,0.22626 4.82829,-1.94559 6.96476,-3.28691 2.36439,-1.48441 3.86021,-2.64667 6.65641,-5.17209 1.94569,-1.75726 2.80737,-1.94762 3.89462,-0.86037 0.61256,0.61255 0.65277,0.79281 0.48701,2.18281 l -0.18069,1.51512 1.10249,-1.05833 c 2.25818,-2.16775 3.76876,-6.65039 3.27284,-9.71208 l -0.22684,-1.40042 -2.41268,0.035 c -3.34497,0.0485 -6.91527,0.86826 -13.71408,3.14871 -10.72403,3.59705 -16.62272,4.69755 -25.26771,4.71411 -2.98318,0.006 -6.55505,-0.13392 -7.937498,-0.3103 -2.136919,-0.27265 -2.602742,-0.42133 -3.108854,-0.9923 -0.327422,-0.36938 -0.595312,-0.83796 -0.595312,-1.04127 0,-0.75541 0.639009,-1.73498 1.22827,-1.88287 0.33461,-0.084 2.539662,-0.004 4.900115,0.17682 9.660919,0.74175 17.481979,-0.38673 28.796609,-4.155 6.65519,-2.21647 10.19437,-3.13676 13.44419,-3.49588 1.20967,-0.13367 2.25466,-0.2983 2.32221,-0.36585 0.0675,-0.0675 -0.65577,-0.85116 -1.60739,-1.74135 -1.95222,-1.826208 -4.95668,-3.405288 -7.9413,-4.173782 -1.94028,-0.499592 -8.53871,-0.702379 -9.94874,-0.305751 -0.68296,0.192112 -0.67523,0.206713 0.99219,1.874132 1.82891,1.828916 2.06527,2.557841 1.18276,3.647701 -0.47214,0.58306 -0.67983,0.61702 -4.0349,0.65967 -2.99288,0.038 -4.41243,0.22002 -9.22568,1.18264 -5.3871,1.07738 -5.93391,1.13798 -10.31875,1.14366 -4.007357,0.005 -4.851763,-0.0685 -6.277209,-0.54759 -1.544159,-0.51902 -1.630894,-0.52349 -1.389063,-0.0716 0.448937,0.83884 0.284576,1.83708 -0.418188,2.53984 -0.7869,0.7869 -1.349015,0.74506 -4.615541,-0.34352 -4.140283,-1.37977 -8.833751,-4.13138 -11.57552,-6.786304 C 77.804345,98.749731 77.29833,98.4002 77.29833,98.57187 c 0,0.663438 1.358009,3.33421 2.633537,5.17932 0.791495,1.14494 1.335212,2.22028 1.335212,2.64072 0,0.96844 -0.864278,1.76668 -1.918229,1.77164 -1.603597,0.008 -1.650619,0.30073 -0.330015,2.05752 2.206589,2.93541 6.197661,5.57541 9.860719,6.52262 0.912642,0.236 2.628404,0.50382 3.812805,0.59515 2.473144,0.19072 3.126803,0.61215 3.126803,2.01595 0,0.62856 -0.224564,1.09169 -0.79375,1.637 -0.436562,0.41826 -0.79375,0.84259 -0.79375,0.94296 0,0.44539 4.400821,1.97875 7.234128,2.52057 2.47649,0.47358 6.81779,0.28418 9.56691,-0.41738 z m -55.337663,0.11315 c -0.76852,-0.76852 -0.751681,-1.19904 0.141423,-3.61571 1.128462,-3.05353 0.596627,-4.97271 -2.028205,-7.31898 -1.432378,-1.28037 -1.733535,-1.69275 -1.733535,-2.37378 0,-1.05322 0.755401,-1.88937 1.706906,-1.88937 0.408622,0 1.312903,0.22359 2.009514,0.49686 3.45539,1.35549 4.983767,1.01419 7.665947,-1.71186 2.145873,-2.18097 2.832197,-2.40976 3.931395,-1.31057 0.810307,0.81031 0.809443,1.20515 -0.007,3.18703 -0.816098,1.98111 -0.870734,3.9864 -0.147253,5.40454 0.285592,0.55981 1.257936,1.67582 2.160763,2.48004 1.339148,1.19287 1.641504,1.61201 1.641504,2.2755 0,1.67096 -1.73779,2.40722 -3.513903,1.48876 -1.438067,-0.74365 -3.188893,-0.98589 -4.632395,-0.64092 -1.12101,0.2679 -1.643979,0.62996 -3.267684,2.26228 -2.158632,2.17009 -2.812727,2.38096 -3.927505,1.26618 z m 5.622666,-7.23846 c 0.421897,-0.13349 1.080874,-0.31093 1.464393,-0.39432 0.684773,-0.14887 0.690927,-0.16948 0.342343,-1.14635 -0.195231,-0.54711 -0.360191,-1.21585 -0.366579,-1.48608 -0.0085,-0.36103 -0.134401,-0.44182 -0.474634,-0.30466 -0.254661,0.10267 -0.909505,0.25015 -1.455208,0.32773 -0.545703,0.0776 -0.992187,0.23536 -0.992187,0.35062 0,0.27067 0.605033,2.89576 0.667418,2.89576 0.02605,0 0.392556,-0.10921 0.814454,-0.2427 z m 103.384947,-7.04975 c -0.61459,-0.6146 -0.66156,-0.80838 -0.50315,-2.07624 0.27164,-2.17411 -0.22581,-3.67764 -1.62394,-4.90833 -0.64645,-0.56902 -1.49957,-1.1058 -1.89584,-1.19283 -0.39626,-0.087 -1.10262,-0.39064 -1.56968,-0.67468 -0.72002,-0.43787 -0.84921,-0.6718 -0.84921,-1.537652 0,-1.367324 0.70114,-1.997723 2.1584,-1.940622 1.84334,0.07223 2.97653,-0.388599 4.18832,-1.703239 1.35797,-1.473225 2.60831,-4.120645 3.58634,-7.593605 0.62846,-2.231628 0.83527,-2.647843 1.4818,-2.982176 0.9433,-0.487797 1.97604,-0.251095 2.51883,0.577311 0.34843,0.531762 0.3671,0.951498 0.12511,2.811774 -0.56081,4.311148 -0.58542,4.858927 -0.30579,6.805212 0.39332,2.73747 1.1888,4.015474 3.0464,4.894257 1.69397,0.80138 2.35302,1.62865 2.10013,2.63622 -0.28554,1.1377 -1.05776,1.47706 -3.36114,1.47706 -1.29089,0 -2.35017,0.14439 -2.81227,0.38335 -1.1369,0.58792 -2.30114,2.07064 -2.79619,3.56111 -0.71377,2.14896 -2.1851,2.7661 -3.48812,1.46308 z m 4.89992,-8.75669 c 0.0789,-0.052 -0.97293,-2.885111 -1.19982,-3.231785 -0.0355,-0.05425 -0.61491,0.451723 -1.28757,1.124386 l -1.22303,1.223019 0.7484,1.15009 0.7484,1.15008 1.05833,-0.67596 c 0.58209,-0.37178 1.10196,-0.7047 1.15529,-0.73983 z m -18.99546,-6.608411 c -0.65581,-0.833735 -0.66645,-1.018306 -0.14405,-2.498961 0.22238,-0.630281 0.34774,-1.293429 0.27857,-1.473662 -0.0692,-0.180233 -0.60637,-0.471696 -1.19381,-0.647695 -1.32458,-0.396856 -1.95852,-1.070176 -1.95852,-2.080191 0,-1.698693 1.29949,-2.319313 3.36693,-1.608006 l 1.44793,0.49816 0.4138,-1.214424 c 0.55716,-1.635182 1.10436,-2.18433 2.17658,-2.18433 1.74354,0 2.39119,1.509424 1.53099,3.56816 -0.2268,0.542823 -0.346,1.053323 -0.26488,1.134443 0.0811,0.08112 0.76987,0.395673 1.53055,0.699006 1.57124,0.626557 2.08149,1.47557 1.64047,2.729614 -0.3475,0.988096 -1.38969,1.321942 -2.88136,0.922983 -0.64299,-0.171973 -1.31571,-0.344757 -1.49495,-0.383964 -0.17923,-0.03921 -0.51413,0.422827 -0.74422,1.026741 -0.5966,1.565917 -1.26341,2.209266 -2.28983,2.209266 -0.62023,0 -1.02137,-0.197747 -1.4142,-0.69714 z"
       id="path1" /></g></svg>
