<svg class="svg-icon" style="width: 1em; height: 1em;vertical-align: middle;fill: currentColor;overflow: hidden;" viewBox="0 0 1024 1024" version="1.1" xmlns="http://www.w3.org/2000/svg"><path d="M337.290933 621.274776c194.275705-58.276265 358.937952-179.25664 457.380008-346.635765l90.600461 46.681182-53.016471-193.163371-188.137914 68.907393 91.596138 47.196928c-89.776699 152.99451-240.279459 263.46553-417.862993 316.441069-15.166421 2.576685-26.715455 15.767102-26.715455 31.661094 0 17.743106 14.390755 32.126698 32.136931 32.126698C328.300164 624.48898 333.055468 623.331621 337.290933 621.274776L337.290933 621.274776zM337.290933 621.274776"  /><path d="M860.207563 339.960739c-19.679202 0-35.635615 17.959024-35.635615 40.11258l0 475.658304c0 22.153556 15.956414 40.11258 35.635615 40.11258 19.683295 0 35.635615-17.959024 35.635615-40.11258L895.843178 380.072295C895.843178 357.918739 879.890858 339.960739 860.207563 339.960739L860.207563 339.960739zM860.207563 339.960739"  /><path d="M686.104293 492.065995c-19.683295 0-35.636638 17.963117-35.636638 40.116673l0 323.547931c0 22.153556 15.957437 40.11258 35.636638 40.11258s35.635615-17.959024 35.635615-40.11258L721.739908 532.179598C721.740932 510.028089 705.784518 492.065995 686.104293 492.065995L686.104293 492.065995zM686.104293 492.065995"  /><path d="M512.002047 611.225909c-19.683295 0-35.636638 17.959024-35.636638 40.113603l0 204.391087c0 22.153556 15.953344 40.11258 35.636638 40.11258 19.679202 0 35.635615-17.959024 35.635615-40.11258L547.637662 651.339512C547.637662 629.184933 531.681248 611.225909 512.002047 611.225909L512.002047 611.225909zM512.002047 611.225909"  /><path d="M337.894683 687.473477c-19.679202 0-35.635615 17.959024-35.635615 40.11258l0 128.144542c0 22.153556 15.956414 40.11258 35.635615 40.11258 19.683295 0 35.636638-17.959024 35.636638-40.11258L373.531322 727.586057C373.531322 705.432501 357.577978 687.473477 337.894683 687.473477L337.894683 687.473477zM337.894683 687.473477"  /><path d="M163.792437 755.725954c-19.683295 0-35.635615 17.959024-35.635615 40.11258l0 59.892065c0 22.153556 15.956414 40.11258 35.635615 40.11258s35.636638-17.959024 35.636638-40.11258L199.429075 795.838533C199.429075 773.684978 183.471638 755.725954 163.792437 755.725954L163.792437 755.725954zM163.792437 755.725954"  /><path d="M163.792437 577.520249c-19.683295 0-35.635615 17.959024-35.635615 40.11258l0 7.094582c0 22.153556 15.956414 40.11258 35.635615 40.11258s35.636638-17.959024 35.636638-40.11258l0-7.094582C199.429075 595.479273 183.471638 577.520249 163.792437 577.520249L163.792437 577.520249zM163.792437 577.520249"  /></svg>