<svg class="svg-icon" style="width: 1em;height: 1em;vertical-align: middle;fill: currentColor;overflow: hidden;" viewBox="0 0 1024 1024" version="1.1" xmlns="http://www.w3.org/2000/svg"><path d="M412.8 512a99.2 99.2 0 1 0 198.4 0 99.2 99.2 0 1 0-198.4 0Z" fill="#444444" /><path d="M627.2 412.8h70.4c6.4 0 12.8-6.4 12.8-12.8v-70.4c0-6.4-6.4-12.8-12.8-12.8h-70.4c-6.4 0-12.8 6.4-12.8 12.8v70.4c-3.2 6.4 3.2 12.8 12.8 12.8z" fill="#444444" /><path d="M512 0C230.4 0 0 230.4 0 512s230.4 512 512 512 512-230.4 512-512S793.6 0 512 0z m256 707.2c0 32-28.8 60.8-60.8 60.8H316.8c-32 0-60.8-25.6-60.8-60.8V316.8C256 281.6 284.8 256 316.8 256h390.4c32 0 60.8 25.6 60.8 60.8v390.4z" fill="#444444" /><path d="M668.8 512c0 86.4-70.4 156.8-156.8 156.8s-156.8-70.4-156.8-156.8c0-12.8 3.2-28.8 6.4-41.6H313.6v224c0 6.4 6.4 12.8 12.8 12.8h368c6.4 0 12.8-6.4 12.8-12.8v-224h-48c6.4 12.8 9.6 28.8 9.6 41.6z" fill="#444444" /></svg>