<svg class="svg-icon" style="width: 1em;height: 1em;vertical-align: middle;fill: currentColor;overflow: hidden;" viewBox="0 0 1024 1024" version="1.1" xmlns="http://www.w3.org/2000/svg"><path d="M512 0C230.4 0 0 230.4 0 512s230.4 512 512 512 512-230.4 512-512S793.6 0 512 0z m204.8 406.4v12.8c0 137.6-105.6 297.6-297.6 297.6-60.8 0-115.2-16-160-48h25.6c48 0 96-16 131.2-44.8-44.8 0-83.2-32-99.2-73.6 6.4 0 12.8 3.2 19.2 3.2 9.6 0 19.2 0 28.8-3.2-48-9.6-83.2-51.2-83.2-102.4 12.8 6.4 28.8 12.8 48 12.8-28.8-19.2-48-51.2-48-86.4 0-19.2 6.4-38.4 12.8-54.4 51.2 64 128 105.6 217.6 108.8-3.2-6.4-3.2-16-3.2-22.4 0-57.6 48-105.6 105.6-105.6 28.8 0 57.6 12.8 76.8 32 22.4-3.2 48-12.8 67.2-25.6-6.4 25.6-25.6 44.8-44.8 57.6 22.4-3.2 41.6-9.6 60.8-16-19.2 25.6-38.4 44.8-57.6 57.6z" fill="#444444" /></svg>