<svg class="svg-icon" style="width: 1em;height: 1em;vertical-align: middle;fill: currentColor;overflow: hidden;" viewBox="0 0 1024 1024" version="1.1" xmlns="http://www.w3.org/2000/svg"><path d="M512 0C230.4 0 0 230.4 0 512s230.4 512 512 512 512-230.4 512-512S793.6 0 512 0z m256 531.2c0 41.6-6.4 83.2-6.4 83.2s-6.4 35.2-19.2 51.2c-19.2 19.2-41.6 19.2-51.2 22.4-70.4 6.4-179.2 6.4-179.2 6.4s-134.4 0-172.8-6.4c-12.8-3.2-38.4 0-57.6-22.4-16-16-19.2-51.2-19.2-51.2S256 572.8 256 531.2v-38.4c0-41.6 6.4-83.2 6.4-83.2s6.4-35.2 19.2-51.2c19.2-19.2 41.6-19.2 51.2-22.4 70.4-6.4 179.2-6.4 179.2-6.4s108.8 0 179.2 6.4c9.6 0 32 0 51.2 22.4 16 16 19.2 51.2 19.2 51.2s6.4 41.6 6.4 83.2v38.4z" fill="#444444" /><path d="M457.6 579.2l140.8-73.6-140.8-70.4z" fill="#444444" /></svg>