<svg class="svg-icon" style="width: 1em; height: 1em;vertical-align: middle;fill: currentColor;overflow: hidden;" viewBox="0 0 1024 1024" version="1.1" xmlns="http://www.w3.org/2000/svg"><path d="M722.496 789.333333c-9.834667 36.992-44.202667 64-84.544 64H130.048C82.133333 853.333333 42.666667 815.274667 42.666667 767.573333l0.106666-3.136c0.256-3.242667 0.704-8.682667 1.408-15.573333 1.152-11.562667 2.56-23.104 4.224-34.048 3.413333-22.357333 7.317333-39.146667 13.376-51.797333C87.466667 609.365333 260.821333 538.24 384 538.24c59.136 0 129.856 16.384 190.229333 39.36C624.362667 552.618667 691.861333 533.333333 746.666667 533.333333c92.373333 0 220.842667 54.805333 241.429333 99.498667 4.864 10.56 7.786667 23.68 10.368 41.216a529.066667 529.066667 0 0 1 4.096 37.589333L1002.666667 714.666667a74.666667 74.666667 0 0 1-74.602667 74.666666h-205.568z m-47.36-159.573333c15.104 11.306667 25.984 22.613333 31.082667 33.258667 5.034667 10.517333 8.597333 23.893333 11.605333 40.981333h198.378667a424.96 424.96 0 0 0-2.176-17.578667c-0.853333-5.866667-1.813333-10.922667-2.517334-14.165333a112.426667 112.426667 0 0 0-7.808-5.461333 289.28 289.28 0 0 0-41.493333-21.397334C823.296 628.8 781.696 618.666667 746.666667 618.666667c-22.016 0-46.634667 4.010667-71.552 11.093333zM746.666667 490.666667a128 128 0 1 1 0-256 128 128 0 0 1 0 256z m0-85.333334a42.666667 42.666667 0 1 0 0-85.333333 42.666667 42.666667 0 0 0 0 85.333333z m-362.666667 80.426667A157.546667 157.546667 0 1 1 384 170.666667a157.546667 157.546667 0 0 1 0 315.093333z m0-85.333333A72.213333 72.213333 0 1 0 384 256a72.213333 72.213333 0 0 0 0 144.426667z m245.76 301.930666a142.08 142.08 0 0 0-16.021333-11.221333c-15.936-9.856-37.205333-20.48-60.736-30.144C496.426667 637.781333 435.84 623.573333 384 623.573333c-51.84 0-112.426667 14.186667-169.002667 37.397334-23.530667 9.642667-44.8 20.288-60.736 30.144a142.08 142.08 0 0 0-16.512 11.648c-1.365333 4.714667-3.285333 13.802667-4.992 24.896a590.997333 590.997333 0 0 0-4.629333 39.914666c0.256 0.106667 0.853333 0.405333 1.92 0.405334h507.904c1.066667 0 1.664-0.298667 1.92-0.405334a668.928 668.928 0 0 0-4.629333-39.914666c-1.706667-11.093333-3.626667-20.181333-4.992-24.896a55.594667 55.594667 0 0 0-0.490667-0.426667z" fill="#000000" /></svg>